<?xml version="1.0" encoding="utf-8"?>
<!-- Generator: Adobe Illustrator 22.1.0, SVG Export Plug-In . SVG Version: 6.00 Build 0)  -->
<svg version="1.1" id="Layer_1" xmlns="http://www.w3.org/2000/svg" xmlns:xlink="http://www.w3.org/1999/xlink" x="0px" y="0px"
	 viewBox="0 0 478.90662 478.90662" enable-background="new 0 0 478.90662 478.90662" xml:space="preserve">
<g id="Idle_8_">
	<g>
		<defs>
			<circle id="SVGID_1_" cx="239.45331" cy="239.45331" r="239.45331"/>
		</defs>
		<clipPath id="SVGID_2_">
			<use xlink:href="#SVGID_1_"  overflow="visible"/>
		</clipPath>
		<g clip-path="url(#SVGID_2_)">
			<g>
				<path fill="#7BDED2" d="M224.11864,278.11996h30.66936c69.35373,0,125.57602,56.22232,125.57602,125.57605v96.23694H98.5426
					v-96.23694C98.5426,334.34229,154.76491,278.11996,224.11864,278.11996z"/>
				<path fill="#33475B" d="M380.36414,503.93274H98.54237c-2.20898,0-4-1.79102-4-4v-96.23633
					c0-71.44824,58.12743-129.57617,129.57617-129.57617h30.66943c71.44823,0,129.57616,58.12793,129.57616,129.57617v96.23633
					C384.36414,502.14172,382.57312,503.93274,380.36414,503.93274z M102.54237,495.93274h273.82178v-92.23633
					c0-67.03711-54.53906-121.57617-121.57617-121.57617h-30.66943c-67.03711,0-121.57616,54.53906-121.57616,121.57617V495.93274z"
					/>
			</g>
			<g>
				<g>
					<g>
						<line fill="none" x1="169.10745" y1="499.93295" x2="169.10745" y2="433.0675"/>
						<path fill="#33475B" d="M169.1073,503.93274c-2.20898,0-4-1.79102-4-4V433.0675c0-2.20898,1.79102-4,4-4s4,1.79102,4,4
							v66.86523C173.1073,502.14172,171.31628,503.93274,169.1073,503.93274z"/>
					</g>
				</g>
				<g>
					<g>
						<line fill="none" x1="309.79916" y1="499.93295" x2="309.79916" y2="433.0675"/>
						<path fill="#33475B" d="M309.79871,503.93274c-2.20898,0-4-1.79102-4-4V433.0675c0-2.20898,1.79102-4,4-4s4,1.79102,4,4
							v66.86523C313.79871,502.14172,312.00769,503.93274,309.79871,503.93274z"/>
					</g>
				</g>
			</g>
		</g>
	</g>
</g>
<g id="Avatar_8">
	<g>
		<g>
			<path fill="#F4A9AD" d="M339.54666,213.17633c-2.73975,1.30005-5.7998,2.04004-9.04004,2.04004
				c-1.04004,0-2.05957-0.07996-3.05957-0.21997c1-0.28003,2.01953-0.54004,3.05957-0.73999
				C333.42703,213.63641,336.44705,213.25641,339.54666,213.17633z"/>
			<path fill="#33475B" d="M330.50671,219.21643c-1.17285,0-2.38867-0.08691-3.61426-0.25879
				c-1.87598-0.26318-3.30957-1.80469-3.43652-3.69434c-0.12598-1.88965,1.08984-3.60889,2.91309-4.11914
				c1.29297-0.36182,2.36816-0.62109,3.38379-0.81592c3.17285-0.6748,6.45898-1.06689,9.69043-1.15039
				c1.93359-0.04443,3.55566,1.23193,3.99414,3.06982s-0.46875,3.73291-2.17676,4.54297
				C337.86707,218.40002,334.2489,219.21643,330.50671,219.21643z"/>
		</g>
		<g>
			<circle fill="#E8CBC0" cx="330.86578" cy="194.30176" r="20.9198"/>
			<path fill="#33475B" d="M330.86609,219.2218c-13.74121,0-24.91992-11.1792-24.91992-24.91992
				s11.17871-24.91992,24.91992-24.91992s24.91992,11.1792,24.91992,24.91992S344.6073,219.2218,330.86609,219.2218z
				 M330.86609,177.38196c-9.33008,0-16.91992,7.59033-16.91992,16.91992s7.58984,16.91992,16.91992,16.91992
				s16.91992-7.59033,16.91992-16.91992S340.19617,177.38196,330.86609,177.38196z"/>
		</g>
		<g>
			<path fill="#F0DCD5" d="M331.0867,171.07635v46.46008c0,50.41992-40.87988,91.29993-91.2998,91.29993
				c-50.43994,0-91.32031-40.88-91.32031-91.29993v-46.46008c0-50.41991,40.88037-91.31994,91.32031-91.31994
				c25.21973,0,48.04004,10.21997,64.56006,26.76001C320.86697,123.03645,331.0867,145.85638,331.0867,171.07635z"/>
			<path fill="#33475B" d="M239.78699,312.83606c-52.55957,0-95.32031-42.75098-95.32031-95.2998v-46.45996
				c0-52.55957,42.76074-95.31982,95.32031-95.31982c25.4668,0,49.39941,9.92041,67.38965,27.93311
				c17.99707,17.99707,27.91016,41.9292,27.91016,67.38672v46.45996C335.08679,270.08508,292.33582,312.83606,239.78699,312.83606z
				 M239.78699,83.75647c-48.14844,0-87.32031,39.17139-87.32031,87.31982v46.45996c0,48.1377,39.17188,87.2998,87.32031,87.2998
				c48.1377,0,87.2998-39.16211,87.2998-87.2998v-46.45996c0-23.32031-9.08008-45.24365-25.56836-61.73145
				C285.03699,92.84338,263.11414,83.75647,239.78699,83.75647z"/>
		</g>
		<path fill="#33475B" d="M206.76552,194.2793c0,6.18382-5.05539,11.2392-11.2392,11.2392
			c-6.18382,0-11.19429-5.05537-11.19429-11.2392c0-6.18381,5.01047-11.19429,11.19429-11.19429
			c1.03807,0,2.07614,0.13554,3.06931,0.45155c-1.26398,0.94771-2.03123,2.4825-2.03123,4.19775
			c0,3.06931,2.48251,5.50664,5.50664,5.50664c1.76044,0,3.29523-0.76726,4.28812-2.03125
			C206.62996,192.1577,206.76552,193.19577,206.76552,194.2793z"/>
		<path fill="#33475B" d="M295.22482,194.2793c0,6.18382-5.05539,11.2392-11.2392,11.2392s-11.19427-5.05537-11.19427-11.2392
			c0-6.18381,5.01047-11.19429,11.19427-11.19429c1.03809,0,2.07614,0.13554,3.06931,0.45155
			c-1.26398,0.94771-2.03122,2.4825-2.03122,4.19775c0,3.06931,2.48248,5.50664,5.50662,5.50664
			c1.76044,0,3.29523-0.76726,4.28812-2.03125C295.08926,192.1577,295.22482,193.19577,295.22482,194.2793z"/>
		<g>
			<path fill="#F0DCD5" d="M233.43643,194.30176l-7.20995,23.57567c-1.44061,4.71066,2.08296,9.4729,7.00899,9.4729h9.91917"/>
			<path fill="#33475B" d="M243.15417,231.35022h-9.91895c-3.62891,0-6.94873-1.67334-9.10693-4.59082
				c-2.15869-2.91748-2.78809-6.58105-1.72705-10.05176l7.20996-23.57568c0.64648-2.11279,2.88184-3.30029,4.99512-2.65527
				c2.1123,0.646,3.30127,2.88232,2.65527,4.99512l-7.20996,23.57568c-0.31201,1.01953-0.12695,2.09619,0.50732,2.95361
				s1.60986,1.34912,2.67627,1.34912h9.91895c2.20898,0,4,1.79102,4,4S245.36316,231.35022,243.15417,231.35022z"/>
		</g>
		<g>
			<circle fill="#E0BAAB" cx="179.20247" cy="217.42918" r="4.07439"/>
			<circle fill="#E0BAAB" cx="178.50229" cy="229.86163" r="4.07439"/>
			<circle fill="#E0BAAB" cx="189.6772" cy="224.47137" r="4.07439"/>
		</g>
		<g>
			<circle fill="#D19781" cx="302.0838" cy="233.46191" r="4.07439"/>
		</g>
		<g>
			<path fill="#E0BAAB" d="M160.84695,150.77643c-0.1001,0.02002-0.2002,0.02002-0.30029,0.02002
				c-0.51953,0.0199-1.01953,0.0199-1.51953,0.0199C159.64676,150.81635,160.24686,150.79645,160.84695,150.77643z"/>
			<path fill="#33475B" d="M159.02722,154.81653c-2.20898,0-4-1.79102-4-4s1.79102-4,4-4c0.57422,0,1.13037-0.01904,1.68652-0.0376
				c2.06055-0.08252,3.86719,1.46875,4.10693,3.53711c0.23926,2.06836-1.14746,3.97461-3.18896,4.38281
				c-0.43018,0.08594-0.79395,0.09619-1.00684,0.09766C160.07996,154.81555,159.55359,154.81653,159.02722,154.81653z"/>
		</g>
		<g>
			<path fill="#F4A9AD" d="M127.14677,139.55634c5.54003,4.44006,12.02001,7.74011,19.02001,9.6001
				C139.10672,147.33636,132.64676,144.03644,127.14677,139.55634z"/>
			<path fill="#33475B" d="M146.1698,153.15735c-0.33057,0-0.6665-0.0415-1.00146-0.12744
				c-7.58545-1.95557-14.49854-5.44531-20.54784-10.37207c-1.70801-1.3916-1.96924-3.90186-0.58496-5.61523
				c1.38379-1.71338,3.89355-1.98535,5.61279-0.60742c5.12109,4.104,11.18848,7.16602,17.5459,8.85547
				c2.12939,0.56543,3.40039,2.74707,2.84229,4.87842C149.56628,151.96643,147.94519,153.15735,146.1698,153.15735z"/>
		</g>
		<g>
			<path fill="#F4A9AD" d="M147.80692,149.55634c1.45996,0.32007,2.91992,0.6001,4.41992,0.80005
				c-0.64014-0.07996-1.27979-0.18005-1.8999-0.28003C149.48709,149.93634,148.62674,149.75641,147.80692,149.55634z"/>
			<path fill="#33475B" d="M152.23181,154.35706c-0.16553,0-0.33301-0.01025-0.50146-0.03125
				c-0.6875-0.08643-1.37451-0.19287-2.04053-0.30078c-0.93652-0.15576-1.88184-0.35107-2.83154-0.58301
				c-2.12842-0.51953-3.44238-2.65479-2.94775-4.78906c0.49414-2.13379,2.60986-3.47217,4.75391-3.00391
				c1.55908,0.34229,2.85938,0.57812,4.0918,0.74268c2.18311,0.2915,3.72021,2.29297,3.4375,4.47754
				C155.93347,152.88538,154.21326,154.35706,152.23181,154.35706z"/>
		</g>
		<g>
			<path fill="#F4A9AD" d="M168.76688,149.85638v0.02002c-0.6001,0.09998-1.18018,0.19995-1.77979,0.29993
				C167.5867,150.07635,168.16678,149.97638,168.76688,149.85638z"/>
			<path fill="#33475B" d="M166.9823,154.17688c-1.91943,0-3.61377-1.38574-3.94043-3.3418
				c-0.0376-0.22363-0.05518-0.4458-0.05518-0.66504c0.00049-1.91895,1.38623-3.61279,3.3418-3.93896l0.41992-0.0708
				c0.41211-0.07031,0.81934-0.14355,1.23633-0.22656c1.17432-0.23242,2.39307,0.07031,3.31934,0.83008
				c0.92578,0.75977,1.46289,1.89502,1.46289,3.09277v0.02002c0,1.95654-1.41504,3.62549-3.34521,3.9458l-1.35352,0.22803
				c-0.14014,0.02393-0.28076,0.04785-0.42236,0.07129C167.42273,154.15881,167.20105,154.17688,166.9823,154.17688z"/>
		</g>
		<g>
			<path fill="#F4A9AD" d="M330.50662,172.4964v0.88c-8.65967-0.07996-16.55957-3.38-22.75977-8.70007
				c-5.6001-4.85999-9.7998-11.35999-11.78027-18.65991C300.1868,161.19635,314.04666,172.35638,330.50662,172.4964z"/>
			<path fill="#33475B" d="M330.50671,177.37659c-0.0127,0-0.02441,0-0.03711,0c-9.16797-0.08496-18.16309-3.51709-25.32715-9.66455
				c-6.36719-5.52441-10.86914-12.65967-13.03613-20.64844c-0.57715-2.12744,0.67578-4.3208,2.80078-4.90479
				c2.12891-0.58252,4.32422,0.6626,4.91309,2.78613c3.82129,13.74561,16.4541,23.43018,30.7207,23.55127
				c2.19531,0.01855,3.96582,1.8042,3.96582,4v0.88037c0,1.06738-0.42676,2.09033-1.18457,2.84131
				C332.57312,176.96057,331.56042,177.37659,330.50671,177.37659z"/>
		</g>
		<g>
			<path fill="#F4A9AD" d="M392.42706,269.8764c-2.35986,24.38-22.17993,44-46.57983,46.16003
				c-21.40015,1.88-40.44019-9.32007-49.88013-26.54004c-0.06006-0.09998-0.11987-0.21997-0.17993-0.32007
				c-3.93994-7.27991-6.17993-15.62-6.17993-24.47998c0-16.14001,7.3999-30.52002,19-39.97998
				c5.45996-4.45996,11.85986-7.81995,18.83984-9.71997c1-0.28003,2.02002-0.54004,3.06006-0.73999
				c0.2002-0.04004,0.37988-0.08008,0.58008-0.12c1.27979-0.26001,2.56006-0.46008,3.87988-0.62
				c4.72021-0.58008,9.2002-2.68005,12.12012-6.46008c2.71997-3.5199,4.33984-7.95996,4.33984-12.75989
				c0-5.76001-2.33984-10.9801-6.09985-14.76001c-3.67993-3.68005-8.67993-6-14.23999-6.14001
				c-0.2002-0.02002-0.37988-0.02002-0.58008-0.02002c-8.65991-0.07996-16.56006-3.38-22.76001-8.70007
				c-5.59985-4.85999-9.80005-11.35999-11.78003-18.65991c-0.13989-0.47998-0.27979-0.97998-0.37988-1.46008
				c-0.12012-0.5199-0.22021-1.03992-0.32007-1.55994c-0.09985-0.56006-0.19995-1.12-0.28003-1.69995
				c-0.1001-0.66003-0.15991-1.32007-0.21997-2c-9,3.71997-18.86011,5.75989-29.21997,5.75989
				c-23.69995,0-44.87988-10.71997-58.97998-27.59997c-3.08008,8.47998-8.35986,15.90002-15.14014,21.56005
				c-6.3999,5.38-14.15991,9.17993-22.65991,10.83997c-0.59985,0.12-1.17993,0.21997-1.78003,0.31995
				c-1,0.16003-2,0.30005-3.02002,0.38c-0.43994,0.06006-0.87988,0.1001-1.33984,0.12
				c-0.58008,0.06006-1.18018,0.08008-1.78003,0.1001c-0.6001,0.02002-1.19995,0.03992-1.82007,0.03992h-0.08008
				c-1.27979,0-2.54004-0.05994-3.77979-0.15991c-0.2002,0-0.38013-0.02002-0.58008-0.04004
				c-0.35986-0.02002-0.7002-0.06006-1.04004-0.09998c-0.43994-0.04004-0.87988-0.09998-1.31982-0.16003
				c-0.46021-0.05994-0.90015-0.12-1.34033-0.21997c-1.57983,6.71997-2.41992,13.73999-2.41992,20.93994v46.46008
				c0,34.41992,19.04004,64.38,47.18018,79.93994c-8.32007,10.12-20.2002,17.35999-34.14014,19.66003
				c-30.58008,5.03992-59.47998-15.66003-64.52002-46.23999c-3.33984-20.16003,4.54004-39.59998,19.06006-51.94006
				c-4.62012-6.64001-7.85986-14.38-9.28003-22.88c-3.57983-21.79993,5.88013-42.71997,22.67993-54.77991
				c-0.77979-0.56006-1.56006-1.14001-2.2998-1.74011c-0.02002,0-0.02002,0-0.02002,0
				c-0.86011-0.69995-1.68018-1.3999-2.47998-2.13989c-2.06006-1.88-3.95996-3.92004-5.68018-6.12
				c-5.33984-6.8601-8.95996-15.14001-10.19995-24.16003c-0.02002-0.04004-0.03979-0.08008-0.02002-0.12
				c-0.07983-0.62-0.15991-1.23999-0.21997-1.88c-0.02002-0.14001-0.04004-0.28003-0.04004-0.42004
				c-0.06006-0.73999-0.12012-1.47998-0.13989-2.21997c-0.04004-0.78003-0.06006-1.56006-0.06006-2.33997
				c0-2.62,0.19995-5.20007,0.57983-7.72009c0.26025-1.65991,0.6001-3.31995,1.02002-4.93994
				c1.74023-6.83997,4.90015-13.09998,9.12012-18.5c0.78003-1,1.6001-1.95996,2.43994-2.90002
				c9.26025-10.19995,22.64014-16.59998,37.50001-16.59998c0.86011,0,1.72021,0.02002,2.58008,0.07996
				c0.54004,0.02002,1.08008,0.04004,1.62012,0.09998c2.21973,0.18005,4.37988,0.5,6.5,0.96008
				c0.54004,0.12,1.08008,0.23999,1.63989,0.38c0.63989,0.15991,1.30005,0.33997,1.95996,0.53992
				c0.63989,0.18005,1.28003,0.38,1.92017,0.6001c0.57983,0.19995,1.13989,0.3999,1.71973,0.62
				c0.80029,0.27991,1.58008,0.62,2.36011,0.95996c0.46021,0.19995,0.90015,0.40002,1.36011,0.62
				c0.41992,0.19995,0.83984,0.40002,1.25977,0.62c0.58008,0.28003,1.14014,0.57996,1.7002,0.90002
				c0.47998,0.26001,0.97998,0.54004,1.43994,0.83997c0.18018,0.09998,0.35986,0.21997,0.54004,0.32007
				c6.64014-8.20007,16.78003-13.46008,28.16016-13.46008c14,0,26.13989,7.94006,32.11987,19.58008
				c4.34009-0.64001,8.76001-0.9801,13.28003-0.9801c51.04004,0,92.17993,42.30005,90.31982,93.76001
				c15.74023,5.62,27.02002,20.68005,27.02002,38.36011c0,9.81995-3.47998,18.83997-9.27979,25.87988
				C383.82721,229.91644,394.48712,248.77643,392.42706,269.8764z"/>
			<path fill="#33475B" d="M152.34216,321.88977c-28.8955,0.00098-54.45457-20.93164-59.30175-50.34277
				c-3.23633-19.53564,3.54785-39.62256,17.78857-53.26709c-4.02393-6.57129-6.71387-13.80322-8.00732-21.54443
				c-3.45166-21.01953,4.22168-41.80078,20.15576-55.44287c-0.36328-0.31738-0.71094-0.62939-1.0459-0.93945
				c-2.21826-2.02441-4.28223-4.24854-6.11523-6.59277c-5.84277-7.50635-9.63135-16.41602-10.97168-25.79102
				c-0.05469-0.2373-0.08789-0.47754-0.1001-0.71777c-0.0708-0.55615-0.13721-1.09473-0.19043-1.64502
				c-0.02393-0.1709-0.05225-0.40381-0.06299-0.67773c-0.0625-0.77637-0.12158-1.55029-0.14258-2.32471
				c-0.03955-0.75098-0.06152-1.59961-0.06152-2.44775c0-2.76855,0.21045-5.56641,0.625-8.31641
				c0.28809-1.83984,0.6582-3.63086,1.10303-5.34717c1.84277-7.24268,5.15479-13.96387,9.84033-19.95947
				c0.75049-0.9624,1.60449-1.97803,2.60889-3.10205c10.35595-11.40674,25.10351-17.93506,40.4829-17.93506
				c1.03125,0,1.9458,0.02783,2.79199,0.08496c0.54199,0.02051,1.14893,0.04443,1.7876,0.11279
				c2.35693,0.19385,4.70117,0.5415,6.96875,1.0332c0.59326,0.13184,1.1665,0.25977,1.76025,0.4082
				c0.70361,0.17578,1.42725,0.37354,2.15039,0.59229c0.63721,0.17871,1.34961,0.40137,2.0625,0.64648
				c0.60645,0.20947,1.18896,0.41699,1.79053,0.64453c0.91553,0.32275,1.75635,0.68945,2.56934,1.04395
				c0.5166,0.22363,1.00049,0.44385,1.50635,0.68604c0.43701,0.20801,0.88281,0.42139,1.3291,0.65332
				c0.3457,0.16797,0.69336,0.3457,1.04932,0.53662c7.57471-7.89551,17.96289-12.3623,28.99414-12.3623
				c14.15332,0,27.04248,7.31055,34.28369,19.2583c3.70312-0.43701,7.43066-0.6582,11.11621-0.6582
				c25.85449,0,49.97949,10.25049,67.93164,28.8628c17.29395,17.93018,26.62402,41.34326,26.44629,66.2002
				c16.24121,7.02881,26.96191,23.17529,26.96191,41.05713c0,8.84863-2.64551,17.50977-7.52051,24.82227
				c16.32031,11.40723,25.44727,31.01318,23.48145,51.146c-2.56543,26.48145-23.67969,47.40723-50.20801,49.75586
				c-22.03809,1.93457-43.11914-9.27148-53.71582-28.55566c-0.04004-0.06934-0.08008-0.14258-0.12012-0.21582
				c-0.03125-0.05273-0.06641-0.11523-0.09473-0.16895c-4.3584-8.05371-6.66211-17.17676-6.66211-26.38379
				c0-16.76855,7.46191-32.47021,20.47168-43.08008c6.0293-4.92432,12.86523-8.45068,20.31738-10.47949
				c1.26562-0.35449,2.34082-0.61377,3.35645-0.80859l0.5498-0.11426c1.3252-0.26904,2.69629-0.48828,4.18164-0.66846
				c4.00586-0.49219,7.35938-2.24512,9.43652-4.93457c2.29395-2.96729,3.50586-6.53369,3.50586-10.31445
				c0-4.49902-1.75293-8.73926-4.93555-11.93945c-3.08789-3.08838-7.17676-4.85303-11.50488-4.96191
				c-0.09961-0.00244-0.19824-0.0083-0.29785-0.01855c-0.04688-0.00049-0.1123,0-0.18164,0
				c-9.20508-0.08496-18.2002-3.51709-25.36426-9.66455c-6.36719-5.52588-10.86914-12.66113-13.03613-20.64844
				c-0.13965-0.47803-0.30566-1.07031-0.43457-1.68701c-0.04395-0.1875-0.08691-0.38672-0.12891-0.59277
				c-8.32422,2.83691-17.04688,4.27246-25.99609,4.27246c-21.88867,0-42.61084-8.78809-57.77979-24.31104
				c-3.34619,6.63232-8.0332,12.54784-13.77637,17.3418c-7.00977,5.89307-15.47021,9.93994-24.45703,11.69531
				c-0.62549,0.125-1.24609,0.23242-1.88818,0.33936c-0.88721,0.14209-2.02686,0.3125-3.25342,0.41309
				c-0.4917,0.06445-0.97559,0.10791-1.47314,0.13232c-0.6748,0.06494-1.31641,0.08643-1.93848,0.10693
				c-1.95947,0.06689-3.92822,0.04395-6.00732-0.12061c-0.23828-0.00684-0.46582-0.02539-0.70605-0.04932
				c-0.08057-0.00488-0.16016-0.01074-0.23975-0.01709c-1.03613,5.41357-1.56006,10.94482-1.56006,16.48926v46.45996
				c0,31.76172,17.28711,61.05176,45.11572,76.44043c1.04004,0.57422,1.77051,1.58203,1.99316,2.74902
				c0.22314,1.16797-0.08447,2.37305-0.83887,3.29102c-9.21924,11.21387-22.20947,18.69531-36.57861,21.06641
				C158.86121,321.62708,155.57996,321.88977,152.34216,321.88977z M129.42761,136.27063
				c0.08203,0.05664,0.16211,0.11621,0.23975,0.1792c0.58691,0.47607,1.2583,0.98389,2.11328,1.59766
				c1.04639,0.75146,1.6665,1.96143,1.6665,3.24951s-0.62061,2.49756-1.66748,3.24902
				c-16.23388,11.65381-24.30566,31.15039-21.06542,50.88232c1.29248,7.73389,4.19189,14.88477,8.61621,21.24316
				c1.17676,1.69092,0.87695,3.99854-0.69287,5.33252c-13.89355,11.80811-20.67725,30.29199-17.7041,48.23926
				c4.67383,28.35645,31.56005,47.625,59.92333,42.94629c10.89014-1.79688,20.86621-6.97949,28.54004-14.74805
				c-27.83789-17.35156-44.92969-47.90527-44.92969-80.90527v-46.45996c0-7.37305,0.8501-14.72656,2.52588-21.85547
				c0.50293-2.14014,2.63916-3.47461,4.78125-2.98486c0.31836,0.07227,0.6377,0.11084,0.9707,0.1543
				c0.40381,0.05518,0.78418,0.10791,1.16455,0.14258c0.03564,0.00293,0.0708,0.00684,0.10596,0.01074
				c0.25928,0.03076,0.51904,0.06348,0.79395,0.0791c0.05908,0.00293,0.11816,0.00781,0.17676,0.01367l0.21826,0.021
				c0.10742,0,0.17773,0.00342,0.28467,0.01221c1.95605,0.15771,3.73291,0.15918,5.22314,0.10938
				c0.50732-0.01709,1.01367-0.03076,1.50293-0.08105c0.0791-0.0083,0.15869-0.01416,0.23828-0.01758
				c0.33398-0.01465,0.65332-0.04346,0.97266-0.0874c0.07568-0.01025,0.15186-0.01855,0.22803-0.02441
				c0.76807-0.06006,1.60107-0.16553,2.7002-0.3418c0.53271-0.08887,1.07227-0.18164,1.62988-0.29297
				c7.67383-1.49854,14.88477-4.94824,20.86865-9.97949c6.33154-5.28467,11.15283-12.15039,13.95459-19.86377
				c0.48877-1.34521,1.65869-2.32666,3.06836-2.57422c1.40576-0.24756,2.84424,0.27686,3.76123,1.37549
				c13.88916,16.62793,34.26709,26.16455,55.90967,26.16455c9.61523,0,18.93262-1.83594,27.69238-5.45654
				c1.17676-0.48633,2.51465-0.38379,3.60449,0.27783c1.08887,0.66113,1.79688,1.80078,1.9082,3.06982
				c0.05273,0.59326,0.10156,1.16992,0.18945,1.74658c0.08105,0.58105,0.17188,1.08789,0.2627,1.59521
				c0.08203,0.42529,0.17188,0.896,0.28027,1.3667c0.09766,0.4624,0.21191,0.86035,0.32324,1.24268
				c1.74414,6.42773,5.48828,12.354,10.56152,16.75684c5.80176,4.97803,12.78418,7.65283,20.1748,7.72119
				c0.00293,0,0.00684,0,0.01074,0c0.24512,0,0.49219,0.00439,0.75781,0.0249c6.34277,0.19092,12.31934,2.78271,16.84277,7.30615
				c4.69238,4.71729,7.27148,10.96094,7.27148,17.58887c0,5.48828-1.83789,10.88818-5.1748,15.20605
				c-3.39355,4.39258-8.64844,7.22803-14.79688,7.98389c-1.2793,0.15527-2.44629,0.34131-3.57324,0.56982l-0.59082,0.12256
				c-0.82227,0.1582-1.69141,0.36914-2.76562,0.66943c-6.38965,1.73975-12.23047,4.75391-17.3877,8.96582
				c-11.1416,9.08594-17.53027,22.52832-17.53027,36.88232c0,7.86133,1.95996,15.64648,5.66797,22.52051
				c0.04004,0.06934,0.0791,0.1416,0.11816,0.21387c0.02637,0.04199,0.05664,0.09863,0.08105,0.14258
				c9.0625,16.53027,27.12793,26.1377,46.02344,24.47852c22.32617-1.97656,40.79004-20.27441,42.94727-42.56152
				c0-0.00098,0-0.00195,0-0.00293c1.83691-18.81055-7.08984-36.38232-23.29688-45.85791
				c-1.0127-0.5918-1.71387-1.59766-1.91895-2.75146c-0.20605-1.1543,0.10449-2.34033,0.85059-3.24512
				c5.39551-6.5498,8.36719-14.8374,8.36719-23.33643c0-15.48779-9.79199-29.38965-24.36523-34.59326
				c-1.64258-0.58643-2.71582-2.16895-2.65234-3.91162c0.85742-23.71973-7.71875-46.16406-24.14844-63.19873
				c-16.43066-17.03516-38.51074-26.4165-62.17383-26.4165c-4.20898,0-8.48047,0.31543-12.69629,0.93701
				c-1.7002,0.24951-3.35938-0.60645-4.1416-2.12939c-5.5166-10.73731-16.46094-17.40772-28.56201-17.40772
				c-9.75684,0-18.8877,4.36572-25.05176,11.97705c-1.22217,1.51074-3.35498,1.92285-5.05078,0.97949
				c-0.13721-0.07617-0.2749-0.15869-0.41211-0.24268l-0.12891-0.07764c-0.0752-0.04248-0.16846-0.09814-0.24072-0.14502
				c-0.36426-0.2373-0.81104-0.48438-1.15967-0.67285c-0.59912-0.3418-1.07471-0.59375-1.53662-0.81689
				c-0.03857-0.01855-0.07666-0.0376-0.11426-0.05762c-0.37402-0.1958-0.74902-0.37354-1.12305-0.55127
				c-0.42383-0.20264-0.81982-0.38281-1.23438-0.5625c-0.74854-0.32666-1.43457-0.62549-2.08838-0.854
				c-0.0332-0.01172-0.06641-0.02393-0.09912-0.03613c-0.54199-0.20557-1.06494-0.39209-1.60645-0.5791
				c-0.5625-0.19336-1.13037-0.37061-1.69775-0.53027c-0.67188-0.20264-1.26855-0.36523-1.84717-0.51025
				c-0.52344-0.13037-1.03027-0.24268-1.5376-0.35547c-1.91992-0.4165-3.93066-0.71338-5.95508-0.87793
				c-0.03955-0.00293-0.0791-0.00684-0.11816-0.01123c-0.44238-0.04932-0.88428-0.06201-1.32617-0.07861
				c-0.04395-0.00146-0.0874-0.00391-0.13086-0.00684c-0.67773-0.04736-1.43066-0.07031-2.30127-0.07031
				c-13.12842,0-25.71729,5.57275-34.53857,15.28907c-0.87549,0.97998-1.59619,1.83594-2.24707,2.67041
				c-4.00146,5.12061-6.82568,10.84814-8.39795,17.02686c-0.38379,1.48145-0.7002,3.01465-0.94482,4.57324
				c-0.35156,2.3335-0.53174,4.72998-0.53174,7.10059c0,0.71143,0.01807,1.42334,0.05469,2.13477
				c0.02197,0.76465,0.07812,1.43164,0.13232,2.09961c0.00391,0.05127,0.00732,0.10352,0.00928,0.15527
				c0.00977,0.07129,0.02197,0.16748,0.02637,0.2168c0.05371,0.57031,0.125,1.12354,0.1958,1.67529
				c0.00928,0.05127,0.01709,0.10205,0.02441,0.15332c1.11182,8.08789,4.36035,15.78125,9.39404,22.24805
				c1.55322,1.98633,3.31152,3.88037,5.22021,5.62305C127.97938,135.04993,128.65808,135.63879,129.42761,136.27063z
				 M112.34949,108.755c-0.00098,0.00146-0.00146,0.00293-0.00244,0.00439
				C112.34803,108.75793,112.34852,108.75647,112.34949,108.755z M112.73035,107.31995
				c-0.03857,0.49561-0.16553,0.98633-0.37891,1.43018C112.56971,108.29651,112.69617,107.80969,112.73035,107.31995z
				 M112.35047,105.3595l0.00049,0.00049L112.35047,105.3595z M112.48719,104.70764c0,0.00293,0,0.00586,0,0.00879
				C112.48719,104.7135,112.48719,104.71057,112.48719,104.70764z M112.48719,104.69836c0,0.00244,0,0.00439,0,0.00635
				C112.48719,104.70276,112.48719,104.70081,112.48719,104.69836z"/>
		</g>
		<g>
			<path fill="#F4A9AD" d="M108.76688,107.13642c1.23975,9.02002,4.85986,17.29993,10.19971,24.16003
				c-5.07959-6.44006-8.61963-14.14001-10-22.66003C108.887,108.13642,108.80692,107.63642,108.76688,107.13642z"/>
			<path fill="#33475B" d="M118.96912,135.29651c-1.18262,0-2.354-0.52197-3.14307-1.52295
				c-5.63037-7.13818-9.36768-15.60938-10.80811-24.49756c-0.08984-0.56396-0.18604-1.1709-0.23828-1.82031
				c-0.17285-2.1582,1.40283-4.06201,3.55518-4.2959c2.15869-0.23193,4.1001,1.2876,4.39502,3.43213
				c1.11133,8.0874,4.35986,15.78076,9.39355,22.24756c1.35352,1.73926,1.04541,4.24609-0.68945,5.60547
				C120.70203,135.01868,119.83241,135.29651,118.96912,135.29651z"/>
		</g>
		<g>
			<path fill="#F4A9AD" d="M160.84695,150.77643c-0.1001,0.02002-0.2002,0.02002-0.30029,0.02002
				c-0.51953,0.0199-1.01953,0.0199-1.51953,0.0199C159.64676,150.81635,160.24686,150.79645,160.84695,150.77643z"/>
			<path fill="#33475B" d="M159.02722,154.81653c-2.20898,0-4-1.79102-4-4s1.79102-4,4-4c0.57422,0,1.13037-0.01904,1.68652-0.0376
				c2.06055-0.08252,3.86719,1.46875,4.10693,3.53711c0.23926,2.06836-1.14746,3.97461-3.18896,4.38281
				c-0.43018,0.08594-0.79395,0.09619-1.00684,0.09766C160.07996,154.81555,159.55359,154.81653,159.02722,154.81653z"/>
		</g>
		<path fill="#33475B" d="M159.02722,154.80823c-2.20898,0-4-1.79102-4-4s1.79102-4,4-4
			c25.72656,0,46.65674-20.93018,46.65674-46.65674c0-2.20898,1.79102-4,4-4s4,1.79102,4,4
			C213.68396,130.28918,189.16492,154.80823,159.02722,154.80823z"/>
		<g>
			<path fill="#E8CBC0" d="M148.46658,173.3764v41.83997c-11.55957,0-20.91991-9.35999-20.91991-20.91992
				C127.54667,182.75641,136.90701,173.3764,148.46658,173.3764z"/>
			<path fill="#33475B" d="M148.46667,219.21643c-13.74072,0-24.91991-11.1792-24.91991-24.91992
				s11.17918-24.91992,24.91991-24.91992c2.20898,0,4,1.79102,4,4v41.83984
				C152.46667,217.42542,150.67566,219.21643,148.46667,219.21643z M144.46667,177.85413
				c-7.40576,1.80176-12.91992,8.49023-12.91992,16.44238s5.51416,14.64062,12.91992,16.44238V177.85413z"/>
		</g>
		<g>
			<path fill="#F4A9AD" d="M185.54718,57.03644c5.48959,3.93564,12.13466,6.93686,19.13554,8.74918
				c5.2132,1.34955,10.62369,2.03984,15.90129,1.96582"/>
			<path fill="#33475B" d="M219.80212,71.75696c-5.31934,0-10.73828-0.70508-16.12207-2.09863
				c-7.5708-1.96045-14.64697-5.20068-20.46338-9.3711c-1.79541-1.2876-2.20752-3.78613-0.92041-5.58154
				c1.2876-1.7959,3.78711-2.20752,5.58154-0.92041c5.02393,3.60205,11.18164,6.4126,17.80713,8.12842
				c4.97607,1.2876,9.96875,1.90674,14.84326,1.83838c0.01855-0.00049,0.0376-0.00049,0.05664-0.00049
				c2.18311,0,3.96826,1.7544,3.99854,3.94434c0.03076,2.2085-1.73486,4.02441-3.94385,4.05518
				C220.36121,71.755,220.08142,71.75696,219.80212,71.75696z"/>
		</g>
		<path fill="#FFFFFF" d="M126.61317,104.15149c-2.20898,0-4-1.79102-4-4c0-20.07861,16.33544-36.41407,36.41405-36.41407
			c2.20898,0,4,1.79102,4,4s-1.79102,4-4,4c-15.66748,0-28.41406,12.74658-28.41406,28.41406
			C130.61316,102.36047,128.82214,104.15149,126.61317,104.15149z"/>
		<path fill="#FFFFFF" d="M306.45593,268.71301c-2.20898,0-4-1.79102-4-4c0-21.33252,17.35547-38.68799,38.68848-38.68799
			c2.20898,0,4,1.79102,4,4s-1.79102,4-4,4c-16.92188,0-30.68848,13.7666-30.68848,30.68799
			C310.45593,266.922,308.66492,268.71301,306.45593,268.71301z"/>
		<g>
			<path fill="#F4A9AD" d="M114.82316,269.51294c-2.20809-9.88235,0.03922-19.72183,5.40982-27.41975"/>
			<path fill="#FFFFFF" d="M114.81922,273.51379c-1.83203,0-3.48389-1.2666-3.8999-3.12891
				c-2.35889-10.55762-0.16016-21.70361,6.0332-30.58008c1.26367-1.81152,3.75781-2.25635,5.56885-0.9917
				c1.81201,1.26367,2.25586,3.75732,0.9917,5.56885c-4.91309,7.04199-6.65723,15.88379-4.78613,24.25879
				c0.48145,2.15625-0.87549,4.29395-3.03174,4.77539C115.40174,273.48254,115.10828,273.51379,114.81922,273.51379z"/>
		</g>
	</g>
	<path fill="#33475B" d="M180.54675,181.01672c-0.93262,0-1.86865-0.32373-2.62646-0.98438
		c-1.66553-1.45166-1.83887-3.97852-0.3877-5.64355c8.50244-9.75537,22.34229-13.21533,34.43896-8.61182
		c2.06494,0.78564,3.10156,3.09619,2.31592,5.16064c-0.78613,2.06445-3.09619,3.10205-5.16064,2.31592
		c-8.98145-3.41748-19.25391-0.84863-25.56299,6.39111C182.77283,180.55237,181.66248,181.01672,180.54675,181.01672z"/>
	<path fill="#33475B" d="M299.01062,181.01672c-1.11621,0-2.22656-0.46436-3.01758-1.37207
		c-6.30957-7.23877-16.58105-9.80713-25.5625-6.39111c-2.06934,0.78564-4.37598-0.25146-5.16113-2.31543
		c-0.78613-2.06494,0.25098-4.37549,2.31543-5.16113c12.09961-4.60352,25.93848-1.14258,34.43945,8.61182
		c1.45117,1.66504,1.27832,4.19189-0.3877,5.64355C300.87878,180.6925,299.94226,181.01672,299.01062,181.01672z"/>
	<path fill="#33475B" d="M239.79285,259.07922c-7.36035,0-14.65332-1.90039-21.09033-5.49609
		c-1.92871-1.07715-2.61865-3.51416-1.5415-5.44287c1.07764-1.92871,3.51514-2.61768,5.44287-1.5415
		c5.24707,2.93115,11.19141,4.48047,17.18896,4.48047c6.08105,0,12.0166-1.54443,17.16504-4.4668
		c1.91992-1.08984,4.36328-0.4165,5.45312,1.50391c1.09082,1.92139,0.41699,4.36279-1.50391,5.45312
		C254.55652,257.17395,247.25574,259.07922,239.79285,259.07922z"/>
</g>
</svg>
