<?xml version="1.0" encoding="utf-8"?>
<!-- Generator: Adobe Illustrator 22.1.0, SVG Export Plug-In . SVG Version: 6.00 Build 0)  -->
<svg version="1.1" id="Layer_1" xmlns="http://www.w3.org/2000/svg" xmlns:xlink="http://www.w3.org/1999/xlink" x="0px" y="0px"
	 viewBox="0 0 478.90662 478.90662" enable-background="new 0 0 478.90662 478.90662" xml:space="preserve">
<g id="Idle_7_">
	<g>
		<defs>
			<circle id="SVGID_1_" cx="239.45331" cy="239.45331" r="239.45331"/>
		</defs>
		<clipPath id="SVGID_2_">
			<use xlink:href="#SVGID_1_"  overflow="visible"/>
		</clipPath>
		<g clip-path="url(#SVGID_2_)">
			<g>
				<path fill="#B4BBE8" d="M224.11864,278.11996h30.66936c69.35373,0,125.57602,56.22232,125.57602,125.57605v96.23694H98.5426
					v-96.23694C98.5426,334.34229,154.76491,278.11996,224.11864,278.11996z"/>
				<path fill="#33475B" d="M380.36414,503.93274H98.54237c-2.20898,0-4-1.79102-4-4v-96.23633
					c0-71.44824,58.12743-129.57617,129.57617-129.57617h30.66943c71.44823,0,129.57616,58.12793,129.57616,129.57617v96.23633
					C384.36414,502.14172,382.57312,503.93274,380.36414,503.93274z M102.54237,495.93274h273.82178v-92.23633
					c0-67.03711-54.53906-121.57617-121.57617-121.57617h-30.66943c-67.03711,0-121.57616,54.53906-121.57616,121.57617V495.93274z"
					/>
			</g>
			<g>
				<g>
					<g>
						<line fill="none" x1="169.10745" y1="499.93295" x2="169.10745" y2="433.0675"/>
						<path fill="#33475B" d="M169.1073,503.93274c-2.20898,0-4-1.79102-4-4V433.0675c0-2.20898,1.79102-4,4-4s4,1.79102,4,4
							v66.86523C173.1073,502.14172,171.31628,503.93274,169.1073,503.93274z"/>
					</g>
				</g>
				<g>
					<g>
						<line fill="none" x1="309.79916" y1="499.93295" x2="309.79916" y2="433.0675"/>
						<path fill="#33475B" d="M309.79871,503.93274c-2.20898,0-4-1.79102-4-4V433.0675c0-2.20898,1.79102-4,4-4s4,1.79102,4,4
							v66.86523C313.79871,502.14172,312.00769,503.93274,309.79871,503.93274z"/>
					</g>
				</g>
			</g>
		</g>
	</g>
</g>
<g id="Avatar_7">
	<g>
		<g>
			<path fill="#F0DCD5" d="M239.32741,295.87921h-0.00018c-50.42941,0-91.31053-40.88113-91.31053-91.31055v-46.45103
				c0-50.42942,40.88112-91.31054,91.31053-91.31054h0.00018c50.42943,0,91.31053,40.88112,91.31053,91.31054v46.45103
				C330.63794,254.99808,289.75684,295.87921,239.32741,295.87921z"/>
			<path fill="#33475B" d="M239.32751,299.87903c-52.55469,0-95.31104-42.75586-95.31104-95.31055V158.1178
				c0-52.5542,42.75635-95.31055,95.31055-95.31055c52.55469,0,95.31055,42.75635,95.31055,95.31055v46.45068
				C334.63757,257.12317,291.88171,299.87903,239.32751,299.87903z M239.32751,70.80725
				c-48.14355,0-87.31104,39.16748-87.31104,87.31055v46.45068c0,48.14307,39.16748,87.31055,87.31055,87.31055h0.00049
				c48.14307,0,87.31006-39.16748,87.31006-87.31055V158.1178C326.63757,109.97473,287.47058,70.80725,239.32751,70.80725z"/>
		</g>
		<g>
			<path fill="#F0DCD5" d="M232.98532,181.34314l-7.20993,23.57567c-1.44063,4.71066,2.08295,9.47292,7.00897,9.47292h9.91917"/>
			<path fill="#33475B" d="M242.70398,218.39172h-9.91943c-3.62939,0-6.94873-1.67334-9.10742-4.59033
				c-2.15869-2.91797-2.78809-6.58154-1.72705-10.05225l7.20996-23.57568c0.646-2.11279,2.8833-3.29932,4.99512-2.65527
				c2.1123,0.646,3.30127,2.88232,2.65527,4.99512l-7.20996,23.5752c-0.31201,1.02002-0.12695,2.09668,0.50732,2.9541
				c0.63477,0.85742,1.61035,1.34912,2.67676,1.34912h9.91943c2.20898,0,4,1.79102,4,4S244.91296,218.39172,242.70398,218.39172z"/>
		</g>
		<g>
			<path fill="#F5C26B" d="M330.62726,197.86743l-0.21265,0.08008l-8.37524,22.52478
				c-6.43921,17.31775-27.26819,24.20642-42.76306,14.14294c-4.67871-3.0387-10.13794-4.65588-15.7168-4.65588h-24.23216h-0.23279
				h-24.23218c-5.57886,0-11.03809,1.61719-15.7168,4.65588c-15.49487,10.06348-36.32385,3.1748-42.76306-14.14294
				l-8.37524-22.52478c-2.09998,8.83997-3.21997,18.07996-3.21997,27.57996c0,57.33997,40.58008,105.26001,94.56006,116.66003
				c53.99998-11.40002,94.52-59.32007,94.52-116.66003C333.86737,216.00745,332.74725,206.74744,330.62726,197.86743z"/>
			<path fill="#33475B" d="M239.34753,346.18762c-0.27686,0-0.5542-0.02832-0.82666-0.08594
				c-27.2334-5.75195-52.01758-20.83789-69.78711-42.47852c-18.02148-21.94727-27.94629-49.68262-27.94629-78.0957
				c0-9.61816,1.11963-19.2085,3.32812-28.50439c0.40723-1.71436,1.8877-2.95996,3.64648-3.06836
				c1.7666-0.10547,3.38086,0.94775,3.99414,2.59863l8.37549,22.5249c2.64355,7.10986,8.29053,12.5542,15.49268,14.93604
				c7.20215,2.38232,14.98096,1.37793,21.34229-2.75342c5.33984-3.46826,11.52832-5.30127,17.89551-5.30127h48.69727
				c6.36719,0,12.55566,1.83301,17.89551,5.30127c6.36328,4.13232,14.14258,5.13623,21.34375,2.75293
				c7.20117-2.38184,12.84766-7.82568,15.49121-14.93555l8.37598-22.5249c0.40234-1.08301,1.25391-1.93945,2.33496-2.34766
				l0.21191-0.08008c1.07617-0.40674,2.27344-0.33057,3.28809,0.20801c1.01562,0.53809,1.75,1.4873,2.0166,2.60498
				c2.22266,9.30957,3.34961,18.92822,3.34961,28.58887c0,28.41895-9.91504,56.15332-27.91699,78.09473
				c-17.75879,21.64258-42.53906,36.72852-69.77637,42.47949C239.90125,346.1593,239.62439,346.18762,239.34753,346.18762z
				 M149.43689,213.26965c-0.43213,4.06396-0.64941,8.1582-0.64941,12.25781c0,26.56689,9.2793,52.49902,26.12891,73.01855
				c16.44092,20.02344,39.29395,34.04492,64.43115,39.5498c25.13965-5.50391,47.98828-19.52539,64.41699-39.54785
				c16.83301-20.51465,26.10254-46.44727,26.10254-73.02051c0-4.2666-0.23438-8.52295-0.70117-12.74414l-3.37793,9.08301
				c-3.49414,9.39844-10.95801,16.59424-20.47754,19.74316c-9.52051,3.14795-19.80371,1.82275-28.21289-3.63965
				c-4.04004-2.62354-8.7207-4.01025-13.53809-4.01025h-48.69727c-4.81689,0-9.49854,1.38672-13.53809,4.01025
				c-8.40967,5.46143-18.69336,6.78809-28.21191,3.63965c-9.52002-3.14844-16.98438-10.34473-20.47852-19.74316L149.43689,213.26965
				z"/>
		</g>
		<path fill="#DBAE60" d="M174.77039,278.27551c-1.65625,0-3.20508-1.03613-3.77881-2.68945
			c-2.50146-7.2041-4.18164-14.75293-4.99414-22.43555c-0.23193-2.19727,1.36035-4.1665,3.55713-4.39893
			c2.20068-0.23438,4.1665,1.36035,4.39893,3.55713c0.74805,7.07617,2.29443,14.02539,4.5957,20.6543
			c0.72461,2.08691-0.37988,4.36621-2.4668,5.08984C175.64783,278.20422,175.20544,278.27551,174.77039,278.27551z"/>
		<path fill="#DBAE60" d="M193.27332,309.76965c-1.09619,0-2.1875-0.44727-2.97754-1.32715
			c-5.05713-5.63184-9.45654-11.90723-13.07666-18.65234c-1.04492-1.94629-0.31348-4.37109,1.63281-5.41602
			c1.94531-1.0459,4.37109-0.31445,5.41602,1.63281c3.31836,6.18359,7.34912,11.93359,11.97998,17.08984
			c1.47607,1.64355,1.34033,4.17285-0.30371,5.64941C195.18054,309.43176,194.22498,309.76965,193.27332,309.76965z"/>
		<path fill="#DBAE60" d="M300.81628,291.75598c-0.50391,0-1.01465-0.0957-1.50977-0.29688
			c-2.04492-0.83496-3.02734-3.16895-2.19336-5.21484c4.4541-10.92188,6.71289-22.55957,6.71289-34.59229c0-2.20898,1.79102-4,4-4
			s4,1.79102,4,4c0,13.07275-2.45801,25.72803-7.30469,37.61377C303.88855,290.81653,302.39343,291.75598,300.81628,291.75598z"/>
		<path fill="#DBAE60" d="M201.78503,294.81262c-1.47559,0-2.89502-0.82031-3.59131-2.2334
			c-3.62207-7.35254-6.34082-15.28906-8.08105-23.58887c-0.45312-2.16211,0.93213-4.28223,3.09424-4.73535
			c2.16553-0.4502,4.28223,0.93262,4.73584,3.09473c1.60254,7.64355,4.10156,14.94238,7.42773,21.69434
			c0.97607,1.98145,0.16113,4.37988-1.8208,5.35547C202.98132,294.67981,202.37878,294.81262,201.78503,294.81262z"/>
		<path fill="#DBAE60" d="M273.98914,312.20813c-0.56738,0-1.14355-0.12109-1.69141-0.37793
			c-2.00098-0.93555-2.86523-3.31641-1.92871-5.31738c2.26953-4.85449,4.08203-10.08984,5.38672-15.56152
			c0.51172-2.14746,2.66992-3.47461,4.81836-2.96289s3.47559,2.66992,2.96289,4.81836
			c-1.42969,5.99805-3.42188,11.75-5.92188,17.09473C276.9364,311.35461,275.49402,312.20813,273.98914,312.20813z"/>
		<path fill="#DBAE60" d="M281.8739,279.9718c-0.11328,0-0.22754-0.00488-0.34277-0.01465
			c-2.20117-0.18652-3.83398-2.12207-3.64746-4.32324c0.22363-2.64844,0.33789-5.3457,0.33789-8.01855c0-2.20898,1.79102-4,4-4
			s4,1.79102,4,4c0,2.89746-0.12305,5.82227-0.36719,8.69434C285.67761,278.39563,283.92957,279.9718,281.8739,279.9718z"/>
		<g>
			<g>
				<g>
					<path fill="#F7EEEA" d="M292.28323,197.99557h-18.30508c-7.7023,0-13.94623-6.24394-13.94623-13.94624V164.6907h46.19757
						v19.35863C306.22949,191.75163,299.98553,197.99557,292.28323,197.99557z"/>
					<path fill="#33475B" d="M292.28308,201.99573h-18.30469c-9.89551,0-17.94629-8.05078-17.94629-17.94629v-19.35889
						c0-2.20898,1.79102-4,4-4h46.19727c2.20898,0,4,1.79102,4,4v19.35889
						C310.22937,193.94495,302.17859,201.99573,292.28308,201.99573z M264.0321,168.69055v15.35889
						c0,5.48438,4.46191,9.94629,9.94629,9.94629h18.30469c5.48438,0,9.94629-4.46191,9.94629-9.94629v-15.35889H264.0321z"/>
				</g>
				<circle fill="#33475B" cx="283.13071" cy="181.34314" r="6.46375"/>
				<g>
					<line fill="none" x1="306.22949" y1="164.6907" x2="330.41467" y2="160.42334"/>
					<path fill="#33475B" d="M306.22449,168.69104c-1.9043,0-3.5918-1.36475-3.93457-3.30566
						c-0.38379-2.17529,1.06934-4.25,3.24414-4.63379l24.18555-4.26709c2.17969-0.3833,4.25,1.06836,4.63477,3.24414
						c0.38379,2.17529-1.06934,4.25-3.24414,4.63379l-24.18555,4.26709
						C306.68933,168.67102,306.45496,168.69104,306.22449,168.69104z"/>
				</g>
			</g>
			<g>
				<g>
					<path fill="#F7EEEA" d="M203.18021,197.99557h-18.30508c-7.7023,0-13.94626-6.24394-13.94626-13.94624V164.6907h46.19759
						v19.35863C217.12645,191.75163,210.88249,197.99557,203.18021,197.99557z"/>
					<path fill="#33475B" d="M203.18005,201.99573h-18.30518c-9.89551,0-17.9458-8.05078-17.9458-17.94629v-19.35889
						c0-2.20898,1.79102-4,4-4h46.19727c2.20898,0,4,1.79102,4,4v19.35889
						C221.12634,193.94495,213.07556,201.99573,203.18005,201.99573z M174.92908,168.69055v15.35889
						c0,5.48438,4.46143,9.94629,9.9458,9.94629h18.30518c5.48438,0,9.94629-4.46191,9.94629-9.94629v-15.35889H174.92908z"/>
				</g>
				<circle fill="#33475B" cx="194.02766" cy="181.34314" r="6.46375"/>
				<g>
					<line fill="none" x1="148.01669" y1="160.42334" x2="172.20186" y2="164.6907"/>
					<path fill="#33475B" d="M172.20691,168.69104c-0.23096,0-0.46484-0.02002-0.69971-0.06152l-24.18555-4.26709
						c-2.17578-0.38379-3.62842-2.4585-3.24414-4.63379c0.38379-2.17578,2.46289-3.62646,4.63379-3.24414l24.18555,4.26709
						c2.17578,0.38379,3.62842,2.4585,3.24414,4.63379C175.79871,167.32581,174.11121,168.69104,172.20691,168.69104z"/>
				</g>
			</g>
			<g>
				<line fill="none" x1="217.12645" y1="164.6907" x2="260.03192" y2="164.6907"/>
				<path fill="#33475B" d="M260.0321,168.69055h-42.90576c-2.20898,0-4-1.79102-4-4s1.79102-4,4-4h42.90576
					c2.20898,0,4,1.79102,4,4S262.24109,168.69055,260.0321,168.69055z"/>
			</g>
		</g>
		<g>
			<path fill="#F5C26B" d="M330.57831,193.70334v-35.57996c0-10.82007-1.88013-21.20007-5.34009-30.82006
				c-12.58008,1.42004-25.76001,2.18005-39.34009,2.18005c-48.19997,0-91.43996-9.48009-120.89992-24.46008
				c-10.73999,14.94006-17.04004,33.28003-17.04004,53.1001v15.41992c-17.04004-7.90002-28.85986-25.16003-28.85986-45.16003
				c0-8.75549,2.2592-16.98016,6.22897-24.12529c4.95802-8.92387,5.49869-19.69334,0.63555-28.66927
				c-3.42646-6.32423-5.31541-13.59592-5.16481-21.32543c0.40015-22.17993,18.08007-40.77991,40.20019-42.23999
				c0.54004-0.03992,1.08008-0.05994,1.6001-0.07996c12.19971-0.35999,23.27979,4.31995,31.31982,12.11999
				c13.02002,12.57996,30.97998,18.31995,48.82007,15.26001c6.61987-1.14001,13.50002-1.57996,20.52003-1.26001
				c46.67993,2.16003,84.95996,38.85999,89.5,84.93994c0.15991,1.46008,0.26001,2.94006,0.34009,4.42004
				C354.39813,152.78329,345.69818,176.06332,330.57831,193.70334z"/>
			<path fill="#33475B" d="M330.57703,197.70325c-0.46484,0-0.93359-0.08105-1.38672-0.24854
				c-1.57031-0.58057-2.6123-2.07764-2.6123-3.75146v-35.58008c0-9.07666-1.37695-17.97607-4.09668-26.49902
				c-11.96094,1.23438-24.25098,1.85938-36.58301,1.85938c-45.31836,0-88.62939-8.48096-119.57227-23.34277
				c-9.41064,14.21582-14.36768,30.73242-14.36768,47.98242v15.41992c0,1.36523-0.69629,2.63623-1.84717,3.37109
				c-1.1499,0.73438-2.59619,0.83252-3.83545,0.25781c-18.93945-8.78027-31.17724-27.93115-31.17724-48.78857
				c0-9.12744,2.32812-18.14209,6.73242-26.06836c4.4585-8.02393,4.68799-17.30322,0.61475-24.82129
				c-3.85303-7.11182-5.80566-15.17188-5.64648-23.3086c0.4375-24.28027,19.73632-44.55566,43.93554-46.15332
				c0.5376-0.03955,1.104-0.06201,1.65088-0.08301c12.96631-0.37842,25.12061,4.3208,34.31787,13.24316
				c12.26904,11.85498,28.80078,17.02979,45.35889,14.18896c6.96777-1.20068,14.1631-1.64258,21.37791-1.31348
				c48.43848,2.24121,88.54688,40.30664,93.29883,88.54346c0.14258,1.30225,0.25293,2.73242,0.35352,4.59619
				c1.30078,25.3828-7.03711,49.91846-23.47754,69.09911C332.83972,197.21057,331.72253,197.70325,330.57703,197.70325z
				 M325.24011,123.30334c1.66992,0,3.18652,1.04492,3.76172,2.64648c3.7002,10.28711,5.57617,21.11182,5.57617,32.17334v23.604
				c10.40723-15.91602,15.51758-34.74072,14.52539-54.09912c-0.0918-1.70166-0.19141-2.99805-0.32129-4.19141
				c-4.37012-44.35156-41.21484-79.31885-85.70801-81.37793c-6.6416-0.30225-13.25391,0.10303-19.65723,1.20654
				c-19.0957,3.27881-38.14941-2.67432-52.27783-16.32568c-7.63818-7.40967-17.73145-11.31055-28.42236-10.99805
				c-0.48047,0.01904-0.95312,0.03613-1.42627,0.0708c-20.1123,1.32812-36.12939,18.16064-36.49267,38.32324
				c-0.13232,6.76172,1.48682,13.4502,4.68212,19.34766c5.38232,9.93408,5.13721,22.09033-0.65576,32.51758
				c-3.7456,6.74072-5.72558,14.41162-5.72558,22.18262c0,15.57031,8.0122,30.02295,20.85986,38.38525v-8.64551
				c0-20.07422,6.15234-39.24316,17.79199-55.43506c1.15332-1.60156,3.30078-2.125,5.06104-1.23047
				c30.02832,15.26855,73.43359,24.02588,119.08691,24.02588c13.1377,0,26.22266-0.7251,38.8916-2.15479
				C324.94031,123.31165,325.09167,123.30334,325.24011,123.30334z"/>
		</g>
		<path fill="#FFFFFF" d="M137.58044,59.44055c-2.20898,0-4-1.79102-4-4c0-16.59814,13.50342-30.10205,30.10156-30.10205
			c2.20898,0,4,1.79102,4,4s-1.79102,4-4,4c-12.18701,0-22.10156,9.91504-22.10156,22.10205
			C141.58044,57.64953,139.78943,59.44055,137.58044,59.44055z"/>
		<g>
			<path fill="#E8CBC0" d="M148.01805,160.42331v41.83997c-11.56006,0-20.91992-9.35999-20.91992-20.91992
				C127.09813,169.78329,136.45799,160.42331,148.01805,160.42331z"/>
			<path fill="#33475B" d="M148.01794,206.26331c-13.74072,0-24.91991-11.1792-24.91991-24.91992
				s11.17918-24.91992,24.91991-24.91992c2.20898,0,4,1.79102,4,4v41.83984
				C152.01794,204.47229,150.22693,206.26331,148.01794,206.26331z M144.01794,164.901
				c-7.40576,1.80176-12.91992,8.49023-12.91992,16.44238s5.51416,14.64062,12.91992,16.44238V164.901z"/>
		</g>
		<g>
			<path fill="#E8CBC0" d="M330.63794,202.26328v-41.83997c11.56006,0,20.91992,9.35999,20.91992,20.91992
				C351.55786,192.90329,342.198,202.26328,330.63794,202.26328z"/>
			<path fill="#33475B" d="M330.63757,206.26331c-2.20898,0-4-1.79102-4-4v-41.83984c0-2.20898,1.79102-4,4-4
				c13.74121,0,24.91992,11.1792,24.91992,24.91992S344.37878,206.26331,330.63757,206.26331z M334.63757,164.901v32.88477
				c7.40527-1.80176,12.91992-8.49023,12.91992-16.44238S342.04285,166.70276,334.63757,164.901z"/>
		</g>
		<path fill="#DBAE60" d="M288.14734,113.34631c-12.74707,0-25.57324-0.80762-38.37793-2.42188
			c-2.19238-0.27637-3.74512-2.27734-3.46875-4.46924c0.27637-2.19141,2.27734-3.74756,4.46875-3.46826
			c22.51562,2.83936,45.10547,3.1167,67.13965,0.82812c2.20605-0.23193,4.16309,1.36816,4.3916,3.56543
			s-1.36816,4.16357-3.56543,4.3916C308.63269,112.82141,298.41589,113.34631,288.14734,113.34631z"/>
		<path fill="#DBAE60" d="M223.27576,106.32092c-0.28271,0-0.56982-0.03027-0.85693-0.09326
			c-27.18213-5.93457-43.6084-13.3623-44.29443-13.67529c-2.00879-0.91748-2.89307-3.28906-1.97656-5.29834
			c0.91602-2.00879,3.28809-2.89551,5.29834-1.97949c0.16064,0.07324,16.40625,7.40137,42.67871,13.1377
			c2.15869,0.47119,3.52637,2.60254,3.05469,4.76074C226.77136,105.04407,225.11511,106.32092,223.27576,106.32092z"/>
		<path fill="#DBAE60" d="M273.49207,94.28723c-34.51074,0-59.6626-9.52539-60.71631-9.93066
			c-2.06152-0.79346-3.08984-3.10791-2.29688-5.16992c0.79346-2.06152,3.10547-3.09033,5.16846-2.29736
			c0.30127,0.11523,24.9375,9.39795,57.84473,9.39795c2.20898,0,4,1.79102,4,4S275.70105,94.28723,273.49207,94.28723z"/>
		<path fill="#DBAE60" d="M312.59753,82.74475c-1.23047,0-2.44531-0.56641-3.22852-1.63574
			c-0.15527-0.20947-16.37207-21.66895-45.30176-21.66846c-2.20898,0-4-1.79102-4-4s1.79102-4,4-4
			c33.09082-0.00049,51.00684,23.92041,51.75293,24.93897c1.30664,1.78174,0.9209,4.28467-0.86035,5.59082
			C314.24695,82.4928,313.41882,82.74475,312.59753,82.74475z"/>
	</g>
	<path fill="#DBAE60" d="M179.78894,154.70618c-1.22168,0-2.42822-0.55811-3.21338-1.61426
		c-1.31787-1.77344-0.94873-4.27881,0.82422-5.59668c10.38525-7.71826,24.64453-8.14941,35.48291-1.07422
		c1.8501,1.20801,2.37061,3.68652,1.16309,5.53613s-3.68408,2.37109-5.53613,1.16309
		c-8.04639-5.25342-18.63135-4.93311-26.3374,0.7959C181.45496,154.44885,180.61853,154.70569,179.78894,154.70618z"/>
	<path fill="#DBAE60" d="M299.15222,154.70618c-0.83008,0-1.66602-0.25732-2.38281-0.79004
		c-7.70996-5.729-18.29492-6.04932-26.33789-0.7959c-1.84961,1.20752-4.32812,0.6875-5.53613-1.16309
		c-1.20703-1.84961-0.68652-4.32861,1.16309-5.53613c10.83691-7.07471,25.09766-6.646,35.48242,1.07422
		c1.77344,1.31787,2.14258,3.82373,0.82422,5.59668C301.58093,154.14807,300.3739,154.70569,299.15222,154.70618z"/>
	<path fill="#33475B" d="M239.32751,259.22375c-7.36035,0-14.65332-1.90039-21.09033-5.49609
		c-1.92871-1.07715-2.61865-3.51416-1.5415-5.44287c1.07764-1.92871,3.51416-2.61768,5.44287-1.5415
		c5.24707,2.93115,11.19141,4.48047,17.18896,4.48047c6.08057,0,12.01611-1.54443,17.16455-4.4668
		c1.9209-1.08984,4.36328-0.41699,5.45312,1.50391c1.09082,1.92139,0.41699,4.36279-1.50391,5.45312
		C254.0907,257.31848,246.78992,259.22375,239.32751,259.22375z"/>
</g>
</svg>
