<?xml version="1.0" encoding="utf-8"?>
<!-- Generator: Adobe Illustrator 22.1.0, SVG Export Plug-In . SVG Version: 6.00 Build 0)  -->
<svg version="1.1" id="Layer_1" xmlns="http://www.w3.org/2000/svg" xmlns:xlink="http://www.w3.org/1999/xlink" x="0px" y="0px"
	 viewBox="0 0 478.90662 555.44208" enable-background="new 0 0 478.90662 555.44208" xml:space="preserve">
<g id="Idle_4_">
	<g>
		<defs>
			<circle id="SVGID_1_" cx="239.45331" cy="315.98874" r="239.45329"/>
		</defs>
		<clipPath id="SVGID_2_">
			<use xlink:href="#SVGID_1_"  overflow="visible"/>
		</clipPath>
		<g clip-path="url(#SVGID_2_)">
			<g>
				<path fill="#FD7A59" d="M224.11864,354.6554h30.66936c69.35373,0,125.57602,56.22232,125.57602,125.57605v96.23694H98.5426
					v-96.23694C98.5426,410.87772,154.76491,354.6554,224.11864,354.6554z"/>
				<path fill="#33475B" d="M380.36414,580.46814H98.54237c-2.20898,0-4-1.79102-4-4v-96.2363
					c0-71.44824,58.12743-129.57617,129.57617-129.57617h30.66943c71.44823,0,129.57616,58.12793,129.57616,129.57617v96.2363
					C384.36414,578.67712,382.57312,580.46814,380.36414,580.46814z M102.54237,572.46814h273.82178v-92.2363
					c0-67.03711-54.53906-121.57617-121.57617-121.57617h-30.66943c-67.03711,0-121.57616,54.53906-121.57616,121.57617V572.46814z"
					/>
			</g>
			<g>
				<g>
					<g>
						<line fill="none" x1="169.10745" y1="576.46838" x2="169.10745" y2="509.60294"/>
						<path fill="#33475B" d="M169.1073,580.46814c-2.20898,0-4-1.79102-4-4v-66.8652c0-2.20898,1.79102-4,4-4s4,1.79102,4,4
							v66.8652C173.1073,578.67712,171.31628,580.46814,169.1073,580.46814z"/>
					</g>
				</g>
				<g>
					<g>
						<line fill="none" x1="309.79916" y1="576.46838" x2="309.79916" y2="509.60294"/>
						<path fill="#33475B" d="M309.79871,580.46814c-2.20898,0-4-1.79102-4-4v-66.8652c0-2.20898,1.79102-4,4-4s4,1.79102,4,4
							v66.8652C313.79871,578.67712,312.00769,580.46814,309.79871,580.46814z"/>
					</g>
				</g>
			</g>
		</g>
	</g>
</g>
<g id="Avatar_4">
	<g>
		<path fill="#8B6556" d="M266.13791,68.17697c-0.97302-8.47705-7.53598-14.93482-15.58359-16.16378
			c2.17157-3.44099,3.23643-7.61308,2.7363-11.97021c-1.16537-10.15257-10.34071-17.43795-20.4928-16.27263
			c-1.93456,0.22206-3.7626,0.73834-5.45024,1.49309c-0.00815-0.62325-0.04742-1.25228-0.12003-1.88484
			c-1.16537-10.15257-10.34024-17.43825-20.49281-16.27287c-5.05132,0.57982-9.39067,3.14438-12.33501,6.82397
			c-3.44539-6.58167-10.67044-10.71095-18.49261-9.81308s-13.92368,6.55686-15.78815,13.74803
			c-3.70148-2.91674-8.50861-4.43141-13.55991-3.85159c-10.15257,1.16537-17.43797,10.34046-16.2726,20.49303
			c0.0726,0.63256,0.17639,1.25418,0.30969,1.86307c-1.81476-0.35272-3.71224-0.44136-5.64632-0.21936
			c-10.15257,1.16537-17.438,10.34022-16.27263,20.49279c0.50014,4.35713,2.48216,8.17948,5.37694,11.03892
			c-7.55937,3.02043-12.48836,10.79731-11.51531,19.27436s7.53598,14.93482,15.58312,16.16384
			c-2.17152,3.44147-3.23595,7.61301-2.73581,11.97015c1.16537,10.15257,10.34022,17.438,20.49278,16.27263
			c1.93407-0.222,3.76215-0.73804,5.44975-1.49303c0.00818,0.62349,0.0479,1.25221,0.12054,1.88503
			c1.16534,10.15233,10.34021,17.438,20.49278,16.27263c5.05132-0.57982,9.3902-3.14432,12.33452-6.82391
			c3.44539,6.58168,10.67046,10.71095,18.49261,9.81308c7.82217-0.89787,13.92368-6.55685,15.78815-13.74803
			c3.70149,2.91675,8.50908,4.43135,13.56039,3.85153c10.15257-1.16537,17.43797-10.34045,16.27263-20.49278
			c-0.07265-0.63281-0.1769-1.25413-0.31021-1.86326c1.81479,0.35297,3.71225,0.44136,5.6468,0.2193
			c10.15208-1.16531,17.438-10.34022,16.27263-20.49279c-0.50012-4.35712-2.48257-8.17893-5.37741-11.03886
			C262.18198,84.43091,267.11096,76.65402,266.13791,68.17697z"/>
		<path fill="#33475B" d="M253.80869,91.38729c2.7226,3.02914,4.46921,6.96115,4.70599,11.34344
			c0.54639,10.21128-7.27127,18.91691-17.48401,19.48349c-1.92967,0.10407-3.82011-0.11014-5.6162-0.55884
			c0.10329,0.60741,0.16591,1.23218,0.18736,1.87453c0.56755,10.19273-7.2713,18.91714-17.46234,19.46474
			c-5.08627,0.2746-9.78716-1.51143-13.30499-4.64867c-2.28844,7.0553-8.71796,12.33774-16.59775,12.76463
			c-7.85982,0.42809-14.81911-4.11893-17.85696-10.89403c-3.15601,3.49666-7.642,5.791-12.72778,6.06538
			c-10.21153,0.5466-18.91667-7.27103-19.48349-17.48378c-0.02145-0.64259-0.02412-1.26375-0.00682-1.88371
			c-1.72284,0.65732-3.56944,1.04694-5.51912,1.15005c-9.71003,0.53671-18.04053-6.51701-19.33514-15.95206
			c3.51448-3.79546,8.63945-6.05129,14.20942-5.71561c1.59672,0.09623,3.10123,0.40727,4.55399,0.89545
			c-0.31015-1.50136-0.43683-3.05183-0.3418-4.6288c0.59438-9.86223,9.06114-17.36648,18.92313-16.77213
			c3.43372,0.20694,6.56917,1.37766,9.20166,3.23959c-0.01108-0.48152-0.02168-0.96301,0.00839-1.4621
			c0.59315-9.84225,9.08063-17.36531,18.92313-16.77213c4.53181,0.27312,8.5605,2.23901,11.54768,5.20411
			c1.98143-8.27592,9.65111-14.18509,18.43497-13.65571c6.26842,0.37778,11.56354,3.94277,14.46437,9.00657
			c3.04828-6.36819,9.71501-10.59491,17.20143-10.14373c7.46643,0.44998,13.59679,5.44793,15.8587,12.13616
			c2.20404-2.99294,5.32541-5.2492,8.91968-6.3751c0.71246,1.80614,1.15723,3.73629,1.25504,5.76587
			C266.93576,81.35853,261.53622,88.82751,253.80869,91.38729z"/>
		<path fill="#33475B" d="M190.70984,155.13417c-6.52295,0-12.76172-2.88574-17.01758-7.75439
			c-3.23389,2.5376-7.11279,4.14111-11.29346,4.62109c-11.3501,1.30371-21.72314-6.11572-24.40479-16.91748
			c-0.54883,0.10449-1.10205,0.18896-1.65869,0.25293c-12.32372,1.42041-23.50732-7.46288-24.92333-19.79052
			c-0.38184-3.33008-0.00293-6.70459,1.07617-9.854c-7.50195-3.03857-12.97168-9.9917-13.92334-18.27979
			c-0.95117-8.28809,2.80078-16.29932,9.41895-20.95898c-1.76465-2.82275-2.89844-6.02441-3.28076-9.35449
			c-0.68555-5.97168,0.99561-11.85254,4.73389-16.56006c3.73779-4.70703,9.08496-7.67725,15.05713-8.36279
			c0.55664-0.06396,1.11475-0.10693,1.67285-0.12939c0.16553-11.12842,8.58936-20.70459,19.93604-22.00732
			c4.17285-0.47852,8.30713,0.2002,12.02637,1.93262c3.4043-6.49512,9.78174-10.96338,17.32178-11.8291
			c7.40967-0.84521,14.73242,2.11816,19.5332,7.61084c3.23389-2.53809,7.11279-4.1416,11.29443-4.62158
			c5.97266-0.68311,11.85303,0.99561,16.56006,4.73389c3.93799,3.12695,6.66016,7.38086,7.84619,12.18359
			c0.54785-0.10449,1.1001-0.18896,1.65625-0.25293c12.33057-1.4043,23.50732,7.4624,24.92332,19.79004
			c0.38281,3.33057,0.00293,6.70508-1.07617,9.85449c7.50293,3.03906,12.97168,9.9917,13.92285,18.28027
			c0.95215,8.2876-2.7998,16.29932-9.41895,20.95947c1.76562,2.82275,2.89941,6.02393,3.28125,9.35352
			c1.41504,12.32764-7.46387,23.50781-19.79102,24.92285c-0.55664,0.06396-1.11426,0.10693-1.67285,0.12939
			c-0.16406,11.12939-8.58887,20.70506-19.93604,22.0078c-4.17969,0.47852-8.32275-0.20361-12.04785-1.94238
			c-3.43115,6.4375-9.89258,10.98828-17.30078,11.83887C192.38464,155.08681,191.54431,155.13417,190.70984,155.13417z
			 M174.27625,137.20302c0.12793,0,0.25635,0.00586,0.38525,0.01855c1.34424,0.12988,2.53271,0.92969,3.15918,2.12646
			c2.80664,5.3623,8.49854,8.3833,14.49219,7.69434c5.99658-0.68799,10.85352-4.91895,12.37256-10.77783
			c0.33936-1.30762,1.31543-2.35596,2.59521-2.78711c1.28076-0.42969,2.69141-0.18701,3.75244,0.64941
			c3.02832,2.38574,6.80469,3.46094,10.62842,3.01904c7.94482-0.91162,13.66699-8.11768,12.75488-16.06298
			c-0.05566-0.48633-0.13818-0.97949-0.24414-1.46436c-0.2876-1.31543,0.10547-2.6875,1.04639-3.65039
			c0.94141-0.96289,2.30322-1.38867,3.625-1.13086c1.45898,0.2832,2.94727,0.3418,4.42676,0.17139
			c7.94531-0.91162,13.66699-8.11719,12.75586-16.0625c-0.37988-3.30908-1.83789-6.2998-4.21582-8.64941
			c-0.95996-0.94824-1.37695-2.31592-1.10938-3.63818c0.26758-1.32275,1.18359-2.4209,2.43652-2.92139
			c6.05762-2.42041,9.76953-8.63135,9.02637-15.10352c0-0.00049,0-0.00049,0-0.00049
			c-0.74316-6.47266-5.76465-11.68115-12.21289-12.66602c-1.33398-0.20361-2.47559-1.06592-3.03516-2.29297
			c-0.56055-1.22754-0.46387-2.6543,0.25586-3.79541c1.7832-2.82666,2.52539-6.07031,2.14551-9.37988
			c-0.91309-7.94531-8.11914-13.66943-16.06348-12.75439c-1.47852,0.16943-2.91602,0.56348-4.27295,1.17041
			c-1.229,0.5498-2.65234,0.44385-3.78662-0.28027c-1.13428-0.72461-1.82861-1.97168-1.84619-3.31787
			c-0.00684-0.49658-0.03857-0.99463-0.09424-1.48096c-0.44189-3.84961-2.35596-7.29639-5.39014-9.70557
			c-3.0332-2.40869-6.82227-3.49268-10.67285-3.05029c-3.82568,0.43896-7.25928,2.33838-9.66797,5.34863
			c-0.84424,1.05469-2.16211,1.61523-3.50781,1.48242c-1.34424-0.12988-2.53271-0.92969-3.15918-2.12647
			c-2.80713-5.3623-8.49561-8.38574-14.49268-7.69385c-5.99707,0.68799-10.85352,4.91895-12.37207,10.77783
			c-0.33887,1.30762-1.31494,2.35547-2.59521,2.78662c-1.28076,0.43115-2.69092,0.1875-3.75244-0.64844
			c-3.02979-2.38721-6.80664-3.45801-10.62793-3.01953c-7.94531,0.91211-13.66699,8.11768-12.75488,16.06299
			c0.05664,0.49316,0.13818,0.98584,0.24268,1.46338c0.28809,1.31543-0.10498,2.68701-1.04541,3.65039
			c-0.94141,0.96289-2.30322,1.3877-3.62451,1.13184c-1.45996-0.2832-2.95068-0.34229-4.42675-0.17188
			c-3.84912,0.44141-7.2959,2.35596-9.70508,5.38965c-2.40869,3.03369-3.49219,6.82422-3.05029,10.67285
			c0.37988,3.31055,1.83691,6.30127,4.21387,8.64941c0.95996,0.94824,1.37695,2.31641,1.10938,3.63867
			c-0.26709,1.32227-1.18311,2.4209-2.43604,2.92139c-6.05713,2.42041-9.76855,8.63135-9.02539,15.104
			c0.74268,6.47266,5.76514,11.68066,12.21289,12.66553c1.3335,0.20361,2.47461,1.06592,3.03467,2.29297
			c0.56055,1.22754,0.46436,2.6543-0.25586,3.79541c-1.78271,2.82617-2.52441,6.06982-2.14453,9.37988
			c0.91211,7.94482,8.1167,13.66991,16.06249,12.75488c1.47803-0.16943,2.91553-0.56348,4.27246-1.17041
			c1.229-0.54932,2.65234-0.44385,3.78662,0.28027c1.13428,0.72461,1.82861,1.97166,1.84619,3.31786
			c0.00684,0.48926,0.03857,0.98828,0.09521,1.48438c0.91211,7.94189,8.1167,13.66699,16.06299,12.75244
			c3.8252-0.43896,7.25879-2.33887,9.66748-5.34912C171.91687,137.75038,173.06873,137.20302,174.27625,137.20302z"/>
		<g>
			<path fill="#8B6556" d="M385.88208,207.63339c0-7.80754-5.01187-14.42867-11.9874-16.86781
				c3.9585-3.28036,6.48096-8.23276,6.48096-13.77528c0-9.26721-7.04916-16.88693-16.07758-17.79256
				c1.91367-2.84714,3.03165-6.27356,3.03165-9.9619c0-9.87694-8.00668-17.88364-17.88364-17.88364
				c-1.59134,0-3.12604,0.22794-4.59467,0.61775c0.3898-1.4677,0.61774-3.00145,0.61774-4.59184
				c0-9.87694-8.00717-17.88364-17.88409-17.88364c-3.44318,0-6.64755,0.9901-9.37625,2.67606
				c0.03824-0.47665,0.07315-0.95447,0.07315-1.44102c0-9.87671-8.00717-17.88364-17.88364-17.88364
				c-4.53946,0-8.67068,1.70507-11.82458,4.49156c-1.49081-8.3708-8.78961-14.73165-17.58914-14.73165
				c-6.26907,0-11.77597,3.23199-14.96902,8.11454c-2.66025-6.53807-9.06854-11.15209-16.56226-11.15209
				s-13.90199,4.61402-16.56224,11.15209c-3.19305-4.88255-8.69949-8.11454-14.96902-8.11454
				c-8.79953,0-16.09787,6.36086-17.58916,14.73165c-3.15341-2.78649-7.28513-4.49156-11.82411-4.49156
				c-9.87694,0-17.88364,8.00694-17.88364,17.88364c0,0.48656,0.03445,0.96438,0.07268,1.44102
				c-2.72868-1.68596-5.93306-2.67606-9.37624-2.67606c-9.87694,0-17.88364,8.0067-17.88364,17.88364
				c0,1.59039,0.22794,3.12415,0.61728,4.59184c-1.46863-0.38982-3.00334-0.61775-4.59467-0.61775
				c-9.87695,0-17.88364,8.0067-17.88364,17.88364c0,3.68834,1.11846,7.11476,3.03165,9.9619
				c-9.02842,0.90562-16.07758,8.52534-16.07758,17.79256c0,5.54253,2.52292,10.49469,6.48096,13.77504
				c-6.97554,2.43916-11.9874,9.06052-11.9874,16.86806c0,7.80803,5.01186,14.42914,11.9874,16.86806
				c-3.95805,3.28036-6.48096,8.23276-6.48096,13.77553c0,9.26674,7.04916,16.88669,16.07758,17.79233
				c-1.91319,2.84711-3.03165,6.27353-3.03165,9.96188c0,9.87692,8.0067,17.88388,17.88364,17.88388
				c1.59132,0,3.12604-0.22794,4.59467-0.61823c-0.38934,1.46793-0.61728,3.00143-0.61728,4.59183
				c0,9.87695,8.0067,17.88388,17.88364,17.88388c3.44318,0,6.64755-0.98987,9.37624-2.67606
				c-0.03822,0.47665-0.07268,0.95447-0.07268,1.4408c0,9.87692,8.0067,17.88364,17.88364,17.88364
				c4.53899,0,8.6707-1.70459,11.82411-4.49133c1.49129,8.37103,8.7901,14.73166,17.58916,14.73166
				c6.26953,0,11.77597-3.23224,14.96902-8.11453c2.66025,6.5383,9.06853,11.15186,16.56224,11.15186
				s13.90201-4.61356,16.56226-11.15186c3.19305,4.88229,8.69995,8.11453,14.96902,8.11453
				c8.79953,0,16.09833-6.36063,17.58914-14.73166c3.1539,2.78674,7.28513,4.49133,11.82458,4.49133
				c9.87646,0,17.88364-8.00671,17.88364-17.88364c0-0.48633-0.03491-0.96414-0.07315-1.4408
				c2.7287,1.68619,5.93307,2.67606,9.37625,2.67606c9.87692,0,17.88409-8.00693,17.88409-17.88388
				c0-1.59039-0.22794-3.1239-0.61774-4.59183c1.46863,0.39029,3.00333,0.61823,4.59467,0.61823
				c9.87695,0,17.88364-8.00696,17.88364-17.88388c0-3.68835-1.11798-7.11478-3.03165-9.96188
				c9.02841-0.90564,16.07758-8.52559,16.07758-17.79233c0-5.54277-2.52246-10.49516-6.48096-13.77553
				C380.87021,222.06253,385.88208,215.44142,385.88208,207.63339z"/>
			<path fill="#33475B" d="M239.45349,339.69864c-6.8623,0-13.14453-3.15625-17.21875-8.37109
				c-3.92529,3.40527-8.97412,5.33398-14.3125,5.33398c-8.62598,0-16.22217-5.00977-19.76318-12.49512
				c-2.98291,1.47266-6.27979,2.25488-9.65039,2.25488c-10.53955,0-19.36328-7.49023-21.42725-17.42676
				c-1.87012,0.51367-3.80615,0.77832-5.75977,0.77832c-12.05811,0-21.86963-9.80273-21.88379-21.85791
				c-12.05614-0.01221-21.86083-9.82422-21.86083-21.88379c0-2.4834,0.41553-4.91895,1.22168-7.22266
				c-8.41943-3.09523-14.26758-11.14748-14.26758-20.53175c0-4.57812,1.41748-8.96289,3.99854-12.61475
				c-5.84473-4.01367-9.50488-10.71582-9.50488-18.02881s3.66016-14.01465,9.50488-18.02832
				c-2.58057-3.65186-3.99854-8.03711-3.99854-12.61475c0-9.38428,5.84814-17.43652,14.26758-20.53174
				c-0.80615-2.30371-1.22168-4.73926-1.22168-7.22266c0-12.05908,9.80469-21.87109,21.86083-21.88329
				c0.01416-12.05469,9.82568-21.85791,21.88379-21.85791c1.95312,0,3.88965,0.26416,5.75977,0.77881
				c2.06396-9.93701,10.8877-17.42725,21.42725-17.42725c3.37012,0,6.66748,0.78223,9.65039,2.25488
				c3.54102-7.48535,11.13721-12.49512,19.76318-12.49512c5.33838,0,10.38721,1.92871,14.3125,5.3335
				c4.07422-5.21533,10.35693-8.37109,17.21875-8.37109s13.14404,3.15527,17.21826,8.37158
				c3.92578-3.40527,8.97461-5.33398,14.3125-5.33398c8.62598,0,16.22266,5.00977,19.76367,12.49561
				c2.98242-1.47314,6.28027-2.25537,9.65039-2.25537c10.54004,0,19.36328,7.49023,21.42773,17.42676
				c1.87012-0.51416,3.80566-0.77832,5.75879-0.77832c12.05859,0,21.87012,9.80322,21.88477,21.85791
				c12.05566,0.01318,21.86035,9.82471,21.86035,21.88329c0,2.48389-0.41602,4.91895-1.22168,7.22314
				c8.41992,3.09473,14.26758,11.14697,14.26758,20.53125c0,4.57812-1.41797,8.96338-3.99902,12.61475
				c5.84473,4.01367,9.50488,10.71533,9.50488,18.02832s-3.66016,14.01514-9.50488,18.02881
				c2.58105,3.65137,3.99902,8.03662,3.99902,12.61475c0,9.38428-5.84766,17.43652-14.26758,20.53128
				c0.80566,2.30371,1.22168,4.73975,1.22168,7.22314c0,12.05859-9.80469,21.87061-21.86035,21.88379
				c-0.01465,12.05518-9.82617,21.85791-21.88477,21.85791c-1.95312,0-3.88867-0.26367-5.75879-0.77832
				c-2.06445,9.93652-10.8877,17.42676-21.42773,17.42676c-3.37109,0-6.66699-0.78223-9.65039-2.25488
				c-3.54102,7.48535-11.1377,12.49512-19.76367,12.49512c-5.33789,0-10.38672-1.92871-14.3125-5.33398
				C252.59753,336.54239,246.31531,339.69864,239.45349,339.69864z M222.89001,320.5463c0.12842,0,0.25684,0.00586,0.38574,0.01855
				c1.48096,0.14355,2.75977,1.0957,3.32031,2.47461c2.14014,5.25977,7.18701,8.65918,12.85742,8.65918
				s10.71729-3.39941,12.85693-8.65918c0.56055-1.37793,1.83984-2.33105,3.32031-2.47461
				c1.47559-0.14746,2.91797,0.54688,3.73242,1.79199c2.58203,3.94824,6.92578,6.30469,11.62109,6.30469
				c6.73047,0,12.47168-4.80859,13.65137-11.43262c0.25391-1.42383,1.25684-2.59961,2.62207-3.07617
				c1.36621-0.47461,2.88184-0.17773,3.96484,0.78027c2.5459,2.24902,5.80469,3.48828,9.17578,3.48828
				c7.65527,0,13.88379-6.22852,13.88379-13.88379c0-0.37891-0.03125-0.75098-0.06055-1.12305
				c-0.12012-1.50293,0.61523-2.94629,1.90234-3.73145c1.28516-0.78613,2.90527-0.7832,4.18848,0.01074
				c2.2002,1.36035,4.71484,2.0791,7.27246,2.0791c7.65625,0,13.88477-6.22852,13.88477-13.88428
				c0-1.15527-0.16309-2.35498-0.48438-3.56543c-0.36621-1.37793,0.0293-2.84668,1.03809-3.85498
				c1.00781-1.0083,2.47754-1.40479,3.85547-1.03711c1.20898,0.3208,2.40918,0.48389,3.56738,0.48389
				c7.65527,0,13.88379-6.22803,13.88379-13.88379c0-2.76855-0.81348-5.44141-2.35156-7.73047
				c-0.78516-1.16699-0.89941-2.66066-0.30078-3.93312c0.59863-1.27295,1.82129-2.13818,3.2207-2.27832
				c7.11328-0.71387,12.47754-6.65186,12.47754-13.8125c0-4.14648-1.83496-8.04492-5.0332-10.69531
				c-1.11133-0.92041-1.64062-2.36768-1.38477-3.7876c0.25488-1.41992,1.25488-2.59229,2.61621-3.06836
				c5.56738-1.94629,9.30762-7.20801,9.30762-13.09229s-3.74023-11.14551-9.30762-13.0918
				c-1.36133-0.47607-2.36133-1.64844-2.61621-3.06836c-0.25586-1.41992,0.27344-2.86719,1.38477-3.7876
				c3.19824-2.65039,5.0332-6.54883,5.0332-10.69531c0-7.16064-5.36426-13.09863-12.47754-13.8125
				c-1.39941-0.14014-2.62207-1.00537-3.2207-2.27832c-0.59863-1.27246-0.48438-2.76611,0.30078-3.93311
				c1.53809-2.28906,2.35156-4.96191,2.35156-7.73047c0-7.65527-6.22852-13.8833-13.88379-13.8833
				c-1.15918,0-2.35938,0.1626-3.56738,0.4834c-1.37793,0.36523-2.84766-0.02881-3.85547-1.03711
				c-1.00879-1.0083-1.4043-2.47656-1.03809-3.85498c0.32129-1.21045,0.48438-2.41016,0.48438-3.56542
				c0-7.65576-6.22852-13.88379-13.88477-13.88379c-2.55664,0-5.07227,0.71875-7.27344,2.07861
				c-1.2832,0.79199-2.90137,0.79736-4.18848,0.01025c-1.28613-0.78613-2.02148-2.229-1.90137-3.73193
				c0.0293-0.37109,0.06055-0.74268,0.06055-1.12207c0-7.65527-6.22852-13.8833-13.88379-13.8833
				c-3.37109,0-6.62988,1.23926-9.17578,3.48877c-1.08398,0.95801-2.60156,1.25537-3.96484,0.7793
				c-1.36621-0.47559-2.36816-1.65186-2.62207-3.0752c-1.17969-6.625-6.9209-11.43311-13.65137-11.43311
				c-4.69531,0-9.03906,2.35645-11.62109,6.30371c-0.81445,1.24414-2.25781,1.93066-3.73242,1.79199
				c-1.48047-0.14307-2.75977-1.09619-3.32031-2.47412c-2.14062-5.26025-7.18652-8.65918-12.85693-8.65918
				s-10.71729,3.39893-12.85742,8.65918c-0.56055,1.37793-1.83936,2.33105-3.32031,2.47412
				c-1.48096,0.14502-2.91846-0.54736-3.73242-1.79199c-2.58105-3.94727-6.92578-6.30371-11.62109-6.30371
				c-6.72998,0-12.47119,4.80811-13.65137,11.43311c-0.25342,1.42334-1.25586,2.59961-2.62109,3.0752
				c-1.36523,0.47656-2.88135,0.1792-3.96533-0.7793c-2.54639-2.24951-5.80518-3.48877-9.17578-3.48877
				c-7.65527,0-13.8833,6.22803-13.8833,13.8833c0,0.37939,0.02979,0.75098,0.05957,1.12207
				c0.12012,1.50293-0.61475,2.9458-1.90137,3.73193c-1.28613,0.78516-2.90576,0.78174-4.18799-0.01025
				c-2.20166-1.35986-4.7168-2.07861-7.27393-2.07861c-7.65576,0-13.88379,6.22803-13.88379,13.88379
				c0,1.15624,0.1626,2.35644,0.4834,3.56689c0.36572,1.37793-0.03027,2.84619-1.03857,3.854
				c-1.00879,1.00879-2.479,1.40234-3.85498,1.03662c-1.20752-0.3208-2.40771-0.4834-3.56738-0.4834
				c-7.65527,0-13.88329,6.22803-13.88329,13.8833c0,2.76855,0.81299,5.44141,2.35156,7.73047
				c0.78467,1.16748,0.89844,2.66064,0.2998,3.93359c-0.59814,1.27246-1.8208,2.1377-3.22021,2.27783
				c-7.11328,0.71338-12.47705,6.65186-12.47705,13.8125c0,4.14551,1.83447,8.04443,5.03369,10.6958
				c1.11035,0.92041,1.63916,2.36768,1.38428,3.7876c-0.25537,1.41943-1.25537,2.5918-2.6167,3.06787
				c-5.56738,1.94629-9.30762,7.20752-9.30762,13.0918s3.74023,11.146,9.30762,13.09229
				c1.36133,0.47607,2.36133,1.64844,2.6167,3.06836c0.25488,1.41943-0.27393,2.8667-1.38477,3.78711
				c-3.19873,2.65137-5.0332,6.5498-5.0332,10.6958c0,7.16064,5.36377,13.09912,12.47705,13.8125
				c1.39941,0.14014,2.62207,1.00537,3.22021,2.27783c0.59863,1.27295,0.48486,2.76613-0.2998,3.93361
				c-1.53857,2.28906-2.35156,4.96191-2.35156,7.73047c0,7.65576,6.22803,13.88379,13.88329,13.88379
				c1.15869,0,2.35889-0.1626,3.56738-0.48389c1.37891-0.3667,2.84717,0.02881,3.85498,1.03662
				c1.0083,1.00781,1.4043,2.47607,1.03857,3.854c-0.3208,1.21045-0.4834,2.41064-0.4834,3.56689
				c0,7.65576,6.22803,13.88428,13.88379,13.88428c2.55713,0,5.07227-0.71875,7.27295-2.0791
				c1.28223-0.79395,2.90186-0.79688,4.18799-0.01074c1.28662,0.78516,2.02246,2.22852,1.90234,3.73145
				c-0.02979,0.37207-0.05957,0.74414-0.05957,1.12305c0,7.65527,6.22803,13.88379,13.8833,13.88379
				c3.37061,0,6.62939-1.23926,9.17578-3.48828c1.0835-0.95801,2.59912-1.25391,3.96533-0.78027
				c1.36523,0.47656,2.36768,1.65234,2.62109,3.07617c1.18018,6.62402,6.92139,11.43262,13.65137,11.43262
				c4.69531,0,9.03955-2.35645,11.62109-6.30469C220.2865,321.2211,221.54919,320.5463,222.89001,320.5463z"/>
		</g>
		<g>
			<g>
				<circle fill="#D19781" cx="330.65231" cy="291.21719" r="20.9198"/>
				<path fill="#33475B" d="M330.65222,316.13712c-13.74121,0-24.91992-11.17871-24.91992-24.91992
					c0-13.74072,11.17871-24.91992,24.91992-24.91992s24.91992,11.1792,24.91992,24.91992
					C355.57214,304.9584,344.39343,316.13712,330.65222,316.13712z M330.65222,274.29727
					c-9.33008,0-16.91992,7.59033-16.91992,16.91992c0,9.33008,7.58984,16.91992,16.91992,16.91992
					s16.91992-7.58984,16.91992-16.91992C347.57214,281.8876,339.9823,274.29727,330.65222,274.29727z"/>
			</g>
			<g>
				<circle fill="#D19781" cx="148.25432" cy="291.21719" r="20.9198"/>
				<path fill="#33475B" d="M148.25427,316.13712c-13.74072,0-24.91991-11.17871-24.91991-24.91992
					c0-13.74072,11.17918-24.91992,24.91991-24.91992s24.91992,11.1792,24.91992,24.91992
					C173.17419,304.9584,161.995,316.13712,148.25427,316.13712z M148.25427,274.29727
					c-9.32959,0-16.91992,7.59033-16.91992,16.91992c0,9.33008,7.59033,16.91992,16.91992,16.91992
					s16.91992-7.58984,16.91992-16.91992C165.17419,281.8876,157.58386,274.29727,148.25427,274.29727z"/>
			</g>
			<g>
				<path fill="#D19781" d="M239.56505,385.67294h-0.00018c-50.42943,0-91.31055-40.88113-91.31055-91.31055v-46.45103
					c0-50.42941,40.88112-91.31053,91.31055-91.31053h0.00018c50.42943,0,91.31053,40.88112,91.31053,91.31053v46.45103
					C330.87558,344.79181,289.99448,385.67294,239.56505,385.67294z"/>
				<path fill="#33475B" d="M239.56482,389.67325c-52.5542,0-95.31055-42.75586-95.31055-95.31055v-46.45119
					c0-52.5542,42.75635-95.31055,95.31055-95.31055s95.31104,42.75635,95.31104,95.31055v46.45119
					C334.87585,346.91739,292.11902,389.67325,239.56482,389.67325z M239.56482,160.60097
					c-48.14307,0-87.31055,39.16748-87.31055,87.31055v46.45119c0,48.14355,39.16748,87.31055,87.31055,87.31055
					s87.31104-39.16699,87.31104-87.31055v-46.45119C326.87585,199.76845,287.70789,160.60097,239.56482,160.60097z"/>
			</g>
			<g>
				<path fill="#D19781" d="M233.22295,271.13687l-7.20993,23.57568c-1.44061,4.71066,2.08295,9.4729,7.00899,9.4729h9.91917"/>
				<path fill="#33475B" d="M242.94128,308.18594h-9.91943c-3.62891,0-6.94824-1.67285-9.10693-4.59082
					c-2.15869-2.91699-2.78857-6.58105-1.72705-10.05273l7.20996-23.5752c0.646-2.11279,2.88379-3.30127,4.99512-2.65527
					c2.1123,0.646,3.30127,2.88232,2.65527,4.99512l-7.20996,23.5752c-0.31201,1.01953-0.12695,2.09668,0.50781,2.95508
					c0.63428,0.85742,1.60938,1.34863,2.67578,1.34863h9.91943c2.20898,0,4,1.79102,4,4S245.15027,308.18594,242.94128,308.18594z"
					/>
			</g>
		</g>
		<g>
			<path fill="#8B6556" d="M346.29346,156.51538c0,9.87695-8.00668,17.88388-17.88364,17.88388
				c-1.59134,0-3.12604-0.22794-4.59467-0.61823c0.3898,1.46793,0.61774,3.00145,0.61774,4.59184
				c0,9.87694-8.00717,17.88388-17.88409,17.88388c-3.44318,0-6.64755-0.98987-9.37622-2.67606
				c0.03821,0.47664,0.07312,0.95447,0.07312,1.44078c0,9.87694-8.00714,17.88364-17.88364,17.88364
				c-4.53946,0-8.67068-1.70459-11.82458-4.49132c-1.49081,8.37103-8.78961,14.73164-17.58914,14.73164
				c-6.26907,0-11.77597-3.23222-14.96902-8.11453c-2.66025,6.5383-9.06853,11.15186-16.56224,11.15186
				c-7.49373,0-13.90201-4.61356-16.56226-11.15186c-3.19305,4.88231-8.69948,8.11453-14.96902,8.11453
				c-8.79906,0-16.09787-6.36061-17.58916-14.73164c-3.15341,2.78673-7.28513,4.49132-11.82411,4.49132
				c-9.87694,0-17.88364-8.0067-17.88364-17.88364c0-0.48631,0.03445-0.96414,0.07268-1.44078l-0.07268-43.84166l56.61176-39.34895
				l104.19868,5.09195L346.29346,156.51538z"/>
			<path fill="#33475B" d="M218.41687,230.183c-6.86182,0-13.14404-3.15576-17.21826-8.37109
				c-3.92529,3.40479-8.97412,5.3335-14.31299,5.3335c-8.62598,0-16.22168-5.00977-19.7627-12.49512
				c-2.98291,1.47266-6.27979,2.25488-9.65039,2.25488c-12.06689,0-21.88379-9.81689-21.88379-21.88379
				c0-0.63574,0.04199-1.21777,0.08545-1.75928c0.17578-2.20215,2.10205-3.84912,4.30566-3.66895
				c2.20215,0.17578,3.84473,2.10352,3.66895,4.30566c-0.02979,0.37158-0.06006,0.74365-0.06006,1.12256
				c0,7.65576,6.22803,13.88379,13.88379,13.88379c3.37109,0,6.62988-1.23877,9.17529-3.48877
				c1.0835-0.95654,2.60059-1.25391,3.96533-0.77979c1.36572,0.47607,2.36816,1.65234,2.62158,3.07568
				c1.18018,6.625,6.92139,11.43311,13.65088,11.43311c4.6958,0,9.04053-2.35645,11.62158-6.30371
				c0.81445-1.24512,2.26172-1.93799,3.73242-1.79199c1.48096,0.14307,2.75977,1.09619,3.32031,2.47412
				c2.14014,5.26025,7.18701,8.65918,12.85693,8.65918c5.67041,0,10.71729-3.39893,12.85742-8.65918
				c0.56055-1.37793,1.83936-2.33105,3.32031-2.47412c1.47852-0.14941,2.91797,0.54736,3.73242,1.79199
				c2.58105,3.94727,6.92578,6.30371,11.62109,6.30371c6.73047,0,12.47168-4.80811,13.65137-11.43311
				c0.25391-1.42334,1.25684-2.59961,2.62207-3.07568c1.36328-0.47412,2.88086-0.17822,3.96484,0.77979
				c2.5459,2.25,5.80469,3.48877,9.17578,3.48877c7.65527,0,13.88379-6.22803,13.88379-13.88379
				c0-0.37891-0.03125-0.75098-0.06055-1.12256c-0.12012-1.50293,0.61523-2.9458,1.90234-3.73193
				c1.28613-0.78564,2.90527-0.78223,4.18848,0.01123c2.2002,1.35986,4.71484,2.07861,7.27246,2.07861
				c7.65527,0,13.88379-6.22803,13.88379-13.88379c0-1.15771-0.16309-2.35742-0.4834-3.56543
				c-0.36621-1.37842,0.0293-2.84668,1.03809-3.85498s2.47656-1.4043,3.85547-1.03711
				c1.20898,0.3208,2.40918,0.48389,3.56738,0.48389c7.65527,0,13.88379-6.22803,13.88379-13.88379c0-2.20898,1.79102-4,4-4
				s4,1.79102,4,4c0,12.05957-9.80469,21.87158-21.86133,21.88379c-0.01465,12.05469-9.82617,21.85742-21.88379,21.85742
				c-1.95312,0-3.88867-0.26416-5.75879-0.77832c-2.06445,9.93701-10.8877,17.42676-21.42773,17.42676
				c-3.37109,0-6.66797-0.78223-9.65039-2.25488c-3.54102,7.48535-11.1377,12.49512-19.76367,12.49512
				c-5.33887,0-10.38721-1.92871-14.3125-5.3335C231.5614,227.02724,225.27869,230.183,218.41687,230.183z"/>
		</g>
		<path fill="#D19781" d="M143.27673,167.4203c-1.49121,0-2.92285-0.83789-3.61035-2.27246
			c-1.73193-3.61475-2.34131-7.62598-1.76172-11.6001c1.58252-10.85742,11.59668-18.4458,22.43848-17.08301
			c0.85645-5.15869,3.62598-9.70654,7.83105-12.8413c4.31396-3.2168,9.62207-4.56152,14.94678-3.78369
			c1.64307,0.23926,3.24365,0.68213,4.76709,1.31348c3.32129-8.55957,12.22461-14.02881,21.68896-12.646
			c4.8501,0.70703,9.27295,3.16699,12.4541,6.92627c1.42725,1.68652,1.21729,4.21045-0.46924,5.63721
			c-1.68652,1.42725-4.21045,1.2168-5.63721-0.46924c-1.91992-2.26904-4.58447-3.75244-7.50195-4.17822
			c-6.62158-0.96094-12.80371,3.63965-13.77051,10.2666c-0.04688,0.3252-0.06787,0.65186-0.08887,0.97754
			c-0.09717,1.50488-1.03271,2.82713-2.41895,3.41991c-1.38574,0.59277-2.98779,0.35596-4.14404-0.61377
			c-1.73438-1.45557-3.8208-2.39502-6.0332-2.71777c-3.20996-0.46533-6.41064,0.34229-9.01172,2.28123
			c-2.60059,1.93896-4.29053,4.7749-4.75879,7.98535c-0.14551,1-0.15576,2.05957-0.03076,3.14795
			c0.16309,1.4165-0.43994,2.8125-1.58301,3.66455c-1.14307,0.85107-2.6543,1.03125-3.96387,0.4707
			c-1.00879-0.43164-2.02734-0.72412-3.02734-0.86963c-3.21143-0.4707-6.41113,0.3418-9.01221,2.28076
			c-2.60059,1.93896-4.29053,4.7749-4.75879,7.98535c-0.34912,2.39551,0.01758,4.8125,1.06055,6.98877
			c0.95459,1.99219,0.11328,4.38086-1.87891,5.33594C144.4447,167.29384,143.85632,167.4203,143.27673,167.4203z"/>
		<path fill="#D19781" d="M148.83435,52.79043c-0.229,0-0.46094-0.01953-0.69434-0.06055
			c-2.17627-0.38037-3.63135-2.45312-3.25049-4.62939c0.30762-1.75977,0.82568-3.43652,1.54004-4.98389
			c4.65723-10.08545,16.6499-14.50146,26.73535-9.8457c1.50635,0.6958,2.91357,1.57373,4.19385,2.60986
			c2.29004-2.97461,5.375-5.25146,8.98438-6.58057c5.04932-1.85889,10.52148-1.64062,15.40576,0.61523
			c4.44873,2.05371,7.9917,5.66797,9.97607,10.17627c0.88965,2.02197-0.02783,4.38232-2.0498,5.27246
			c-2.02295,0.88965-4.38281-0.02783-5.27246-2.0498c-1.19775-2.72119-3.33105-4.90039-6.00732-6.13574
			c-6.07861-2.80908-13.31055-0.14551-16.11816,5.93457c-0.13916,0.30176-0.25146,0.60938-0.36426,0.91553
			c-0.52148,1.41406-1.79346,2.41553-3.29102,2.58936c-1.49268,0.17432-2.96484-0.50781-3.79736-1.76562
			c-1.24951-1.88721-2.98291-3.38037-5.01367-4.31836c-6.07812-2.80615-13.31006-0.14404-16.11816,5.93506
			c-0.42383,0.91846-0.73438,1.93164-0.92334,3.01025C152.42957,51.42226,150.7406,52.79043,148.83435,52.79043z"/>
		<path fill="#33475B" d="M253.26062,196.8329c-0.96289,0-1.9375-0.06934-2.91895-0.2124
			c-4.84863-0.70654-9.27148-3.1665-12.45361-6.92627c-1.42725-1.68652-1.21729-4.21045,0.46924-5.63721
			c1.68506-1.42871,4.20801-1.21777,5.6377,0.46924c1.91992,2.26904,4.58398,3.75293,7.50098,4.17822
			c6.61523,0.96387,12.80469-3.63916,13.77051-10.2666c0.04785-0.32959,0.06836-0.65576,0.08984-0.98193
			c0.09863-1.50391,1.03418-2.82471,2.4209-3.4165c1.3877-0.59229,2.98633-0.35498,4.14258,0.61523
			c1.7334,1.45508,3.81934,2.39453,6.03223,2.71729c3.20898,0.46777,6.41016-0.34229,9.01172-2.28125
			c2.60059-1.93945,4.29102-4.7749,4.75879-7.98535c0.14551-1,0.15625-2.05859,0.03027-3.146
			c-0.25293-2.19482,1.32031-4.1792,3.51465-4.43262c2.19531-0.25146,4.17871,1.32031,4.43262,3.51465
			c0.20508,1.77637,0.18457,3.53174-0.06152,5.21826c-0.77637,5.32471-3.5791,10.02832-7.89355,13.24463
			c-4.31445,3.2168-9.62012,4.56201-14.94727,3.78369c-1.64355-0.23926-3.24316-0.68213-4.7666-1.31299
			C269.05554,191.6454,261.58972,196.8329,253.26062,196.8329z"/>
		<g>
			<g>
				<g>
					<g>
						<path fill="#E0BAAB" d="M292.52087,291.40002h-18.30508c-7.7023,0-13.94623-6.24396-13.94623-13.94626v-19.35861h46.19757
							v19.35861C306.46713,285.15607,300.22318,291.40002,292.52087,291.40002z"/>
						<path fill="#33475B" d="M292.52136,295.39981H274.2157c-9.89551,0-17.94629-8.05029-17.94629-17.9458v-19.35889
							c0-2.209,1.79102-4.00002,4-4.00002h46.19727c2.20898,0,4,1.79102,4,4.00002v19.35889
							C310.46667,287.34952,302.41687,295.39981,292.52136,295.39981z M264.26941,262.09512v15.35889
							c0,5.48438,4.46191,9.9458,9.94629,9.9458h18.30566c5.4834,0,9.94531-4.46143,9.94531-9.9458v-15.35889H264.26941z"/>
					</g>
					<circle fill="#33475B" cx="283.36835" cy="274.74759" r="6.46375"/>
					<g>
						<line fill="none" x1="306.46713" y1="258.09515" x2="330.65231" y2="268.28384"/>
						<path fill="#33475B" d="M330.65027,272.28506c-0.51758,0-1.04395-0.10107-1.55078-0.31494l-24.18555-10.18896
							c-2.03613-0.85742-2.99121-3.20312-2.13379-5.23877c0.85742-2.03566,3.20508-2.99269,5.23926-2.13332l24.18555,10.18898
							c2.03613,0.85742,2.99121,3.20312,2.13379,5.23877C333.69421,271.36563,332.21082,272.28506,330.65027,272.28506z"/>
					</g>
				</g>
				<g>
					<g>
						<path fill="#E0BAAB" d="M203.41783,291.40002h-18.30508c-7.7023,0-13.94624-6.24396-13.94624-13.94626v-19.35861h46.19757
							v19.35861C217.36407,285.15607,211.12013,291.40002,203.41783,291.40002z"/>
						<path fill="#33475B" d="M203.41785,295.39981h-18.30518c-9.89551,0-17.94629-8.05029-17.94629-17.9458v-19.35889
							c0-2.209,1.79102-4.00002,4-4.00002h46.19775c2.20898,0,4,1.79102,4,4.00002v19.35889
							C221.36414,287.34952,213.31335,295.39981,203.41785,295.39981z M175.16638,262.09512v15.35889
							c0,5.48438,4.46191,9.9458,9.94629,9.9458h18.30518c5.48438,0,9.94629-4.46143,9.94629-9.9458v-15.35889H175.16638z"/>
					</g>
					<circle fill="#33475B" cx="194.26529" cy="274.74759" r="6.46375"/>
					<g>
						<line fill="none" x1="148.25432" y1="268.28384" x2="171.1665" y2="258.09515"/>
						<path fill="#33475B" d="M148.25671,272.28506c-1.53271,0-2.99463-0.88525-3.65723-2.37549
							c-0.89795-2.01855,0.01074-4.38281,2.0293-5.28027l22.91211-10.18898c2.02148-0.896,4.3833,0.01123,5.28027,2.02931
							c0.89795,2.01855-0.01074,4.38281-2.0293,5.28027l-22.91211,10.18896
							C149.35144,272.17374,148.79968,272.28506,148.25671,272.28506z"/>
					</g>
				</g>
				<g>
					<line fill="none" x1="217.36407" y1="258.09515" x2="260.26956" y2="258.09515"/>
					<path fill="#33475B" d="M260.26941,262.09512h-42.90527c-2.20898,0-4-1.79102-4-4c0-2.209,1.79102-4.00002,4-4.00002h42.90527
						c2.20898,0,4,1.79102,4,4.00002C264.26941,260.30411,262.47839,262.09512,260.26941,262.09512z"/>
				</g>
			</g>
		</g>
	</g>
	<path fill="#33475B" d="M178.82312,247.54921c-1.19922,0.00049-2.38525-0.53662-3.17334-1.56104
		c-1.34717-1.75098-1.01953-4.26221,0.73145-5.60938c10.25488-7.88916,24.50684-8.55713,35.46045-1.6626
		c1.86963,1.17676,2.43115,3.64648,1.25439,5.51611c-1.17725,1.86865-3.64746,2.43066-5.51611,1.25439
		c-8.13232-5.12012-18.70996-4.62354-26.3208,1.23291C180.53259,247.2787,179.67419,247.54921,178.82312,247.54921z"/>
	<path fill="#33475B" d="M298.81042,247.54921c-0.85156,0-1.70898-0.27051-2.43652-0.82959
		c-7.61035-5.85596-18.18848-6.35107-26.32031-1.23291c-1.87207,1.17773-4.34082,0.61475-5.51562-1.25439
		c-1.17773-1.86963-0.61523-4.33936,1.25391-5.51611c10.95605-6.89502,25.20508-6.22705,35.46094,1.6626
		c1.75098,1.34717,2.07812,3.8584,0.73047,5.60938C301.19617,247.0121,300.00964,247.54921,298.81042,247.54921z"/>
	<g>
		<path fill="#D19781" d="M258.71878,326.92624c-5.65016,3.20691-12.21684,4.98837-19.13957,4.98837
			c-6.97368,0-13.48909-1.83243-19.13956-4.98837"/>
		<path fill="#33475B" d="M239.57898,335.91446c-7.36035,0-14.65283-1.90039-21.08984-5.49609
			c-1.92871-1.07715-2.61865-3.51465-1.5415-5.44238c1.07764-1.92969,3.51514-2.61816,5.44287-1.54199
			c5.24707,2.93164,11.19092,4.48047,17.18848,4.48047c6.08105,0,12.0166-1.54492,17.16504-4.4668
			c1.91992-1.0918,4.36328-0.41699,5.45312,1.50391c1.09082,1.92188,0.41699,4.36328-1.50391,5.45312
			C254.34265,334.00919,247.04187,335.91446,239.57898,335.91446z"/>
	</g>
</g>
</svg>
