<?xml version="1.0" encoding="UTF-8"?>
<!DOCTYPE svg PUBLIC "-//W3C//DTD SVG 1.1//EN" "http://www.w3.org/Graphics/SVG/1.1/DTD/svg11.dtd">
<svg version="1.1" xmlns="http://www.w3.org/2000/svg" xmlns:xlink="http://www.w3.org/1999/xlink" x="0px" y="0px" width="60px" height="44px" viewBox="0 0 60.917 44" enable-background="new 0 0 60.917 44" xml:space="preserve">

<g id="ETS_Logo">
	<g>
		<path fill="#003082" d="M50.325,30.393l-0.07,0.055c-5.068,3.863-10.172,6.211-16.559,7.607    c-9.784,2.139-18.896,0.865-23.78-3.324c-2.198-1.881-3.427-4.238-3.659-7.004c-0.592-7.115,4.742-14.472,14.271-19.681    l0.095-0.053l-0.11-0.27L20.42,7.762C9.225,12.266,1.367,20.667,1.966,28.658c0.243,3.262,1.705,6.152,4.224,8.344    c5.196,4.525,14.402,5.932,24.623,3.752c8.235-1.752,14.789-5.43,19.631-10.045l0.092-0.094L50.325,30.393z"/>
		<path fill="#892528" d="M57.757,11.079c-1.946-4.334-6.214-7.285-12.021-8.295c-9.381-1.646-20.643,2.391-26.29,8.93l-0.073,0.084    l0.176,0.242l0.089-0.072c3.749-3.123,9.3-5.496,14.845-6.346c8.24-1.258,15.152,0.811,18.486,5.537    c3.242,4.588,2.319,13.443-1.933,18.574l-0.078,0.098l0.212,0.248l0.088-0.076C57.735,23.838,60.852,18,57.757,11.079z"/>
		<path fill="#003082" d="M23.168,23.564h-6.211l-0.666,3.566h6.945l-0.552,2.924H12.264l2.923-15.505h9.981l-0.574,2.922h-6.486    l-0.598,3.174h6.211L23.168,23.564z"/>
		<path fill="#003082" d="M29.481,17.493h-3.805l0.575-2.943h13.186c-0.79,0.163-1.487,0.645-2.147,1.304    c-0.752,0.751-0.891,1.64-0.891,1.64h-3.468l-2.347,12.562h-3.45L29.481,17.493z"/>
		<path fill="#003082" d="M36.516,26.26c1.059,0.621,2.531,1.125,4.163,1.125c1.265,0,2.531-0.529,2.531-1.748    c0-0.828-0.714-1.381-2.278-2.072c-1.795-0.779-3.656-2-3.656-4.23c0-3.199,2.967-5.061,6.439-5.061    c2.117,0,3.358,0.459,4.118,0.85l-1.127,2.852c-0.529-0.275-1.817-0.803-3.289-0.758c-1.656,0-2.462,0.758-2.462,1.494    c0,0.969,1.173,1.52,2.508,2.141c2.092,0.919,3.473,2.162,3.473,4.21c0,3.541-3.105,5.268-6.716,5.268    c-2.347-0.047-4.071-0.645-4.946-1.287L36.516,26.26z"/>
		<g>
			<path fill="#003082" d="M56.935,33.701c-0.416,0.418-0.919,0.627-1.509,0.627c-0.59,0-1.092-0.209-1.506-0.627     c-0.412-0.416-0.618-0.92-0.618-1.512c0-0.586,0.208-1.086,0.624-1.502c0.414-0.414,0.914-0.621,1.5-0.621     c0.59,0,1.093,0.207,1.509,0.621s0.624,0.914,0.624,1.502C57.559,32.779,57.351,33.283,56.935,33.701z M54.131,30.896     c-0.356,0.357-0.534,0.789-0.534,1.297c0,0.51,0.177,0.945,0.531,1.305c0.356,0.361,0.789,0.541,1.297,0.541     s0.941-0.18,1.297-0.541c0.356-0.359,0.534-0.795,0.534-1.305c0-0.508-0.178-0.939-0.534-1.297     c-0.358-0.359-0.79-0.541-1.297-0.541C54.921,30.355,54.489,30.537,54.131,30.896z M55.385,31.016     c0.29,0,0.503,0.027,0.638,0.084c0.242,0.1,0.363,0.297,0.363,0.592c0,0.209-0.076,0.363-0.229,0.463     c-0.081,0.051-0.193,0.09-0.338,0.113c0.183,0.027,0.317,0.105,0.401,0.229c0.085,0.123,0.127,0.244,0.127,0.361v0.172     c0,0.055,0.002,0.111,0.006,0.174s0.011,0.102,0.021,0.121l0.015,0.029h-0.386c-0.002-0.008-0.004-0.016-0.006-0.023     s-0.004-0.016-0.005-0.025l-0.009-0.076v-0.184c0-0.271-0.074-0.449-0.221-0.535c-0.087-0.051-0.24-0.076-0.458-0.076h-0.325     v0.92h-0.412v-2.338H55.385z M55.83,31.383c-0.104-0.057-0.271-0.086-0.499-0.086h-0.352v0.848h0.372     c0.175,0,0.306-0.018,0.393-0.053c0.161-0.064,0.242-0.186,0.242-0.365C55.986,31.555,55.934,31.441,55.83,31.383z"/>
		</g>
	</g>
</g>

</svg>