<?xml version="1.0" encoding="utf-8"?>
<!-- Generator: Adobe Illustrator 22.1.0, SVG Export Plug-In . SVG Version: 6.00 Build 0)  -->
<svg version="1.1" id="Layer_1" xmlns="http://www.w3.org/2000/svg" xmlns:xlink="http://www.w3.org/1999/xlink" x="0px" y="0px"
	 viewBox="0 0 478.90662 478.90662" enable-background="new 0 0 478.90662 478.90662" xml:space="preserve">
<g id="Idle_13_">
	<g>
		<defs>
			<circle id="SVGID_1_" cx="239.45331" cy="239.45331" r="239.45331"/>
		</defs>
		<clipPath id="SVGID_2_">
			<use xlink:href="#SVGID_1_"  overflow="visible"/>
		</clipPath>
		<g clip-path="url(#SVGID_2_)">
			<g>
				<path fill="#B4BBE8" d="M224.11864,278.11996h30.66936c69.35373,0,125.57602,56.22232,125.57602,125.57605v96.23694H98.5426
					v-96.23694C98.5426,334.34229,154.76491,278.11996,224.11864,278.11996z"/>
				<path fill="#33475B" d="M380.36414,503.93274H98.54237c-2.20898,0-4-1.79102-4-4v-96.23633
					c0-71.44824,58.12743-129.57617,129.57617-129.57617h30.66943c71.44823,0,129.57616,58.12793,129.57616,129.57617v96.23633
					C384.36414,502.14172,382.57312,503.93274,380.36414,503.93274z M102.54237,495.93274h273.82178v-92.23633
					c0-67.03711-54.53906-121.57617-121.57617-121.57617h-30.66943c-67.03711,0-121.57616,54.53906-121.57616,121.57617V495.93274z"
					/>
			</g>
			<g>
				<g>
					<g>
						<line fill="none" x1="169.10745" y1="499.93295" x2="169.10745" y2="433.0675"/>
						<path fill="#33475B" d="M169.1073,503.93274c-2.20898,0-4-1.79102-4-4V433.0675c0-2.20898,1.79102-4,4-4s4,1.79102,4,4
							v66.86523C173.1073,502.14172,171.31628,503.93274,169.1073,503.93274z"/>
					</g>
				</g>
				<g>
					<g>
						<line fill="none" x1="309.79916" y1="499.93295" x2="309.79916" y2="433.0675"/>
						<path fill="#33475B" d="M309.79871,503.93274c-2.20898,0-4-1.79102-4-4V433.0675c0-2.20898,1.79102-4,4-4s4,1.79102,4,4
							v66.86523C313.79871,502.14172,312.00769,503.93274,309.79871,503.93274z"/>
					</g>
				</g>
			</g>
		</g>
	</g>
</g>
<g id="Avatar_13">
	<g>
		<g>
			<path fill="#CBD6E2" d="M135.60225,194.14575v149.38281c0,9.12048,9.0587,15.47101,17.63261,12.36121l19.73869-7.15933
				c13.88681-5.03683,23.1346-18.22833,23.1346-33.0004V194.1404L135.60225,194.14575z"/>
			<path fill="#CBD6E2" d="M283.01392,194.14575v121.58429c0,14.77206,9.2478,27.96356,23.13461,33.0004l19.73871,7.15933
				c8.57391,3.1098,17.6326-3.24072,17.6326-12.36121V194.1404L283.01392,194.14575z"/>
			<path fill="#9AACC2" d="M330.88986,196.56952v51.21997c0,36.08008-17.23999,67.73999-43.16003,85.47998
				c-3.02002-5.21997-4.69995-11.23999-4.69995-17.54004V194.14935h47.83997
				C330.88986,194.96942,330.88986,195.74945,330.88986,196.56952z"/>
			<path fill="#9AACC2" d="M196.10985,194.14935v121.58008c0,6.30005-1.68005,12.30005-4.68005,17.52002
				c-25.91992-17.71997-43.15991-49.37988-43.15991-85.45996v-51.21997c0-0.82007,0-1.6001,0.02002-2.42017H196.10985z"/>
			<path fill="#33475B" d="M148.7572,360.6759c-3.47949,0-6.92773-1.05664-9.8501-3.10547
				c-4.57373-3.20703-7.30469-8.45605-7.30469-14.04199V194.14563c0-2.20898,1.79053-4,3.99951-4l60.50586-0.00537
				c1.06104,0,2.07861,0.42139,2.82861,1.17139c0.75049,0.75,1.17188,1.76758,1.17188,2.82861v121.58936
				c0,16.39648-10.35645,31.16992-25.771,36.76172l-19.73877,7.15918C152.70203,360.33801,150.72449,360.6759,148.7572,360.6759z
				 M139.60242,198.14514v145.3833c0,3.02441,1.42041,5.75488,3.89697,7.49121c2.47705,1.73633,5.5293,2.1416,8.37158,1.10938
				l19.73877-7.15918c12.26074-4.44727,20.49854-16.19824,20.49854-29.24023V198.14075L139.60242,198.14514z"/>
			<path fill="#33475B" d="M330.36511,360.6759c-1.96777,0-3.94434-0.33789-5.8418-1.02539l-19.73926-7.15918
				c-15.41406-5.5918-25.77051-20.36523-25.77051-36.76172V194.14563c0-2.20898,1.79102-4,4-4l60.50586-0.00537
				c1.06055,0,2.07812,0.42139,2.82812,1.17139s1.17188,1.76758,1.17188,2.82861v149.38818
				c0,5.58594-2.73047,10.83496-7.30469,14.04199C337.29285,359.61829,333.84363,360.6759,330.36511,360.6759z M287.01355,198.14514
				v117.58447c0,13.04199,8.23828,24.79297,20.49902,29.24023l19.73926,7.15918c2.84277,1.03418,5.89453,0.62695,8.37012-1.10938
				c2.47656-1.73633,3.89746-4.4668,3.89746-7.49121v-145.3877L287.01355,198.14514z"/>
			<g>
				<path fill="#F4A9AD" d="M339.33386,213.02034c-2.73975,1.30005-5.7998,2.04004-9.04004,2.04004
					c-1.04004,0-2.05957-0.07996-3.05957-0.21997c1-0.28003,2.01953-0.54004,3.05957-0.73999
					C333.21423,213.48042,336.23425,213.10042,339.33386,213.02034z"/>
				<path fill="#33475B" d="M330.29382,219.06018c-1.1748,0-2.39062-0.08691-3.61426-0.2583
					c-1.87598-0.2627-3.30957-1.8042-3.43652-3.69336s1.08887-3.60889,2.91211-4.11963
					c1.28516-0.36035,2.35938-0.61963,3.38281-0.81641c3.17773-0.67529,6.46387-1.06738,9.69238-1.15088
					c1.92285-0.06348,3.55566,1.23145,3.99414,3.06934c0.43945,1.83838-0.46875,3.73291-2.17578,4.54297
					C337.65613,218.24377,334.03699,219.06018,330.29382,219.06018z"/>
			</g>
			<g>
				<circle fill="#936E63" cx="330.65295" cy="194.14575" r="20.9198"/>
				<path fill="#33475B" d="M330.6532,219.06555c-13.74121,0-24.91992-11.1792-24.91992-24.91992
					s11.17871-24.91943,24.91992-24.91943s24.91992,11.17871,24.91992,24.91943S344.39441,219.06555,330.6532,219.06555z
					 M330.6532,177.2262c-9.33008,0-16.91992,7.58984-16.91992,16.91943s7.58984,16.91992,16.91992,16.91992
					s16.91992-7.59033,16.91992-16.91992S339.98328,177.2262,330.6532,177.2262z"/>
			</g>
			<g>
				<path fill="#936E63" d="M330.8739,170.92036v46.46008c0,50.41991-40.87988,91.29991-91.2998,91.29991
					c-50.43994,0-91.32031-40.88-91.32031-91.29991v-46.46008c0-50.41993,40.88037-91.31995,91.32031-91.31995
					c25.21973,0,48.04004,10.21997,64.56006,26.76001C320.65417,122.88044,330.8739,145.70039,330.8739,170.92036z"/>
				<path fill="#33475B" d="M239.5741,312.68079c-52.55957,0-95.32031-42.75195-95.32031-95.30029v-46.45996
					c0-52.55957,42.76074-95.32031,95.32031-95.32031c25.46582,0,49.39844,9.92041,67.38965,27.93359
					c17.99707,17.99707,27.91016,41.9292,27.91016,67.38672v46.45996C334.8739,269.92883,292.12292,312.68079,239.5741,312.68079z
					 M239.5741,83.60022c-48.14844,0-87.32031,39.17188-87.32031,87.32031v46.45996c0,48.13721,39.17188,87.30029,87.32031,87.30029
					c48.1377,0,87.2998-39.16309,87.2998-87.30029v-46.45996c0-23.32031-9.08008-45.24414-25.56836-61.73145
					C284.8241,92.68713,262.90125,83.60022,239.5741,83.60022z"/>
			</g>
			<path fill="#33475B" d="M206.5527,194.12331c0,6.18381-5.05537,11.23918-11.2392,11.23918
				c-6.18381,0-11.19429-5.05537-11.19429-11.23918c0-6.18382,5.01048-11.19429,11.19429-11.19429
				c1.03807,0,2.07616,0.13554,3.06932,0.45154c-1.26399,0.94771-2.03125,2.4825-2.03125,4.19775
				c0,3.06932,2.48251,5.50664,5.50665,5.50664c1.76042,0,3.29523-0.76726,4.28812-2.03123
				C206.41716,192.00169,206.5527,193.03976,206.5527,194.12331z"/>
			<path fill="#33475B" d="M295.01202,194.12331c0,6.18381-5.05539,11.23918-11.2392,11.23918
				c-6.18384,0-11.19431-5.05537-11.19431-11.23918c0-6.18382,5.01047-11.19429,11.19431-11.19429
				c1.03806,0,2.07614,0.13554,3.06931,0.45154c-1.26398,0.94771-2.03125,2.4825-2.03125,4.19775
				c0,3.06932,2.48251,5.50664,5.50665,5.50664c1.76044,0,3.29523-0.76726,4.28812-2.03123
				C294.87646,192.00169,295.01202,193.03976,295.01202,194.12331z"/>
			<path fill="#33475B" d="M242.94226,231.19446h-9.91943c-3.62939,0-6.94873-1.67334-9.10742-4.59033
				c-2.15869-2.91797-2.78809-6.58154-1.72705-10.05225l7.20996-23.57617c0.646-2.11279,2.88037-3.2998,4.99512-2.65527
				c2.1123,0.646,3.30127,2.88232,2.65527,4.99512l-7.20996,23.57568c-0.31201,1.02002-0.12695,2.09668,0.50732,2.9541
				c0.63477,0.85742,1.61035,1.34912,2.67676,1.34912h9.91943c2.20898,0,4,1.79102,4,4S245.15125,231.19446,242.94226,231.19446z"/>
			<g>
				<path fill="#936E63" d="M148.25378,173.22041v41.83997c-11.55957,0-20.91993-9.35999-20.91993-20.91992
					C127.33385,182.60042,136.69421,173.22041,148.25378,173.22041z"/>
				<path fill="#33475B" d="M148.25378,219.06018c-13.74072,0-24.91991-11.1792-24.91991-24.91992
					s11.17918-24.91992,24.91991-24.91992c2.20898,0,4,1.79102,4,4v41.83984
					C152.25378,217.26917,150.46277,219.06018,148.25378,219.06018z M144.25378,177.69788
					c-7.40576,1.80176-12.91992,8.49023-12.91992,16.44238s5.51416,14.64062,12.91992,16.44238V177.69788z"/>
			</g>
			<g>
				<path fill="#CBD6E2" d="M148.25983,173.22231c18.40002-18.41992,34.76001-27.54004,61.26001-27.67993h0.81995
					c51.58008,0,93.59998-22.28004,93.59998-39.38013l0,0c0,55.80006,26.72009,67.06007,26.72009,67.06007l12.55994,4.22021
					c0.20007-2.62012,0.30005-5.26025,0.30005-7.92017c0-16.13989-3.68005-31.43994-10.23999-45.05981
					c-2.70007-5.62012-6.92004-10.16016-12.02002-13.30029c-5.09998-3.13989-11.14014-4.97998-17.32007-5l0,0l0,0v-0.47998
					c0-12.33984-6.8999-23.67969-17.91992-29.19971c-14-7-29.78003-10.92017-46.45996-10.92017
					c-58.76001,0-106.14001,48.73999-103.88,108c0.03992,1.23999,0.12,2.47998,0.21997,3.71997
					C139.3598,174.72231,143.63983,173.22231,148.25983,173.22231"/>
				<path fill="#33475B" d="M343.2196,181.4425c-0.42871,0-0.8584-0.06885-1.27441-0.2085l-12.55957-4.22021
					c-0.09375-0.03174-0.1875-0.06689-0.2793-0.10547c-1.0791-0.45508-24.18164-10.73828-28.48145-55.73486
					c-5.08887,5.25049-12.71191,10.28857-22.4873,14.73291c-19.34082,8.79346-43.41846,13.63623-67.79785,13.63623h-0.81982
					c-23.40967,0.12354-39.25146,7.30762-58.43018,26.50684c-0.75049,0.75098-1.76855,1.17285-2.83008,1.17285
					c-3.6333,0-7.08447,1.13281-9.98047,3.27539c-1.16699,0.86377-2.71143,1.02734-4.03467,0.42627
					c-1.32227-0.60107-2.21484-1.87207-2.33154-3.31982c-0.11768-1.45752-0.19336-2.73779-0.23096-3.91406
					c-1.12988-29.62695,9.55273-57.70166,30.08105-79.02832c20.5459-21.34424,48.1748-33.09912,77.79688-33.09912
					c16.96338,0,33.1958,3.81592,48.24854,11.34229c11.43262,5.72656,18.87695,16.8252,19.98633,29.47412
					c5.45703,0.59912,10.77246,2.42822,15.56152,5.37695c5.88477,3.62305,10.56348,8.80078,13.5293,14.97412
					c7.05566,14.64989,10.63379,30.39452,10.63379,46.79247c0,2.75293-0.10449,5.52002-0.31152,8.22461
					c-0.09375,1.23047-0.75,2.34814-1.7793,3.02979C344.76648,181.21643,343.99597,181.4425,343.2196,181.4425z
					 M332.11804,169.49231l7.37207,2.47705c0.01953-0.81494,0.0293-1.63135,0.0293-2.44678
					c0-15.18652-3.31152-29.7627-9.84277-43.32422c-2.30273-4.79199-5.9375-8.8125-10.51367-11.62988
					c-3.46094-2.13086-7.26172-3.51953-11.16797-4.09863C309.22253,157.67493,330.49792,168.72278,332.11804,169.49231z
					 M239.55994,69.56262c-27.42773,0-53.00928,10.88379-72.0332,30.64697c-18.39502,19.11035-28.25098,44.07373-27.91699,70.55322
					c2.21484-0.82227,4.54639-1.32275,6.94385-1.4834c9.85303-9.70605,18.40771-16.01562,27.58545-20.36621
					c10.4541-4.95654,21.68994-7.29834,35.35986-7.37061h0.84082c49.45898,0,89.59961-21.40869,89.59961-35.38037v-0.47998
					c0-10.95068-6.02051-20.76904-15.71094-25.62305C270.29871,73.09436,255.26941,69.56262,239.55994,69.56262z"/>
			</g>
			<path fill="#FFFFFF" d="M163.46863,130.93616c-0.66553,0-1.34033-0.16602-1.96191-0.5166
				c-1.92383-1.08594-2.60352-3.52539-1.51807-5.44971c14.19336-25.15527,39.71289-42.28271,68.26367-45.81543
				c2.19922-0.26904,4.18994,1.28613,4.46094,3.47852c0.27148,2.19238-1.28613,4.18945-3.47852,4.46094
				c-26.04443,3.22266-49.32617,18.85156-62.27832,41.80762C166.22107,130.20422,164.86511,130.93616,163.46863,130.93616z"/>
		</g>
		<path fill="#826156" d="M195.31091,223.62561c-8.47412,0-16.37402-3.79834-21.6748-10.4209
			c-1.38037-1.72461-1.10107-4.24219,0.62354-5.62256c1.72461-1.37988,4.24219-1.10254,5.62256,0.62354
			c3.77393,4.71533,9.39746,7.41992,15.42871,7.41992c6.11377,0,11.78516-2.76514,15.56006-7.58594
			c1.3623-1.73975,3.87646-2.04639,5.61523-0.68359c1.73975,1.36182,2.04541,3.87598,0.68359,5.61523
			C211.86804,219.74231,203.90076,223.62561,195.31091,223.62561z"/>
		<path fill="#826156" d="M283.69128,223.62561c-8.47461,0-16.375-3.79834-21.6748-10.4209
			c-1.37988-1.7251-1.10156-4.24219,0.62402-5.62256c1.72559-1.38184,4.24219-1.10059,5.62207,0.62354
			c3.77344,4.71533,9.39746,7.41992,15.42871,7.41992c6.11328,0,11.78516-2.76514,15.55957-7.58594
			c1.36133-1.73975,3.87598-2.04639,5.61523-0.68359c1.73926,1.36182,2.0459,3.87598,0.68359,5.61523
			C300.2489,219.74231,292.28113,223.62561,283.69128,223.62561z"/>
	</g>
	<path fill="#33475B" d="M180.33386,180.86047c-0.93262,0-1.86865-0.32373-2.62646-0.98438
		c-1.66553-1.45166-1.83887-3.97852-0.3877-5.64404c8.50244-9.75391,22.34277-13.21484,34.43945-8.61084
		c2.06445,0.78564,3.10107,3.09619,2.31543,5.16113c-0.78516,2.06396-3.09619,3.1001-5.16113,2.31543
		c-8.98145-3.41748-19.25342-0.84814-25.5625,6.39062C182.55994,180.39612,181.44958,180.86047,180.33386,180.86047z"/>
	<path fill="#33475B" d="M298.79773,180.86047c-1.11621,0-2.22656-0.46436-3.01758-1.37207
		c-6.31055-7.24023-16.58398-9.80762-25.5625-6.39062c-2.06934,0.78418-4.37598-0.25146-5.16113-2.31543
		c-0.78613-2.06494,0.25098-4.37549,2.31543-5.16113c12.0957-4.60449,25.9375-1.14307,34.43945,8.61084
		c1.45117,1.66553,1.27832,4.19238-0.3877,5.64404C300.66589,180.53625,299.72937,180.86047,298.79773,180.86047z"/>
	<path fill="#33475B" d="M239.57996,258.92395c-7.35889,0-14.65186-1.90039-21.08984-5.49609
		c-1.9292-1.07764-2.61914-3.51416-1.54199-5.44287c1.07715-1.9292,3.51318-2.61963,5.44238-1.54199
		c5.24902,2.93164,11.19287,4.48096,17.18945,4.48096c6.0791,0,12.01465-1.54492,17.16504-4.46777
		c1.9248-1.08984,4.36328-0.4165,5.45312,1.50488c1.09082,1.92139,0.41699,4.36279-1.50391,5.45312
		C254.34167,257.01868,247.04089,258.92395,239.57996,258.92395z"/>
</g>
</svg>
