<?xml version="1.0" encoding="utf-8"?>
<!-- Generator: Adobe Illustrator 22.1.0, SVG Export Plug-In . SVG Version: 6.00 Build 0)  -->
<svg version="1.1" id="Layer_1" xmlns="http://www.w3.org/2000/svg" xmlns:xlink="http://www.w3.org/1999/xlink" x="0px" y="0px"
	 viewBox="0 0 478.90662 478.90662" enable-background="new 0 0 478.90662 478.90662" xml:space="preserve">
<g id="Idle_11_">
	<g>
		<defs>
			<circle id="SVGID_1_" cx="239.45331" cy="239.45331" r="239.45331"/>
		</defs>
		<clipPath id="SVGID_2_">
			<use xlink:href="#SVGID_1_"  overflow="visible"/>
		</clipPath>
		<g clip-path="url(#SVGID_2_)">
			<g>
				<path fill="#F5C26B" d="M224.11864,278.11996h30.66936c69.35373,0,125.57602,56.22232,125.57602,125.57605v96.23694H98.5426
					v-96.23694C98.5426,334.34229,154.76491,278.11996,224.11864,278.11996z"/>
				<path fill="#33475B" d="M380.36414,503.93274H98.54237c-2.20898,0-4-1.79102-4-4v-96.23633
					c0-71.44824,58.12743-129.57617,129.57617-129.57617h30.66943c71.44823,0,129.57616,58.12793,129.57616,129.57617v96.23633
					C384.36414,502.14172,382.57312,503.93274,380.36414,503.93274z M102.54237,495.93274h273.82178v-92.23633
					c0-67.03711-54.53906-121.57617-121.57617-121.57617h-30.66943c-67.03711,0-121.57616,54.53906-121.57616,121.57617V495.93274z"
					/>
			</g>
			<g>
				<g>
					<g>
						<line fill="none" x1="169.10745" y1="499.93295" x2="169.10745" y2="433.0675"/>
						<path fill="#33475B" d="M169.1073,503.93274c-2.20898,0-4-1.79102-4-4V433.0675c0-2.20898,1.79102-4,4-4s4,1.79102,4,4
							v66.86523C173.1073,502.14172,171.31628,503.93274,169.1073,503.93274z"/>
					</g>
				</g>
				<g>
					<g>
						<line fill="none" x1="309.79916" y1="499.93295" x2="309.79916" y2="433.0675"/>
						<path fill="#33475B" d="M309.79871,503.93274c-2.20898,0-4-1.79102-4-4V433.0675c0-2.20898,1.79102-4,4-4s4,1.79102,4,4
							v66.86523C313.79871,502.14172,312.00769,503.93274,309.79871,503.93274z"/>
					</g>
				</g>
			</g>
		</g>
	</g>
</g>
<g id="Avatar_11">
	<g>
		<g>
			<circle fill="#D19781" cx="330.65231" cy="194.60103" r="20.9198"/>
			<path fill="#33475B" d="M330.65222,219.52063c-13.74121,0-24.91992-11.17871-24.91992-24.91943
				s11.17871-24.91992,24.91992-24.91992s24.91992,11.1792,24.91992,24.91992S344.39343,219.52063,330.65222,219.52063z
				 M330.65222,177.68127c-9.33008,0-16.91992,7.59033-16.91992,16.91992s7.58984,16.91943,16.91992,16.91943
				s16.91992-7.58984,16.91992-16.91943S339.9823,177.68127,330.65222,177.68127z"/>
		</g>
		<g>
			<circle fill="#D19781" cx="148.25432" cy="194.60103" r="20.9198"/>
			<path fill="#33475B" d="M148.25427,219.52063c-13.74072,0-24.91991-11.17871-24.91991-24.91943
				s11.17918-24.91992,24.91991-24.91992s24.91992,11.1792,24.91992,24.91992S161.995,219.52063,148.25427,219.52063z
				 M148.25427,177.68127c-9.32959,0-16.91992,7.59033-16.91992,16.91992s7.59033,16.91943,16.91992,16.91943
				s16.91992-7.58984,16.91992-16.91943S157.58386,177.68127,148.25427,177.68127z"/>
		</g>
		<g>
			<path fill="#AE7E6B" d="M239.56505,309.13708h-0.00018c-50.42943,0-91.31055-40.88113-91.31055-91.31055V171.3755
				c0-50.42941,40.88112-91.31054,91.31055-91.31054h0.00018c50.42943,0,91.31053,40.88113,91.31053,91.31054v46.45103
				C330.87558,268.25595,289.99448,309.13708,239.56505,309.13708z"/>
			<path fill="#33475B" d="M239.56482,313.13684c-52.5542,0-95.31055-42.75586-95.31055-95.31006v-46.45117
				c0-52.5542,42.75635-95.31055,95.31055-95.31055s95.31104,42.75635,95.31104,95.31055v46.45117
				C334.87585,270.38098,292.11902,313.13684,239.56482,313.13684z M239.56482,84.06506
				c-48.14307,0-87.31055,39.16748-87.31055,87.31055v46.45117c0,48.14307,39.16748,87.31006,87.31055,87.31006
				s87.31104-39.16699,87.31104-87.31006v-46.45117C326.87585,123.23254,287.70789,84.06506,239.56482,84.06506z"/>
		</g>
		<path fill="#33475B" d="M206.55203,194.57857c0,6.18382-5.05537,11.2392-11.23918,11.2392
			c-6.18382,0-11.19429-5.05537-11.19429-11.2392s5.01047-11.19429,11.19429-11.19429c1.03807,0,2.07614,0.13554,3.06931,0.45154
			c-1.26398,0.94772-2.03123,2.48251-2.03123,4.19775c0,3.06932,2.4825,5.50665,5.50664,5.50665
			c1.76044,0,3.29523-0.76726,4.28812-2.03125C206.41649,192.45695,206.55203,193.49504,206.55203,194.57857z"/>
		<path fill="#33475B" d="M295.01135,194.57857c0,6.18382-5.05539,11.2392-11.2392,11.2392s-11.19427-5.05537-11.19427-11.2392
			s5.01047-11.19429,11.19427-11.19429c1.03809,0,2.07614,0.13554,3.06931,0.45154
			c-1.26398,0.94772-2.03122,2.48251-2.03122,4.19775c0,3.06932,2.48248,5.50665,5.50662,5.50665
			c1.76044,0,3.29523-0.76726,4.28812-2.03125C294.87579,192.45695,295.01135,193.49504,295.01135,194.57857z"/>
		<g>
			<path fill="#AE7E6B" d="M233.22295,194.60103l-7.20993,23.57565c-1.44061,4.71068,2.08295,9.47292,7.00899,9.47292h9.91917"/>
			<path fill="#33475B" d="M242.94128,231.64954h-9.91943c-3.62891,0-6.94873-1.67334-9.10693-4.59082
				c-2.15869-2.91748-2.78809-6.58105-1.72705-10.05176l7.20996-23.57568c0.646-2.11279,2.88086-3.30078,4.99512-2.65527
				c2.1123,0.646,3.30127,2.88232,2.65527,4.99512l-7.20996,23.57568c-0.31201,1.01953-0.12695,2.09619,0.50732,2.95361
				s1.60986,1.34912,2.67627,1.34912h9.91943c2.20898,0,4,1.79102,4,4S245.15027,231.64954,242.94128,231.64954z"/>
		</g>
		<path fill="#8B6556" d="M195.33533,224.35022c-8.47412,0-16.37451-3.79834-21.6748-10.42041
			c-1.38037-1.72461-1.10107-4.24219,0.62354-5.62256c1.72412-1.37939,4.2417-1.10205,5.62256,0.62354
			c3.77393,4.71533,9.39746,7.41943,15.42871,7.41943c6.11377,0,11.78516-2.76514,15.56006-7.58594
			c1.36182-1.73926,3.87549-2.04639,5.61523-0.68359c1.73975,1.36182,2.04541,3.87598,0.68359,5.61523
			C211.89294,220.46692,203.92566,224.35022,195.33533,224.35022z"/>
		<path fill="#8B6556" d="M283.7157,224.35022c-8.47363,0-16.37402-3.79785-21.6748-10.42041
			c-1.37988-1.72461-1.10156-4.2417,0.62305-5.62207c1.72754-1.38281,4.24316-1.10156,5.62305,0.62305
			c3.77441,4.71533,9.39746,7.41943,15.42871,7.41943c6.11426,0,11.78516-2.76514,15.56055-7.58643
			c1.36133-1.73877,3.87598-2.0459,5.61523-0.68311c1.73926,1.36182,2.0459,3.87598,0.68359,5.61572
			C300.27332,220.46692,292.30554,224.35022,283.7157,224.35022z"/>
		<path fill="#D19781" d="M204.19958,109.70959c-1.41748,0-2.79102-0.75537-3.5166-2.08838
			c-1.05615-1.93994-0.33984-4.36914,1.60059-5.42578c6.60547-3.59668,13.67969-6.20947,21.02588-7.7666
			c2.16602-0.45898,4.28418,0.92285,4.74268,3.0835c0.45801,2.16113-0.92236,4.28467-3.0835,4.74268
			c-6.58887,1.39648-12.93408,3.74023-18.85986,6.9668C205.50134,109.55237,204.84607,109.70959,204.19958,109.70959z"/>
		<path fill="#D19781" d="M168.51794,153.76575c-0.37549,0-0.75781-0.05322-1.13672-0.16553
			c-2.11816-0.62695-3.32715-2.85254-2.7002-4.9707c4.05615-13.70361,11.8291-26.04639,22.47852-35.69385
			c1.63623-1.48242,4.1665-1.3584,5.6499,0.27881s1.3584,4.16699-0.27881,5.6499
			c-9.56152,8.66211-16.53906,19.73975-20.17871,32.03564C171.83728,152.63928,170.24451,153.76575,168.51794,153.76575z"/>
		<g>
			<circle fill="#8B6556" cx="278.8819" cy="121.27174" r="4.07439"/>
			<circle fill="#8B6556" cx="269.23834" cy="131.18874" r="4.07439"/>
			<circle fill="#8B6556" cx="282.9563" cy="133.49492" r="4.07439"/>
		</g>
	</g>
	<path fill="#33475B" d="M180.33337,181.31604c-0.93262,0-1.86865-0.32373-2.62646-0.98438
		c-1.66553-1.45166-1.83887-3.97852-0.3877-5.64355c8.50098-9.75488,22.34229-13.21484,34.43896-8.61182
		c2.06494,0.78564,3.10156,3.09619,2.31592,5.16064c-0.78613,2.06445-3.0957,3.10205-5.16064,2.31592
		c-8.98145-3.4165-19.25342-0.84912-25.56299,6.39111C182.55945,180.85168,181.4491,181.31604,180.33337,181.31604z"/>
	<path fill="#33475B" d="M298.79675,181.31604c-1.11621,0-2.22656-0.46436-3.01758-1.37207
		c-6.30859-7.23877-16.58008-9.80811-25.5625-6.39111c-2.06836,0.78564-4.37598-0.25146-5.16113-2.31592
		c-0.78613-2.06445,0.25098-4.375,2.31543-5.16064c12.09961-4.60303,25.93848-1.14307,34.43945,8.61182
		c1.45117,1.66504,1.27832,4.19189-0.3877,5.64355C300.66492,180.99182,299.72839,181.31604,298.79675,181.31604z"/>
	<path fill="#33475B" d="M239.57898,259.37903c-7.3584,0-14.65137-1.90039-21.08984-5.49609
		c-1.92822-1.07715-2.61865-3.51416-1.5415-5.44287c1.07666-1.92871,3.51367-2.62012,5.44238-1.54199
		c5.24902,2.93164,11.19287,4.48096,17.18896,4.48096c6.08105,0,12.0166-1.54492,17.16504-4.46729
		c1.91992-1.08984,4.36328-0.4165,5.45312,1.50391c1.09082,1.9209,0.41699,4.36279-1.50391,5.45361
		C254.34265,257.47375,247.04187,259.37903,239.57898,259.37903z"/>
</g>
</svg>
