<?xml version="1.0" encoding="utf-8"?>
<!-- Generator: Adobe Illustrator 22.1.0, SVG Export Plug-In . SVG Version: 6.00 Build 0)  -->
<svg version="1.1" id="Layer_1" xmlns="http://www.w3.org/2000/svg" xmlns:xlink="http://www.w3.org/1999/xlink" x="0px" y="0px"
	 viewBox="0 0 478.90662 478.90662" enable-background="new 0 0 478.90662 478.90662" xml:space="preserve">
<g id="Idle_14_">
	<g>
		<defs>
			<circle id="SVGID_1_" cx="239.45331" cy="239.45331" r="239.45331"/>
		</defs>
		<clipPath id="SVGID_2_">
			<use xlink:href="#SVGID_1_"  overflow="visible"/>
		</clipPath>
		<g clip-path="url(#SVGID_2_)">
			<g>
				<path fill="#7FD1DE" d="M224.11864,278.11996h30.66936c69.35373,0,125.57602,56.22232,125.57602,125.57605v96.23694H98.5426
					v-96.23694C98.5426,334.34229,154.76491,278.11996,224.11864,278.11996z"/>
				<path fill="#33475B" d="M380.36414,503.93274H98.54237c-2.20898,0-4-1.79102-4-4v-96.23633
					c0-71.44824,58.12743-129.57617,129.57617-129.57617h30.66943c71.44823,0,129.57616,58.12793,129.57616,129.57617v96.23633
					C384.36414,502.14172,382.57312,503.93274,380.36414,503.93274z M102.54237,495.93274h273.82178v-92.23633
					c0-67.03711-54.53906-121.57617-121.57617-121.57617h-30.66943c-67.03711,0-121.57616,54.53906-121.57616,121.57617V495.93274z"
					/>
			</g>
			<g>
				<g>
					<g>
						<line fill="none" x1="169.10745" y1="499.93295" x2="169.10745" y2="433.0675"/>
						<path fill="#33475B" d="M169.1073,503.93274c-2.20898,0-4-1.79102-4-4V433.0675c0-2.20898,1.79102-4,4-4s4,1.79102,4,4
							v66.86523C173.1073,502.14172,171.31628,503.93274,169.1073,503.93274z"/>
					</g>
				</g>
				<g>
					<g>
						<line fill="none" x1="309.79916" y1="499.93295" x2="309.79916" y2="433.0675"/>
						<path fill="#33475B" d="M309.79871,503.93274c-2.20898,0-4-1.79102-4-4V433.0675c0-2.20898,1.79102-4,4-4s4,1.79102,4,4
							v66.86523C313.79871,502.14172,312.00769,503.93274,309.79871,503.93274z"/>
					</g>
				</g>
			</g>
		</g>
	</g>
</g>
<g id="Avatar_14">
	<g>
		<g>
			<path fill="#516F90" d="M135.78754,178.23965c0,33.47144-6.79926,78.17111-10.55817,100.32553
				c-1.44387,8.50992,3.23807,16.89169,11.27116,20.04962c15.56772,6.1199,42.4059,13.26306,69.93987,4.8634"/>
			<path fill="#33475B" d="M179.89099,311.3468c-17.39355,0-33.14453-4.40625-44.854-9.00977
				c-9.72216-3.82129-15.50585-14.10059-13.75146-24.44043c3.92236-23.11719,10.50195-66.80273,10.50195-99.65674
				c0-2.20898,1.79102-4,4-4s4,1.79102,4,4c0,33.43994-6.65039,77.63037-10.61426,100.99463
				c-1.125,6.62793,2.57227,13.21289,8.79053,15.65723c16.52686,6.49805,41.62012,12.59668,67.30957,4.76074
				c2.11133-0.6416,4.34814,0.54492,4.99316,2.65918c0.64453,2.11328-0.5459,4.34863-2.65918,4.99316
				C198.15564,310.18762,188.80603,311.34583,179.89099,311.3468z"/>
		</g>
		<g>
			<path fill="#516F90" d="M343.11908,178.23965c0,33.47144,6.79926,78.17111,10.55817,100.32553
				c1.44388,8.50992-3.23804,16.89169-11.27115,20.04962c-15.56772,6.1199-42.40591,13.26306-69.93988,4.8634"/>
			<path fill="#33475B" d="M299.01648,311.3468c-8.91699,0-18.26367-1.1582-27.7168-4.04199
				c-2.11328-0.64453-3.30371-2.87988-2.65918-4.99316c0.64453-2.1123,2.87695-3.30371,4.99316-2.65918
				c25.68848,7.83594,50.78125,1.73633,67.30859-4.76074c6.21875-2.44434,9.91602-9.02832,8.79199-15.65723
				c-3.96484-23.35938-10.61523-67.54297-10.61523-100.99463c0-2.20898,1.79102-4,4-4s4,1.79102,4,4
				c0,32.86523,6.58008,76.54443,10.50195,99.65674c1.75391,10.34082-4.0293,20.61914-13.75195,24.44043
				C332.16101,306.93958,316.40808,311.3468,299.01648,311.3468z"/>
		</g>
		<g>
			<path fill="#F4A9AD" d="M339.22156,213.97763c-2.73975,1.30005-5.7998,2.04004-9.04004,2.04004
				c-1.04004,0-2.05957-0.07996-3.05957-0.21997c1-0.28003,2.01953-0.54004,3.05957-0.73999
				C333.10193,214.43771,336.12195,214.05771,339.22156,213.97763z"/>
			<path fill="#33475B" d="M330.18152,220.0177c-1.17285,0-2.38867-0.08691-3.61426-0.25879
				c-1.87598-0.26318-3.30957-1.80469-3.43652-3.69434c-0.12598-1.88965,1.08984-3.60889,2.91309-4.11914
				c1.29297-0.36182,2.36816-0.62109,3.38379-0.81592c3.17285-0.6748,6.45898-1.06689,9.69043-1.15039
				c1.93652-0.03955,3.55566,1.23145,3.99414,3.06982c0.43848,1.83789-0.46875,3.73291-2.17676,4.54297
				C337.54187,219.20129,333.92371,220.0177,330.18152,220.0177z"/>
		</g>
		<g>
			<circle fill="#936E63" cx="330.54065" cy="195.10304" r="20.9198"/>
			<path fill="#33475B" d="M330.54089,220.02307c-13.74121,0-24.91992-11.1792-24.91992-24.91992
				s11.17871-24.91992,24.91992-24.91992s24.91992,11.1792,24.91992,24.91992S344.2821,220.02307,330.54089,220.02307z
				 M330.54089,178.18323c-9.33008,0-16.91992,7.59033-16.91992,16.91992s7.58984,16.91992,16.91992,16.91992
				s16.91992-7.59033,16.91992-16.91992S339.87097,178.18323,330.54089,178.18323z"/>
		</g>
		<g>
			<path fill="#936E63" d="M330.7616,171.87766v46.46008c0,50.41992-40.87988,91.29993-91.2998,91.29993
				c-50.43994,0-91.32031-40.88-91.32031-91.29993v-46.46008c0-50.41993,40.88037-91.31995,91.32031-91.31995
				c25.21973,0,48.04004,10.21997,64.56006,26.76001C320.54187,123.83773,330.7616,146.65768,330.7616,171.87766z"/>
			<path fill="#33475B" d="M239.46179,313.63782c-52.55957,0-95.32031-42.75195-95.32031-95.30029v-46.45996
				c0-52.55957,42.76074-95.31982,95.32031-95.31982c25.4668,0,49.39941,9.91992,67.38965,27.93311
				c17.99707,17.99707,27.91016,41.9292,27.91016,67.38672v46.45996C334.7616,270.88586,292.01062,313.63782,239.46179,313.63782z
				 M239.46179,84.55774c-48.14844,0-87.32031,39.17139-87.32031,87.31982v46.45996c0,48.13721,39.17188,87.30029,87.32031,87.30029
				c48.1377,0,87.2998-39.16309,87.2998-87.30029v-46.45996c0-23.32031-9.08008-45.24414-25.56836-61.73145
				C284.71179,93.64465,262.78894,84.55774,239.46179,84.55774z"/>
		</g>
		<path fill="#33475B" d="M239.46179,313.63782c-52.55957,0-95.32031-42.75195-95.32031-95.30029v-46.45996
			c0-52.55957,42.76074-95.31982,95.32031-95.31982c25.4668,0,49.39941,9.91992,67.38965,27.93311
			c17.99707,17.99707,27.91016,41.9292,27.91016,67.38672v46.45996C334.7616,270.88586,292.01062,313.63782,239.46179,313.63782z
			 M239.46179,84.55774c-48.14844,0-87.32031,39.17139-87.32031,87.31982v46.45996c0,48.13721,39.17188,87.30029,87.32031,87.30029
			c48.1377,0,87.2998-39.16309,87.2998-87.30029v-46.45996c0-23.32031-9.08008-45.24414-25.56836-61.73145
			C284.71179,93.64465,262.78894,84.55774,239.46179,84.55774z"/>
		<g>
			<path fill="#936E63" d="M233.11131,195.10304l-7.20993,23.57567c-1.44063,4.71066,2.08295,9.47292,7.00897,9.47292h9.91917"/>
			<path fill="#33475B" d="M242.82996,232.15149h-9.91943c-3.62939,0-6.94922-1.67334-9.10742-4.59082
				c-2.15869-2.91748-2.78809-6.58105-1.72705-10.05176l7.20996-23.57568c0.646-2.11279,2.88184-3.30029,4.99512-2.65527
				c2.1123,0.646,3.30127,2.88232,2.65527,4.99512l-7.20996,23.57568c-0.31201,1.01953-0.12695,2.09619,0.50732,2.95361
				s1.60986,1.34912,2.67676,1.34912h9.91943c2.20898,0,4,1.79102,4,4S245.03894,232.15149,242.82996,232.15149z"/>
		</g>
		<g>
			<path fill="#936E63" d="M148.14148,174.1777v41.83997c-11.55957,0-20.91992-9.35999-20.91992-20.91992
				C127.22156,183.55771,136.58191,174.1777,148.14148,174.1777z"/>
			<path fill="#33475B" d="M148.14148,220.0177c-13.74072,0-24.91991-11.1792-24.91991-24.91992
				s11.17918-24.91992,24.91991-24.91992c2.20898,0,4,1.79102,4,4v41.83984
				C152.14148,218.22668,150.35046,220.0177,148.14148,220.0177z M144.14148,178.6554
				c-7.40576,1.80176-12.91992,8.49023-12.91992,16.44238s5.51416,14.64062,12.91992,16.44238V178.6554z"/>
		</g>
		<g>
			<path fill="#516F90" d="M148.14752,174.1796c18.40002-18.41992,34.76001-27.54004,61.26001-27.67993h0.81995
				c51.58008,0,93.59998-22.28004,93.59998-39.38013l0,0c0,55.80006,26.72009,67.06006,26.72009,67.06006l12.55994,4.22021
				c0.20007-2.62012,0.30005-5.26025,0.30005-7.92017c0-16.13989-3.68005-31.43994-10.23999-45.05981
				c-2.70007-5.62012-6.92004-10.16016-12.02002-13.30029c-5.09998-3.13989-11.14014-4.97998-17.32007-5l0,0l0,0v-0.47998
				c0-12.33984-6.8999-23.67969-17.91992-29.19971c-14-7-29.78003-10.92017-46.45996-10.92017
				c-58.76001,0-106.14001,48.73999-103.88,108c0.03992,1.23999,0.12,2.47998,0.21997,3.71997
				C139.2475,175.6796,143.52753,174.1796,148.14752,174.1796"/>
			<path fill="#33475B" d="M343.1073,182.40002c-0.42871,0-0.8584-0.06885-1.27441-0.2085l-12.55957-4.22021
				c-0.09375-0.03174-0.1875-0.06689-0.2793-0.10547c-1.0791-0.45508-24.18164-10.73877-28.48145-55.73486
				c-5.08887,5.25-12.71191,10.28857-22.4873,14.73242c-19.34082,8.79346-43.41846,13.63623-67.79785,13.63623h-0.81982
				c-23.40967,0.12402-39.25146,7.30811-58.43018,26.50732c-0.75049,0.75098-1.76855,1.17285-2.83008,1.17285
				c-3.6333,0-7.08447,1.13281-9.98047,3.27539c-1.16699,0.86377-2.71143,1.02686-4.03467,0.42627
				c-1.32227-0.60107-2.21484-1.87207-2.33154-3.31982c-0.11816-1.4585-0.19336-2.73926-0.23096-3.91455
				c-1.12988-29.62695,9.55273-57.70166,30.08154-79.02832c20.54541-21.34424,48.17432-33.09912,77.79639-33.09912
				c16.9624,0,33.1958,3.81641,48.24854,11.34278c11.43262,5.72656,18.87695,16.8252,19.98633,29.47412
				c5.45703,0.59912,10.77344,2.42871,15.5625,5.37695c5.88379,3.62305,10.5625,8.80078,13.52832,14.97412
				c7.05566,14.64941,10.63379,30.39355,10.63379,46.79198c0,2.75342-0.10449,5.52051-0.31152,8.2251
				c-0.09375,1.23047-0.75,2.34814-1.7793,3.02979C344.65417,182.17395,343.88367,182.40002,343.1073,182.40002z
				 M332.03308,170.45911l7.34473,2.46777c0.01953-0.81543,0.0293-1.63184,0.0293-2.44727
				c0-15.18652-3.31152-29.7627-9.84277-43.32373c-2.30273-4.79199-5.9375-8.8125-10.51367-11.62988
				c-3.46094-2.13086-7.26074-3.51953-11.16699-4.09863C309.1239,158.07922,330.36316,169.62659,332.03308,170.45911z
				 M239.44763,70.51965c-27.42725,0-53.00928,10.88428-72.0332,30.64697c-18.39502,19.11035-28.25146,44.07422-27.91699,70.55371
				c2.21484-0.82227,4.54639-1.32275,6.94385-1.4834c9.85303-9.70557,18.40771-16.01562,27.58545-20.3667
				c10.45361-4.95605,21.68994-7.29834,35.35986-7.37061h0.84082c49.45898,0,89.59961-21.40869,89.59961-35.37988v-0.47998
				c0-10.95068-6.02051-20.76904-15.71094-25.62305C270.1864,74.05188,255.1571,70.51965,239.44763,70.51965z"/>
		</g>
		<path fill="#7C98B6" d="M163.35632,131.89368c-0.66553,0-1.34033-0.16602-1.96143-0.5166
			c-1.92432-1.08545-2.604-3.52539-1.51855-5.44971c14.19336-25.15576,39.7124-42.2832,68.26367-45.81592
			c2.20215-0.26807,4.18994,1.28613,4.46094,3.47852c0.27148,2.19238-1.28613,4.18945-3.47852,4.46094
			c-26.04443,3.22266-49.32617,18.85156-62.27832,41.80762C166.10876,131.16174,164.75281,131.89368,163.35632,131.89368z"/>
		<g>
			<g>
				<g>
					<path fill="#D19781" d="M292.5191,211.75548h-18.30508c-7.7023,0-13.94626-6.24396-13.94626-13.94624v-19.35863h46.1976
						v19.35863C306.46536,205.51152,300.22141,211.75548,292.5191,211.75548z"/>
					<path fill="#33475B" d="M292.51941,215.75549h-18.30566c-9.89551,0-17.94629-8.05078-17.94629-17.94629v-19.3584
						c0-2.20898,1.79102-4,4-4h46.19824c2.20898,0,4,1.79102,4,4v19.3584
						C310.4657,207.70471,302.41492,215.75549,292.51941,215.75549z M264.26746,182.45081v15.3584
						c0,5.48438,4.46191,9.94629,9.94629,9.94629h18.30566c5.48438,0,9.94629-4.46191,9.94629-9.94629v-15.3584H264.26746z"/>
				</g>
				<circle fill="#33475B" cx="283.36655" cy="195.10304" r="6.46375"/>
				<g>
					<line fill="none" x1="306.46536" y1="178.45061" x2="330.65051" y2="188.6393"/>
					<path fill="#33475B" d="M330.64832,192.64026c-0.51758,0-1.04395-0.10107-1.55078-0.31494l-24.18457-10.18848
						c-2.03613-0.85742-2.99121-3.20312-2.13379-5.23877c0.8584-2.03613,3.2041-2.99121,5.23926-2.1333l24.18457,10.18848
						c2.03613,0.85742,2.99121,3.20312,2.13379,5.23877C333.69226,191.72083,332.20886,192.64026,330.64832,192.64026z"/>
				</g>
			</g>
			<g>
				<g>
					<path fill="#D19781" d="M203.41606,211.75548h-18.30508c-7.7023,0-13.94626-6.24396-13.94626-13.94624v-19.35863h46.19759
						v19.35863C217.3623,205.51152,211.11836,211.75548,203.41606,211.75548z"/>
					<path fill="#33475B" d="M203.41589,215.75549h-18.30469c-9.89551,0-17.94629-8.05078-17.94629-17.94629v-19.3584
						c0-2.20898,1.79102-4,4-4h46.19727c2.20898,0,4,1.79102,4,4v19.3584
						C221.36218,207.70471,213.3114,215.75549,203.41589,215.75549z M175.16492,182.45081v15.3584
						c0,5.48438,4.46191,9.94629,9.94629,9.94629h18.30469c5.48438,0,9.94629-4.46191,9.94629-9.94629v-15.3584H175.16492z"/>
				</g>
				<circle fill="#33475B" cx="194.26352" cy="195.10304" r="6.46375"/>
				<g>
					<line fill="none" x1="148.25255" y1="188.6393" x2="171.16472" y2="178.45061"/>
					<path fill="#33475B" d="M148.25476,192.64026c-1.53271,0-2.99463-0.88525-3.65723-2.37598
						c-0.89795-2.01855,0.01074-4.38232,2.02979-5.27979l22.9126-10.18848c2.01904-0.89941,4.38232,0.01172,5.27979,2.02979
						c0.89795,2.01855-0.01074,4.38232-2.02979,5.27979l-22.9126,10.18848
						C149.34949,192.52893,148.79724,192.64026,148.25476,192.64026z"/>
				</g>
			</g>
			<g>
				<line fill="none" x1="217.3623" y1="178.45061" x2="260.26776" y2="178.45061"/>
				<path fill="#33475B" d="M260.26746,182.45081h-42.90527c-2.20898,0-4-1.79102-4-4s1.79102-4,4-4h42.90527
					c2.20898,0,4,1.79102,4,4S262.47644,182.45081,260.26746,182.45081z"/>
			</g>
		</g>
	</g>
	<path fill="#33475B" d="M180.22156,176.54211c-0.93262,0-1.86865-0.32373-2.62646-0.98438
		c-1.66553-1.45166-1.83887-3.97852-0.3877-5.64355c8.50146-9.75488,22.34131-13.21631,34.43945-8.61182
		c2.06445,0.78564,3.10107,3.09619,2.31543,5.16113c-0.78516,2.06348-3.09619,3.10059-5.16113,2.31543
		c-8.98193-3.41748-19.25342-0.84863-25.5625,6.39111C182.44763,176.07776,181.33728,176.54211,180.22156,176.54211z"/>
	<path fill="#33475B" d="M298.68542,176.54211c-1.11621,0-2.22656-0.46436-3.01758-1.37207
		c-6.31055-7.24023-16.58398-9.80811-25.5625-6.39111c-2.06934,0.78418-4.37598-0.25195-5.16113-2.31543
		c-0.78613-2.06494,0.25098-4.37549,2.31543-5.16113c12.10156-4.60449,25.93848-1.14209,34.43945,8.61182
		c1.45117,1.66504,1.27832,4.19189-0.3877,5.64355C300.55359,176.2179,299.61707,176.54211,298.68542,176.54211z"/>
	<path fill="#33475B" d="M242.05945,259.11926c-7.3584,0-14.65088-1.90039-21.08984-5.49609
		c-1.92871-1.07764-2.61914-3.51416-1.54199-5.44287c1.07764-1.9292,3.51416-2.61816,5.44238-1.54199
		c5.24951,2.93164,11.19336,4.48096,17.18945,4.48096c6.08105,0,12.0166-1.54492,17.16504-4.46729
		c1.9209-1.09033,4.36328-0.41699,5.45312,1.50391c1.09082,1.9209,0.41699,4.36279-1.50391,5.45361
		C256.82312,257.21399,249.52234,259.11926,242.05945,259.11926z"/>
</g>
</svg>
