<?xml version="1.0" encoding="utf-8"?>
<!-- Generator: Adobe Illustrator 22.1.0, SVG Export Plug-In . SVG Version: 6.00 Build 0)  -->
<svg version="1.1" id="Layer_1" xmlns="http://www.w3.org/2000/svg" xmlns:xlink="http://www.w3.org/1999/xlink" x="0px" y="0px"
	 viewBox="0 0 478.90662 478.90662" enable-background="new 0 0 478.90662 478.90662" xml:space="preserve">
<g id="Idle_15_">
	<g>
		<defs>
			<circle id="SVGID_1_" cx="239.45331" cy="239.45331" r="239.45331"/>
		</defs>
		<clipPath id="SVGID_2_">
			<use xlink:href="#SVGID_1_"  overflow="visible"/>
		</clipPath>
		<g clip-path="url(#SVGID_2_)">
			<g>
				<path fill="#7FD1DE" d="M224.11864,278.11996h30.66936c69.35373,0,125.57602,56.22232,125.57602,125.57605v96.23694H98.5426
					v-96.23694C98.5426,334.34229,154.76491,278.11996,224.11864,278.11996z"/>
				<path fill="#33475B" d="M380.36414,503.93274H98.54237c-2.20898,0-4-1.79102-4-4v-96.23633
					c0-71.44824,58.12743-129.57617,129.57617-129.57617h30.66943c71.44823,0,129.57616,58.12793,129.57616,129.57617v96.23633
					C384.36414,502.14172,382.57312,503.93274,380.36414,503.93274z M102.54237,495.93274h273.82178v-92.23633
					c0-67.03711-54.53906-121.57617-121.57617-121.57617h-30.66943c-67.03711,0-121.57616,54.53906-121.57616,121.57617V495.93274z"
					/>
			</g>
			<g>
				<g>
					<g>
						<line fill="none" x1="169.10745" y1="499.93295" x2="169.10745" y2="433.0675"/>
						<path fill="#33475B" d="M169.1073,503.93274c-2.20898,0-4-1.79102-4-4V433.0675c0-2.20898,1.79102-4,4-4s4,1.79102,4,4
							v66.86523C173.1073,502.14172,171.31628,503.93274,169.1073,503.93274z"/>
					</g>
				</g>
				<g>
					<g>
						<line fill="none" x1="309.79916" y1="499.93295" x2="309.79916" y2="433.0675"/>
						<path fill="#33475B" d="M309.79871,503.93274c-2.20898,0-4-1.79102-4-4V433.0675c0-2.20898,1.79102-4,4-4s4,1.79102,4,4
							v66.86523C313.79871,502.14172,312.00769,503.93274,309.79871,503.93274z"/>
					</g>
				</g>
			</g>
		</g>
	</g>
</g>
<g id="Avatar_15">
	<g>
		<g>
			<g>
				<g>
					<g>
						<path fill="#516F90" d="M168.54593,355.23737c-10.6427,0-19.27028,8.62775-19.27028,19.27029
							c0,42.09561,19.27028,64.5466,19.27028,64.5466s19.27043-22.45099,19.27043-64.5466
							C187.81636,363.86511,179.18877,355.23737,168.54593,355.23737z"/>
						<path fill="#33475B" d="M168.54578,443.05383L168.54578,443.05383c-1.1665,0-2.27539-0.50977-3.03516-1.39453
							c-0.82617-0.96289-20.23486-24.06934-20.23486-67.15137c0-12.83105,10.43896-23.27051,23.27002-23.27051
							c12.83154,0,23.27051,10.43945,23.27051,23.27051c0,43.08203-19.40918,66.18848-20.23535,67.15137
							C170.82117,442.54407,169.71228,443.05383,168.54578,443.05383z M168.54578,359.23743
							c-8.41992,0-15.27002,6.85059-15.27002,15.27051c0,20.86719,4.97314,36.58984,9.14502,46.10547
							c2.19971,5.01562,4.41455,8.88477,6.11572,11.54297c5.20117-8.17871,15.27979-27.87012,15.27979-57.64844
							C183.81628,366.08801,176.96619,359.23743,168.54578,359.23743z"/>
					</g>
					<g>
						<path fill="#516F90" d="M191.95244,277.46741l-48.30856-16.01108c-6.00967-1.99179-9.26682-8.4783-7.27499-14.48798v-0.00002
							c1.99181-6.00969,8.4783-9.26682,14.48799-7.27501l48.30855,16.01108c6.00969,1.99182,9.26682,8.4783,7.27501,14.48798
							l-0.00002,0.00003C204.44861,276.20209,197.96213,279.45923,191.95244,277.46741z"/>
						<path fill="#33475B" d="M195.54675,282.0509c-1.60938,0-3.24316-0.25293-4.85254-0.78613l0,0l-48.30859-16.01172
							c-3.9209-1.29883-7.10107-4.04785-8.95459-7.73926s-2.15869-7.8833-0.85889-11.8042
							c1.29932-3.92041,4.04785-7.10059,7.73877-8.9541c3.69189-1.85449,7.88232-2.15918,11.80469-0.85889l48.30811,16.01074
							c8.09375,2.68262,12.49561,11.4502,9.81348,19.54395C208.08826,277.93567,202.03162,282.0509,195.54675,282.0509z
							 M193.21082,273.67102c3.90527,1.29297,8.13818-0.83008,9.43262-4.7373c1.29443-3.90625-0.83008-8.1377-4.73682-9.43262
							l-48.30811-16.01074c-1.89307-0.62744-3.9165-0.48047-5.69727,0.41455c-1.78174,0.89453-3.10791,2.4292-3.73535,4.32178
							s-0.47998,3.91602,0.41455,5.69727c0.89453,1.78223,2.4292,3.1084,4.32129,3.73535L193.21082,273.67102z"/>
					</g>
					<g>
						<path fill="#516F90" d="M191.95244,253.72623l-48.30856-16.01108c-6.00967-1.99181-9.26682-8.4783-7.27499-14.48798v-0.00003
							c1.99181-6.00967,8.4783-9.26682,14.48799-7.27499l48.30855,16.01108c6.00969,1.99181,9.26682,8.4783,7.27501,14.48798
							l-0.00002,0.00003C204.44861,252.46091,197.96213,255.71803,191.95244,253.72623z"/>
						<path fill="#33475B" d="M195.54675,258.30969c-1.60938,0-3.24316-0.25293-4.85254-0.78613l0,0l-48.30859-16.01172
							c-3.9209-1.29932-7.10107-4.04785-8.95459-7.73877c-1.85352-3.69141-2.15869-7.88379-0.85889-11.80469
							c1.29932-3.92041,4.04785-7.10059,7.73926-8.9541c3.69043-1.85303,7.88232-2.15869,11.80371-0.85889l48.30859,16.01074
							c8.09375,2.68311,12.49561,11.4502,9.81348,19.54346C208.08826,254.19446,202.03162,258.30969,195.54675,258.30969z
							 M193.21082,249.92981c3.90527,1.29346,8.13818-0.83105,9.43262-4.73682c1.29443-3.90674-0.83008-8.13818-4.73682-9.43311
							l-48.30811-16.01074c-3.90771-1.29492-8.13867,0.82959-9.43262,4.73633c-0.62744,1.89258-0.47998,3.91602,0.41455,5.69727
							c0.89453,1.78174,2.4292,3.10791,4.32178,3.73535L193.21082,249.92981z"/>
					</g>
					<g>
						<path fill="#516F90" d="M184.08812,299.01456l-36.46468-12.08563c-6.00967-1.99182-9.2668-8.4783-7.27499-14.48798v-0.00003
							c1.99182-6.00967,8.4783-9.26682,14.48799-7.27499l36.46466,12.0856c6.00969,1.99182,9.26682,8.4783,7.27501,14.48801
							h-0.00002C196.58429,297.74924,190.09779,301.00635,184.08812,299.01456z"/>
						<path fill="#33475B" d="M187.6825,303.59778c-1.60938,0-3.24316-0.25293-4.85254-0.78613l0,0l-36.46484-12.08594
							c-8.09375-2.68262-12.49561-11.4502-9.81348-19.54395c1.29932-3.91992,4.04785-7.10059,7.73926-8.9541
							c3.69092-1.85254,7.88232-2.15918,11.8042-0.8584l36.46436,12.08496c8.09375,2.68262,12.49561,11.4502,9.81348,19.54395
							C200.224,299.48157,194.16736,303.59778,187.6825,303.59778z M185.34656,295.2179
							c3.90625,1.29199,8.13818-0.83008,9.43262-4.7373c1.29443-3.90625-0.83008-8.1377-4.73682-9.43262L153.578,268.96301
							c-1.89209-0.62695-3.91602-0.48047-5.69727,0.41406c-1.78174,0.89453-3.1084,2.42969-3.73535,4.32227
							c-1.29443,3.90625,0.83008,8.1377,4.73682,9.43262L185.34656,295.2179z"/>
					</g>
					<g>
						<path fill="#516F90" d="M175.69693,320.38705l-23.56705-7.81091c-6.00967-1.99182-9.26682-8.4783-7.27499-14.48798v-0.00003
							c1.99181-6.00967,8.4783-9.26682,14.48799-7.27499l23.56703,7.81091c6.00969,1.99179,9.26682,8.4783,7.27501,14.48798
							l-0.00002,0.00003C188.1931,319.12173,181.7066,322.37888,175.69693,320.38705z"/>
						<path fill="#33475B" d="M179.31921,324.97668c-1.63721,0-3.28125-0.2627-4.88086-0.79297l-23.56689-7.81055
							c-8.09375-2.68262-12.49561-11.4502-9.81348-19.54395c1.29932-3.91992,4.04785-7.10059,7.73926-8.9541
							c3.69141-1.85254,7.88184-2.15918,11.8042-0.8584l23.56689,7.81055c8.09375,2.68262,12.49561,11.4502,9.81348,19.54395
							c-1.29932,3.91992-4.04785,7.10059-7.73926,8.9541C184.05701,324.422,181.69568,324.97668,179.31921,324.97668z
							 M155.72839,294.22766c-1.14697,0-2.28662,0.26758-3.34131,0.79688c-1.78174,0.89453-3.1084,2.42969-3.73535,4.32227
							c-1.29443,3.90625,0.83008,8.1377,4.73682,9.43262l23.56689,7.81055h0.00049c1.89111,0.62793,3.91553,0.47949,5.69678-0.41406
							c1.78174-0.89453,3.1084-2.42969,3.73535-4.32227c1.29443-3.90625-0.83008-8.1377-4.73682-9.43262l-23.56689-7.81055
							C157.31238,294.35461,156.51843,294.22766,155.72839,294.22766z"/>
					</g>
					<g>
						<path fill="#FAE0B5" d="M178.29913,359.8371h-19.50626c-7.47794,0-13.54001-6.06207-13.54001-13.54001v-19.50626
							c0-7.47794,6.06207-13.53998,13.54001-13.53998h19.50626c7.47794,0,13.53999,6.06204,13.53999,13.53998v19.50626
							C191.83913,353.77502,185.77707,359.8371,178.29913,359.8371z"/>
						<path fill="#33475B" d="M178.29919,363.83704h-19.50635c-9.67139,0-17.54004-7.86816-17.54004-17.54004v-19.50586
							c0-9.67188,7.86865-17.54004,17.54004-17.54004h19.50635c9.67139,0,17.54004,7.86816,17.54004,17.54004V346.297
							C195.83923,355.96887,187.97058,363.83704,178.29919,363.83704z M158.79285,317.2511
							c-5.26025,0-9.54004,4.2793-9.54004,9.54004V346.297c0,5.26074,4.27979,9.54004,9.54004,9.54004h19.50635
							c5.26025,0,9.54004-4.2793,9.54004-9.54004v-19.50586c0-5.26074-4.27979-9.54004-9.54004-9.54004H158.79285z"/>
					</g>
				</g>
				<g>
					<g>
						<path fill="#516F90" d="M310.58176,355.23737c10.6427,0,19.27026,8.62775,19.27026,19.27029
							c0,42.09561-19.27026,64.5466-19.27026,64.5466s-19.27045-22.45099-19.27045-64.5466
							C291.31131,363.86511,299.9389,355.23737,310.58176,355.23737z"/>
						<path fill="#33475B" d="M310.58191,443.05383c-1.16699,0-2.27539-0.50977-3.03516-1.39453
							c-0.82617-0.96289-20.23535-24.06934-20.23535-67.15137c0-12.83105,10.43945-23.27051,23.27051-23.27051
							s23.27051,10.43945,23.27051,23.27051c0,43.08203-19.40918,66.18848-20.23535,67.15137
							C312.8573,442.54407,311.7489,443.05383,310.58191,443.05383z M310.58191,359.23743
							c-8.41992,0-15.27051,6.85059-15.27051,15.27051c0,20.86719,4.97363,36.58984,9.14551,46.10547
							c2.19922,5.0166,4.41406,8.88477,6.11523,11.54297c5.20117-8.17773,15.28027-27.87012,15.28027-57.64844
							C325.85242,366.08801,319.00183,359.23743,310.58191,359.23743z"/>
					</g>
					<g>
						<path fill="#516F90" d="M287.17523,277.46741l48.30856-16.01108c6.00967-1.99179,9.26682-8.4783,7.27499-14.48798v-0.00002
							c-1.99179-6.00969-8.4783-9.26682-14.48798-7.27501l-48.30856,16.01108c-6.00967,1.99182-9.26682,8.4783-7.27499,14.48798
							v0.00003C274.67908,276.20209,281.16556,279.45923,287.17523,277.46741z"/>
						<path fill="#33475B" d="M283.58093,282.0509c-6.48633,0-12.54199-4.11523-14.69043-10.60059
							c-2.68262-8.0918,1.71875-16.85938,9.8125-19.54297l48.30859-16.01074c3.92285-1.30029,8.11426-0.99463,11.80469,0.85889
							c3.69141,1.85352,6.44043,5.03369,7.73926,8.95459c1.2998,3.91992,0.99414,8.1123-0.85938,11.80371
							s-5.0332,6.44043-8.9541,7.73926l-48.30762,16.01172h-0.00098C286.82507,281.79797,285.18933,282.0509,283.58093,282.0509z
							 M287.17566,277.4679h0.00977H287.17566z M331.88464,243.10754c-0.79004,0-1.58398,0.12695-2.35547,0.38281
							l-48.30859,16.01074c-3.90625,1.29492-6.03125,5.52637-4.73633,9.43262c0.62695,1.89258,1.95312,3.42773,3.73535,4.32227
							c1.78125,0.89355,3.80371,1.04297,5.69824,0.41504l48.30762-16.01172c1.89258-0.62695,3.42676-1.95312,4.32129-3.73535
							c0.89551-1.78174,1.04199-3.80469,0.41504-5.69678c-0.62695-1.89307-1.95312-3.42773-3.73535-4.32227
							C334.17175,243.37512,333.0321,243.10754,331.88464,243.10754z"/>
					</g>
					<g>
						<path fill="#516F90" d="M287.17523,253.72623l48.30856-16.01108c6.00967-1.99181,9.26682-8.4783,7.27499-14.48798v-0.00003
							c-1.99179-6.00967-8.4783-9.26682-14.48798-7.27499l-48.30856,16.01108c-6.00967,1.99181-9.26682,8.4783-7.27499,14.48798
							v0.00003C274.67908,252.46091,281.16556,255.71803,287.17523,253.72623z"/>
						<path fill="#33475B" d="M283.58093,258.30969c-6.48633,0-12.54199-4.11523-14.69043-10.60059
							c-2.68262-8.09229,1.71875-16.85938,9.8125-19.54297l48.30859-16.01074c3.92285-1.2998,8.11328-0.99463,11.80469,0.85889
							s6.44043,5.03369,7.73926,8.95459c1.2998,3.92041,0.99414,8.11279-0.85938,11.8042
							c-1.85352,3.69092-5.0332,6.43945-8.95312,7.73877l-48.30859,16.01172h-0.00098
							C286.82507,258.05676,285.18933,258.30969,283.58093,258.30969z M287.17566,253.72668h0.00977H287.17566z
							 M331.88464,219.36633c-0.79004,0-1.58398,0.12695-2.35547,0.38281l-48.30859,16.01074
							c-3.90625,1.29492-6.03125,5.52686-4.73633,9.43262c0.62695,1.89307,1.95312,3.42773,3.73535,4.32227
							c1.78125,0.89551,3.80371,1.04199,5.69824,0.41504l48.30762-16.01172c1.89258-0.62695,3.42676-1.95361,4.32129-3.73535
							c0.89551-1.78125,1.04199-3.80469,0.41504-5.69678c-0.62695-1.89307-1.95312-3.42773-3.73535-4.32227
							C334.17175,219.63391,333.0321,219.36633,331.88464,219.36633z"/>
					</g>
					<g>
						<path fill="#516F90" d="M295.03955,299.01456l36.46469-12.08563c6.00967-1.99182,9.26678-8.4783,7.27499-14.48798v-0.00003
							c-1.99182-6.00967-8.4783-9.26682-14.48801-7.27499l-36.46466,12.0856c-6.00967,1.99182-9.26682,8.4783-7.27499,14.48801l0,0
							C282.5434,297.74924,289.02988,301.00635,295.03955,299.01456z"/>
						<path fill="#33475B" d="M291.44617,303.59778c-6.48633,0-12.54199-4.11426-14.69141-10.59961
							c-2.68262-8.09375,1.71973-16.86035,9.81348-19.54395l36.46387-12.08496c8.09375-2.68262,16.86035,1.71875,19.54395,9.8125
							c2.68262,8.09375-1.71973,16.86035-9.81348,19.54395l-36.46387,12.08594h-0.00098
							C294.69031,303.34485,293.05457,303.59778,291.44617,303.59778z M295.03992,299.01477h0.00977H295.03992z
							 M327.89246,268.58313c-0.77734,0-1.56641,0.12207-2.34277,0.37988l-36.46387,12.08496
							c-3.90723,1.29492-6.03223,5.52637-4.7373,9.43262c1.29492,3.90723,5.53125,6.03027,9.43262,4.7373l36.46387-12.08594
							c3.90723-1.29492,6.03223-5.52637,4.7373-9.43262C333.94519,270.56946,331.02234,268.58313,327.89246,268.58313z"/>
					</g>
					<g>
						<path fill="#516F90" d="M303.43076,320.38705l23.56705-7.81091c6.00967-1.99182,9.26678-8.4783,7.27499-14.48798v-0.00003
							c-1.99182-6.00967-8.4783-9.26682-14.48801-7.27499l-23.56702,7.81091c-6.0097,1.99179-9.26682,8.4783-7.27502,14.48798
							l0.00003,0.00003C290.93457,319.12173,297.42108,322.37888,303.43076,320.38705z"/>
						<path fill="#33475B" d="M299.80847,324.97668c-2.37695,0-4.7373-0.55371-6.92383-1.65137
							c-3.69141-1.85352-6.43945-5.03418-7.73828-8.95508c-2.68262-8.09277,1.71875-16.86035,9.8125-19.54297l23.56738-7.81055
							c3.92188-1.2998,8.1123-0.99512,11.80469,0.8584c3.69141,1.85352,6.43945,5.03418,7.73828,8.95508
							c2.68262,8.09277-1.71875,16.86035-9.8125,19.54297l-23.56738,7.81055
							C303.08972,324.71399,301.44519,324.97668,299.80847,324.97668z M323.39929,294.22766
							c-0.79004,0-1.58398,0.12695-2.35547,0.38281l-23.56738,7.81055c-3.90625,1.29492-6.03125,5.52637-4.73633,9.43262
							c0.62695,1.89258,1.95312,3.42773,3.73438,4.32227c1.78223,0.89453,3.80566,1.04199,5.69727,0.41406l0,0l23.56738-7.81055
							c3.90625-1.29492,6.03125-5.52637,4.73633-9.43262c-0.62695-1.89258-1.95312-3.42773-3.73438-4.32227
							C325.6864,294.49524,324.54675,294.22766,323.39929,294.22766z"/>
					</g>
					<g>
						<path fill="#FAE0B5" d="M300.82855,359.8371h19.50626c7.47794,0,13.54001-6.06207,13.54001-13.54001v-19.50626
							c0-7.47794-6.06207-13.53998-13.54001-13.53998h-19.50626c-7.47794,0-13.54001,6.06204-13.54001,13.53998v19.50626
							C287.28854,353.77502,293.35062,359.8371,300.82855,359.8371z"/>
						<path fill="#33475B" d="M320.33484,363.83704h-19.50586c-9.67188,0-17.54004-7.86816-17.54004-17.54004v-19.50586
							c0-9.67188,7.86816-17.54004,17.54004-17.54004h19.50586c9.67188,0,17.54004,7.86816,17.54004,17.54004V346.297
							C337.87488,355.96887,330.00671,363.83704,320.33484,363.83704z M300.82898,317.2511
							c-5.26074,0-9.54004,4.2793-9.54004,9.54004V346.297c0,5.26074,4.2793,9.54004,9.54004,9.54004h19.50586
							c5.26074,0,9.54004-4.2793,9.54004-9.54004v-19.50586c0-5.26074-4.2793-9.54004-9.54004-9.54004H300.82898z"/>
					</g>
				</g>
			</g>
			<g>
				<g>
					<path fill="#F4A9AD" d="M339.33386,213.32173c-2.73975,1.30005-5.7998,2.04004-9.04004,2.04004
						c-1.04004,0-2.05957-0.07996-3.05957-0.21997c1-0.28003,2.01953-0.54004,3.05957-0.73999
						C333.21423,213.78181,336.23425,213.40181,339.33386,213.32173z"/>
					<path fill="#33475B" d="M330.29382,219.36194c-1.17285,0-2.38867-0.08691-3.61426-0.25879
						c-1.87598-0.26318-3.30957-1.80469-3.43652-3.69434c-0.12598-1.88965,1.08984-3.60889,2.91309-4.11914
						c1.29297-0.36182,2.36816-0.62109,3.38379-0.81592c3.17285-0.6748,6.45898-1.06689,9.69043-1.15039
						c1.93164-0.05566,3.55566,1.23193,3.99414,3.06982s-0.46875,3.73291-2.17676,4.54297
						C337.65417,218.54553,334.03601,219.36194,330.29382,219.36194z"/>
				</g>
				<g>
					<circle fill="#936E63" cx="330.65295" cy="194.44714" r="20.9198"/>
					<path fill="#33475B" d="M330.6532,219.36682c-13.74121,0-24.91992-11.17871-24.91992-24.91943
						s11.17871-24.91992,24.91992-24.91992s24.91992,11.1792,24.91992,24.91992S344.39441,219.36682,330.6532,219.36682z
						 M330.6532,177.52747c-9.33008,0-16.91992,7.59033-16.91992,16.91992s7.58984,16.91943,16.91992,16.91943
						s16.91992-7.58984,16.91992-16.91943S339.98328,177.52747,330.6532,177.52747z"/>
				</g>
				<g>
					<path fill="#936E63" d="M330.8739,171.22176v46.46008c0,50.41991-40.87988,91.29991-91.2998,91.29991
						c-50.43994,0-91.32031-40.88-91.32031-91.29991v-46.46008c0-50.41992,40.88037-91.31995,91.32031-91.31995
						c25.21973,0,48.04004,10.21997,64.56006,26.76001C320.65417,123.18184,330.8739,146.00179,330.8739,171.22176z"/>
					<path fill="#33475B" d="M239.5741,312.98157c-52.55957,0-95.32031-42.75098-95.32031-95.2998V171.2218
						c0-52.55957,42.76074-95.31982,95.32031-95.31982c25.4668,0,49.39941,9.92041,67.38965,27.93311
						c17.99707,17.99707,27.91016,41.9292,27.91016,67.38672v46.45996C334.8739,270.23059,292.12292,312.98157,239.5741,312.98157z
						 M239.5741,83.90198c-48.14844,0-87.32031,39.17139-87.32031,87.31982v46.45996c0,48.1377,39.17188,87.2998,87.32031,87.2998
						c48.1377,0,87.2998-39.16211,87.2998-87.2998V171.2218c0-23.32031-9.08008-45.24365-25.56836-61.73145
						C284.8241,92.98889,262.90125,83.90198,239.5741,83.90198z"/>
				</g>
				<path fill="#33475B" d="M242.94226,231.49573h-9.91943c-3.62939,0-6.94873-1.67334-9.10742-4.59033
					c-2.15869-2.91748-2.78809-6.58154-1.72705-10.05225l7.20996-23.57568c0.646-2.11279,2.8833-3.30029,4.99512-2.65527
					c2.1123,0.646,3.30127,2.88232,2.65527,4.99512l-7.20996,23.5752c-0.31201,1.02002-0.12695,2.09668,0.50732,2.9541
					c0.63477,0.85742,1.61035,1.34912,2.67676,1.34912h9.91943c2.20898,0,4,1.79102,4,4S245.15125,231.49573,242.94226,231.49573z"
					/>
				<g>
					<path fill="#936E63" d="M148.25378,173.5218v41.83997c-11.55957,0-20.91993-9.35999-20.91993-20.91992
						C127.33385,182.90181,136.69421,173.5218,148.25378,173.5218z"/>
					<path fill="#33475B" d="M148.25378,219.36194c-13.74072,0-24.91991-11.1792-24.91991-24.91992
						c0-13.74121,11.17918-24.92041,24.91991-24.92041c2.20898,0,4,1.79102,4,4v41.84033
						C152.25378,217.57092,150.46277,219.36194,148.25378,219.36194z M144.25378,177.99915
						c-7.40576,1.80176-12.91992,8.49023-12.91992,16.44287c0,7.95215,5.51416,14.64062,12.91992,16.44238V177.99915z"/>
				</g>
				<g>
					<path fill="#516F90" d="M148.25983,173.5237c18.40002-18.41992,34.76001-27.54004,61.26001-27.67993h0.81995
						c51.58008,0,93.59998-22.28003,93.59998-39.38013l0,0c0,55.80005,26.72009,67.06006,26.72009,67.06006l12.55994,4.22021
						c0.20007-2.62012,0.30005-5.26025,0.30005-7.92017c0-16.13989-3.68005-31.43994-10.23999-45.05981
						c-2.70007-5.62012-6.92004-10.16016-12.02002-13.30029c-5.09998-3.13989-11.14014-4.97998-17.32007-5l0,0l0,0v-0.47998
						c0-12.33984-6.8999-23.67969-17.91992-29.19971c-14-7-29.78003-10.92017-46.45996-10.92017
						c-58.76001,0-106.14001,48.73999-103.88,108c0.03992,1.23999,0.12,2.47998,0.21997,3.71997
						C139.3598,175.0237,143.63983,173.5237,148.25983,173.5237"/>
					<path fill="#33475B" d="M343.2196,181.74377c-0.42871,0-0.8584-0.06885-1.27441-0.2085l-12.55957-4.22021
						c-0.09375-0.03174-0.1875-0.06689-0.2793-0.10547c-1.0791-0.45508-24.18164-10.73828-28.48145-55.73486
						c-5.08887,5.25049-12.71191,10.28857-22.4873,14.73291c-19.34082,8.79346-43.41846,13.63623-67.79785,13.63623h-0.81982
						c-23.40967,0.12354-39.25146,7.30762-58.43018,26.50684c-0.75049,0.75098-1.76855,1.17285-2.83008,1.17285
						c-3.6333,0-7.08447,1.13281-9.98047,3.27539c-1.16699,0.86377-2.71143,1.02783-4.03467,0.42627
						c-1.32227-0.60107-2.21484-1.87207-2.33154-3.31982c-0.11768-1.45752-0.19336-2.73779-0.23096-3.91406
						c-1.12988-29.62695,9.55273-57.70166,30.08105-79.02832c20.5459-21.34424,48.1748-33.09912,77.79688-33.09912
						c16.96338,0,33.1958,3.81592,48.24854,11.34229c11.43262,5.72656,18.87695,16.8252,19.98633,29.47412
						c5.45703,0.59912,10.77246,2.42822,15.56152,5.37695c5.88477,3.62305,10.56348,8.80078,13.5293,14.97412
						c7.05566,14.64989,10.63379,30.39452,10.63379,46.79247c0,2.75293-0.10449,5.52002-0.31152,8.22461
						c-0.09375,1.23047-0.75,2.34814-1.7793,3.02979C344.76648,181.5177,343.99597,181.74377,343.2196,181.74377z
						 M332.11804,169.79358l7.37207,2.47705c0.01953-0.81494,0.0293-1.63135,0.0293-2.44678
						c0-15.18652-3.31152-29.7627-9.84277-43.32422c-2.30273-4.79199-5.9375-8.8125-10.51367-11.62988
						c-3.46094-2.13086-7.26172-3.51953-11.16797-4.09863C309.22253,157.9762,330.49792,169.02405,332.11804,169.79358z
						 M239.55994,69.86389c-27.42773,0-53.00928,10.88379-72.0332,30.64697c-18.39502,19.11035-28.25098,44.07373-27.91699,70.55322
						c2.21484-0.82227,4.54639-1.32275,6.94385-1.4834c9.85303-9.70605,18.40771-16.01562,27.58545-20.36621
						c10.4541-4.95654,21.68994-7.29834,35.35986-7.37061h0.84082c49.45898,0,89.59961-21.40869,89.59961-35.38037v-0.47998
						c0-10.95068-6.02051-20.76904-15.71094-25.62305C270.29871,73.39563,255.26941,69.86389,239.55994,69.86389z"/>
				</g>
				<path fill="#7C98B6" d="M163.46863,131.23792c-0.66553,0-1.34033-0.16602-1.96143-0.5166
					c-1.92432-1.08594-2.604-3.52539-1.51855-5.44971c14.19336-25.15576,39.7124-42.2832,68.26367-45.81592
					c2.19922-0.26807,4.18994,1.28613,4.46094,3.47852c0.27148,2.19238-1.28613,4.18945-3.47852,4.46094
					c-26.04443,3.22266-49.32617,18.85156-62.27832,41.80762C166.22107,130.50598,164.86511,131.23792,163.46863,131.23792z"/>
			</g>
		</g>
	</g>
	<g>
		<g>
			<path fill="#33475B" d="M206.5527,194.4247c0,6.18381-5.05537,11.2392-11.2392,11.2392
				c-6.18381,0-11.19429-5.05539-11.19429-11.2392c0-6.18382,5.01048-11.19429,11.19429-11.19429
				c1.03807,0,2.07616,0.13554,3.06932,0.45154c-1.26399,0.94771-2.03125,2.48251-2.03125,4.19775
				c0,3.06932,2.48251,5.50664,5.50665,5.50664c1.76042,0,3.29523-0.76726,4.28812-2.03123
				C206.41716,192.30309,206.5527,193.34116,206.5527,194.4247z"/>
			<path fill="#33475B" d="M295.01202,194.4247c0,6.18381-5.05539,11.2392-11.2392,11.2392
				c-6.18384,0-11.19431-5.05539-11.19431-11.2392c0-6.18382,5.01047-11.19429,11.19431-11.19429
				c1.03806,0,2.07614,0.13554,3.06931,0.45154c-1.26398,0.94771-2.03125,2.48251-2.03125,4.19775
				c0,3.06932,2.48251,5.50664,5.50665,5.50664c1.76044,0,3.29523-0.76726,4.28812-2.03123
				C294.87646,192.30309,295.01202,193.34116,295.01202,194.4247z"/>
			<path fill="#33475B" d="M239.57996,259.22473c-7.36035,0-14.65332-1.90039-21.09033-5.49609
				c-1.92871-1.07715-2.61865-3.51416-1.5415-5.44287c1.07715-1.9292,3.51465-2.61865,5.44287-1.5415
				c5.24707,2.93115,11.19141,4.48047,17.18896,4.48047c6.08105,0,12.0166-1.54443,17.16504-4.4668
				c1.9209-1.08936,4.36328-0.41748,5.45312,1.50391c1.09082,1.92139,0.41699,4.36279-1.50391,5.45312
				C254.34363,257.31946,247.04285,259.22473,239.57996,259.22473z"/>
		</g>
	</g>
	<path fill="#33475B" d="M180.33386,181.16223c-0.93262,0-1.86865-0.32373-2.62646-0.98438
		c-1.66553-1.45166-1.83887-3.97852-0.3877-5.64355c8.50146-9.75537,22.34033-13.2168,34.43945-8.61182
		c2.06445,0.78564,3.10107,3.09619,2.31543,5.16113c-0.78516,2.06445-3.09619,3.10059-5.16113,2.31543
		c-8.98145-3.41748-19.25391-0.84863-25.5625,6.39111C182.55994,180.69788,181.44958,181.16223,180.33386,181.16223z"/>
	<path fill="#33475B" d="M298.79773,181.16223c-1.11621,0-2.22656-0.46436-3.01758-1.37207
		c-6.31055-7.24023-16.58398-9.80859-25.5625-6.39111c-2.06934,0.78418-4.37598-0.25195-5.16113-2.31543
		c-0.78613-2.06494,0.25098-4.37549,2.31543-5.16113c12.10156-4.60449,25.93945-1.14209,34.43945,8.61182
		c1.45117,1.66504,1.27832,4.19189-0.3877,5.64355C300.66589,180.83801,299.72937,181.16223,298.79773,181.16223z"/>
</g>
</svg>
