<?xml version="1.0" encoding="utf-8"?>
<!-- Generator: Adobe Illustrator 22.1.0, SVG Export Plug-In . SVG Version: 6.00 Build 0)  -->
<svg version="1.1" id="Layer_1" xmlns="http://www.w3.org/2000/svg" xmlns:xlink="http://www.w3.org/1999/xlink" x="0px" y="0px"
	 viewBox="0 0 478.90662 478.90662" enable-background="new 0 0 478.90662 478.90662" xml:space="preserve">
<g id="Idle_9_">
	<g>
		<defs>
			<circle id="SVGID_1_" cx="239.45331" cy="239.45331" r="239.45331"/>
		</defs>
		<clipPath id="SVGID_2_">
			<use xlink:href="#SVGID_1_"  overflow="visible"/>
		</clipPath>
		<g clip-path="url(#SVGID_2_)">
			<g>
				<path fill="#FD7A59" d="M224.11864,278.11996h30.66936c69.35373,0,125.57602,56.22232,125.57602,125.57605v96.23694H98.5426
					v-96.23694C98.5426,334.34229,154.76491,278.11996,224.11864,278.11996z"/>
				<path fill="#33475B" d="M380.36414,503.93274H98.54237c-2.20898,0-4-1.79102-4-4v-96.23633
					c0-71.44824,58.12743-129.57617,129.57617-129.57617h30.66943c71.44823,0,129.57616,58.12793,129.57616,129.57617v96.23633
					C384.36414,502.14172,382.57312,503.93274,380.36414,503.93274z M102.54237,495.93274h273.82178v-92.23633
					c0-67.03711-54.53906-121.57617-121.57617-121.57617h-30.66943c-67.03711,0-121.57616,54.53906-121.57616,121.57617V495.93274z"
					/>
			</g>
			<g>
				<g>
					<g>
						<line fill="none" x1="169.10745" y1="499.93295" x2="169.10745" y2="433.0675"/>
						<path fill="#33475B" d="M169.1073,503.93274c-2.20898,0-4-1.79102-4-4V433.0675c0-2.20898,1.79102-4,4-4s4,1.79102,4,4
							v66.86523C173.1073,502.14172,171.31628,503.93274,169.1073,503.93274z"/>
					</g>
				</g>
				<g>
					<g>
						<line fill="none" x1="309.79916" y1="499.93295" x2="309.79916" y2="433.0675"/>
						<path fill="#33475B" d="M309.79871,503.93274c-2.20898,0-4-1.79102-4-4V433.0675c0-2.20898,1.79102-4,4-4s4,1.79102,4,4
							v66.86523C313.79871,502.14172,312.00769,503.93274,309.79871,503.93274z"/>
					</g>
				</g>
			</g>
		</g>
	</g>
</g>
<g id="Avatar_9">
	<g>
		<g>
			<path fill="#F4A9AD" d="M339.54666,213.1761c-2.73975,1.30005-5.7998,2.04004-9.04004,2.04004
				c-1.04004,0-2.05957-0.07996-3.05957-0.21997c1-0.28003,2.01953-0.54004,3.05957-0.73999
				C333.42703,213.63618,336.44705,213.25618,339.54666,213.1761z"/>
			<path fill="#33475B" d="M330.50671,219.21594c-1.1748,0-2.39062-0.08691-3.61426-0.2583
				c-1.87598-0.2627-3.30957-1.8042-3.43652-3.69336s1.08887-3.60889,2.91211-4.11963
				c1.28516-0.36035,2.35938-0.61963,3.38281-0.81641c3.17773-0.67529,6.46387-1.06738,9.69238-1.15088
				c1.9248-0.05811,3.55566,1.23193,3.99414,3.06934c0.43945,1.83838-0.46875,3.73291-2.17578,4.54297
				C337.86902,218.39954,334.24988,219.21594,330.50671,219.21594z"/>
		</g>
		<g>
			<circle fill="#AE7E6B" cx="330.86578" cy="194.30153" r="20.9198"/>
			<path fill="#33475B" d="M330.86609,219.22131c-13.74121,0-24.91992-11.1792-24.91992-24.91992
				s11.17871-24.91943,24.91992-24.91943s24.91992,11.17871,24.91992,24.91943S344.6073,219.22131,330.86609,219.22131z
				 M330.86609,177.38196c-9.33008,0-16.91992,7.58984-16.91992,16.91943s7.58984,16.91992,16.91992,16.91992
				s16.91992-7.59033,16.91992-16.91992S340.19617,177.38196,330.86609,177.38196z"/>
		</g>
		<g>
			<path fill="#D19781" d="M331.0867,171.07613v46.46008c0,50.41994-40.87988,91.29994-91.2998,91.29994
				c-50.43994,0-91.32031-40.88-91.32031-91.29994v-46.46008c0-50.41991,40.88037-91.31994,91.32031-91.31994
				c25.21973,0,48.04004,10.21997,64.56006,26.76001C320.86697,123.03622,331.0867,145.85616,331.0867,171.07613z"/>
			<path fill="#33475B" d="M239.78699,312.83606c-52.55957,0-95.32031-42.75098-95.32031-95.2998v-46.45996
				c0-52.55957,42.76074-95.32031,95.32031-95.32031c25.46582,0,49.39844,9.92041,67.38965,27.93359
				c17.99707,17.99707,27.91016,41.9292,27.91016,67.38672v46.45996C335.08679,270.08508,292.33582,312.83606,239.78699,312.83606z
				 M239.78699,83.75598c-48.14844,0-87.32031,39.17188-87.32031,87.32031v46.45996c0,48.1377,39.17188,87.2998,87.32031,87.2998
				c48.1377,0,87.2998-39.16211,87.2998-87.2998v-46.45996c0-23.32031-9.08008-45.24365-25.56836-61.73145
				C285.03699,92.8429,263.11414,83.75598,239.78699,83.75598z"/>
		</g>
		<path fill="#33475B" d="M206.76552,194.27907c0,6.18382-5.05539,11.2392-11.2392,11.2392
			c-6.18382,0-11.19429-5.05537-11.19429-11.2392c0-6.18381,5.01047-11.19429,11.19429-11.19429
			c1.03807,0,2.07614,0.13556,3.06931,0.45155c-1.26398,0.94771-2.03123,2.4825-2.03123,4.19775
			c0,3.06931,2.48251,5.50664,5.50664,5.50664c1.76044,0,3.29523-0.76726,4.28812-2.03123
			C206.62996,192.15747,206.76552,193.19554,206.76552,194.27907z"/>
		<path fill="#33475B" d="M295.22482,194.27907c0,6.18382-5.05539,11.2392-11.2392,11.2392s-11.19427-5.05537-11.19427-11.2392
			c0-6.18381,5.01047-11.19429,11.19427-11.19429c1.03809,0,2.07614,0.13556,3.06931,0.45155
			c-1.26398,0.94771-2.03122,2.4825-2.03122,4.19775c0,3.06931,2.48248,5.50664,5.50662,5.50664
			c1.76044,0,3.29523-0.76726,4.28812-2.03123C295.08926,192.15747,295.22482,193.19554,295.22482,194.27907z"/>
		<g>
			<path fill="#D19781" d="M233.43643,194.30153l-7.20995,23.57567c-1.44061,4.71066,2.08296,9.4729,7.00899,9.4729h9.91917"/>
			<path fill="#33475B" d="M243.15417,231.35022h-9.91895c-3.62891,0-6.94824-1.67334-9.10693-4.59033
				c-2.15869-2.91748-2.78809-6.58154-1.72705-10.05225l7.20996-23.57617c0.64648-2.1123,2.88184-3.2998,4.99512-2.65527
				c2.1123,0.646,3.30127,2.88232,2.65527,4.99512l-7.20996,23.57568c-0.31201,1.02002-0.12695,2.09668,0.50732,2.9541
				c0.63477,0.85742,1.60986,1.34912,2.67627,1.34912h9.91895c2.20898,0,4,1.79102,4,4S245.36316,231.35022,243.15417,231.35022z"/>
		</g>
		<g>
			<circle fill="#D19781" cx="302.0838" cy="233.46169" r="4.07439"/>
		</g>
		<g>
			<path fill="#E0BAAB" d="M160.84695,150.7762c-0.1001,0.02002-0.2002,0.02002-0.30029,0.02002
				c-0.51953,0.0199-1.01953,0.0199-1.51953,0.0199C159.64676,150.81612,160.24686,150.79622,160.84695,150.7762z"/>
			<path fill="#33475B" d="M159.02722,154.81604c-2.20898,0-4-1.79102-4-4s1.79102-4,4-4c0.57422,0,1.13037-0.01904,1.68652-0.0376
				c2.06055-0.08203,3.86719,1.46875,4.10693,3.53711c0.23926,2.06836-1.14746,3.97461-3.18896,4.38281
				c-0.43018,0.08594-0.79395,0.09619-1.00684,0.09766C160.07996,154.81506,159.55359,154.81604,159.02722,154.81604z"/>
		</g>
		<g>
			<path fill="#F4A9AD" d="M127.14677,139.55611c5.54003,4.44006,12.02001,7.74011,19.02001,9.6001
				C139.10672,147.33614,132.64676,144.03621,127.14677,139.55611z"/>
			<path fill="#33475B" d="M146.1698,153.15735c-0.33105,0-0.6665-0.0415-1.00146-0.12744
				c-7.58643-1.95605-14.49951-5.4458-20.54784-10.37207c-1.70801-1.3916-1.96924-3.90186-0.58496-5.61523
				c1.38379-1.71338,3.89355-1.98535,5.61279-0.60742c5.12012,4.10352,11.1875,7.16553,17.5459,8.85547
				c2.12939,0.56592,3.40039,2.74707,2.84229,4.87891C149.56628,151.96643,147.94519,153.15735,146.1698,153.15735z"/>
		</g>
		<g>
			<path fill="#F4A9AD" d="M147.80692,149.55611c1.45996,0.32007,2.91992,0.6001,4.41992,0.80005
				c-0.64014-0.07996-1.27979-0.18005-1.8999-0.28003C149.48709,149.93611,148.62674,149.75618,147.80692,149.55611z"/>
			<path fill="#33475B" d="M152.23181,154.35657c-0.16553,0-0.33252-0.01025-0.50146-0.03125
				c-0.68652-0.08594-1.37256-0.19287-2.0376-0.2998c-0.93213-0.15527-1.87695-0.3501-2.83252-0.58301
				c-2.12842-0.51855-3.44385-2.65283-2.9502-4.7876c0.49365-2.13428,2.60986-3.47705,4.75293-3.00586
				c1.56689,0.34326,2.86719,0.5791,4.0918,0.74219c2.18359,0.29053,3.72119,2.29199,3.43945,4.47705
				C155.93347,152.8844,154.21375,154.35657,152.23181,154.35657z"/>
		</g>
		<g>
			<path fill="#F4A9AD" d="M168.76688,149.85616v0.02002c-0.6001,0.09998-1.18018,0.19995-1.77979,0.29993
				C167.5867,150.07613,168.16678,149.97615,168.76688,149.85616z"/>
			<path fill="#33475B" d="M166.9823,154.17639c-1.9209,0-3.61572-1.3877-3.94092-3.34521
				c-0.03711-0.22217-0.05469-0.44336-0.05469-0.66162c0.00049-1.92041,1.38818-3.61426,3.34521-3.93945l0.47705-0.08057
				c0.39014-0.06689,0.77686-0.13623,1.17285-0.21582c1.17383-0.2373,2.39404,0.06934,3.3208,0.82861
				c0.92676,0.75977,1.46436,1.89551,1.46436,3.09375v0.02002c0,1.95508-1.41357,3.62402-3.3418,3.94531l-1.2959,0.21826
				c-0.16113,0.02783-0.32324,0.05518-0.48682,0.08203C167.42078,154.15881,167.20007,154.17639,166.9823,154.17639z"/>
		</g>
		<g>
			<path fill="#F4A9AD" d="M330.50662,172.49617v0.88c-8.65967-0.07996-16.55957-3.38-22.75977-8.70007
				c-5.6001-4.85999-9.7998-11.35999-11.78027-18.65991C300.1868,161.19612,314.04666,172.35616,330.50662,172.49617z"/>
			<path fill="#33475B" d="M330.50671,177.3761c-0.0127,0-0.02441,0-0.03711,0c-9.16895-0.08496-18.16309-3.51709-25.32715-9.66455
				c-6.36719-5.52441-10.86914-12.65967-13.03613-20.64795c-0.57715-2.12744,0.67578-4.3208,2.80078-4.90479
				c2.12891-0.58252,4.32422,0.6626,4.91309,2.78613c3.82129,13.74512,16.4541,23.43018,30.7207,23.55127
				c2.19531,0.01904,3.96582,1.8042,3.96582,4v0.87988c0,1.06738-0.42676,2.09033-1.18457,2.84131
				C332.57312,176.96008,331.56042,177.3761,330.50671,177.3761z"/>
		</g>
		<g>
			<path fill="#33475B" d="M392.42706,269.87619c-2.35986,24.38-22.17993,44-46.57983,46.16003
				c-21.40015,1.88-40.44019-9.32007-49.88013-26.54004c-0.06006-0.09998-0.11987-0.21997-0.17993-0.32007
				c-3.93994-7.27991-6.17993-15.62-6.17993-24.47998c0-16.14003,7.3999-30.52003,19-39.98
				c5.45996-4.45996,11.85986-7.81995,18.83984-9.71997c1-0.28003,2.02002-0.54004,3.06006-0.73999
				c0.2002-0.04004,0.37988-0.08008,0.58008-0.12c1.27979-0.26001,2.56006-0.46008,3.87988-0.62
				c4.72021-0.58008,9.2002-2.68005,12.12012-6.46008c2.71997-3.5199,4.33984-7.95996,4.33984-12.75989
				c0-5.76001-2.33984-10.9801-6.09985-14.76001c-3.67993-3.68005-8.67993-6-14.23999-6.14001
				c-0.2002-0.02002-0.37988-0.02002-0.58008-0.02002c-8.65991-0.07996-16.56006-3.38-22.76001-8.70007
				c-5.59985-4.85999-9.80005-11.35999-11.78003-18.65991c-0.13989-0.47998-0.27979-0.97998-0.37988-1.46008
				c-0.12012-0.5199-0.22021-1.03992-0.32007-1.55994c-0.09985-0.56006-0.19995-1.12-0.28003-1.69995
				c-0.1001-0.66003-0.15991-1.32007-0.21997-2c-9,3.71997-18.86011,5.75989-29.21997,5.75989
				c-23.69995,0-44.87988-10.71997-58.97998-27.59997c-3.08008,8.47998-8.35986,15.90002-15.14014,21.56005
				c-6.3999,5.38-14.15991,9.17993-22.65991,10.83997c-0.59985,0.12-1.17993,0.21997-1.78003,0.31995
				c-1,0.16003-2,0.30005-3.02002,0.38c-0.43994,0.06006-0.87988,0.1001-1.33984,0.12
				c-0.58008,0.06006-1.18018,0.08008-1.78003,0.1001c-0.6001,0.02002-1.19995,0.03992-1.82007,0.03992h-0.08008
				c-1.27979,0-2.54004-0.05994-3.77979-0.15991c-0.2002,0-0.38013-0.02002-0.58008-0.04004
				c-0.35986-0.02002-0.7002-0.06006-1.04004-0.09998c-0.43994-0.04004-0.87988-0.09998-1.31982-0.16003
				c-0.46021-0.05994-0.90015-0.12-1.34033-0.21997c-1.57983,6.71997-2.41992,13.73999-2.41992,20.93994v46.46008
				c0,34.41992,19.04004,64.38002,47.18018,79.93996c-8.32007,10.12-20.2002,17.35999-34.14014,19.66003
				c-30.58008,5.03992-59.47998-15.66003-64.52002-46.23999c-3.33984-20.16005,4.54004-39.59999,19.06006-51.94008
				c-4.62012-6.64001-7.85986-14.38-9.28003-22.88c-3.57983-21.79993,5.88013-42.71997,22.67993-54.77991
				c-0.77979-0.56006-1.56006-1.14001-2.2998-1.74011c-0.02002,0-0.02002,0-0.02002,0
				c-0.86011-0.69995-1.68018-1.3999-2.47998-2.13989c-2.06006-1.88-3.95996-3.92004-5.68018-6.12
				c-5.33984-6.8601-8.95996-15.14001-10.19995-24.16003c-0.02002-0.04004-0.03979-0.08008-0.02002-0.12
				c-0.07983-0.62-0.15991-1.23999-0.21997-1.88c-0.02002-0.14001-0.04004-0.28003-0.04004-0.42004
				c-0.06006-0.73999-0.12012-1.47998-0.13989-2.21997c-0.04004-0.78003-0.06006-1.56006-0.06006-2.33997
				c0-2.62,0.19995-5.20007,0.57983-7.72009c0.26025-1.65991,0.6001-3.31995,1.02002-4.93994
				c1.74023-6.83997,4.90015-13.09998,9.12012-18.5c0.78003-1,1.6001-1.95996,2.43994-2.90002
				c9.26025-10.19995,22.64014-16.59998,37.50001-16.59998c0.86011,0,1.72021,0.02002,2.58008,0.07996
				c0.54004,0.02002,1.08008,0.04004,1.62012,0.09998c2.21973,0.18005,4.37988,0.5,6.5,0.96008
				c0.54004,0.12,1.08008,0.23999,1.63989,0.38c0.63989,0.15991,1.30005,0.33997,1.95996,0.53992
				c0.63989,0.18005,1.28003,0.38,1.92017,0.6001c0.57983,0.19995,1.13989,0.3999,1.71973,0.62
				c0.80029,0.27991,1.58008,0.62,2.36011,0.95996c0.46021,0.19995,0.90015,0.40002,1.36011,0.62
				c0.41992,0.19995,0.83984,0.40002,1.25977,0.62c0.58008,0.28003,1.14014,0.57996,1.7002,0.90002
				c0.47998,0.26001,0.97998,0.54004,1.43994,0.83997c0.18018,0.09998,0.35986,0.21997,0.54004,0.32007
				c6.64014-8.20007,16.78003-13.46008,28.16016-13.46008c14,0,26.13989,7.94006,32.11987,19.58008
				c4.34009-0.64001,8.76001-0.9801,13.28003-0.9801c51.04004,0,92.17993,42.30005,90.31982,93.76001
				c15.74023,5.62,27.02002,20.68005,27.02002,38.36011c0,9.81995-3.47998,18.83997-9.27979,25.87988
				C383.82721,229.91621,394.48712,248.7762,392.42706,269.87619z"/>
			<path fill="#33475B" d="M152.34021,321.88879c-28.89452,0.00195-54.45214-20.93066-59.2998-50.3418
				c-3.23633-19.53613,3.54785-39.62305,17.78857-53.26709c-4.02441-6.57227-6.71387-13.80322-8.00732-21.54443
				c-3.45166-21.02002,4.22168-41.80127,20.15576-55.44336c-0.36475-0.31885-0.71289-0.63086-1.04688-0.94043
				c-2.21729-2.02295-4.28125-4.24707-6.11475-6.5918c-5.84229-7.50537-9.63037-16.41553-10.97119-25.79053
				c-0.05469-0.23779-0.08789-0.47754-0.1001-0.71777c-0.07129-0.55859-0.13721-1.0957-0.19043-1.64502
				c-0.02393-0.1709-0.05225-0.40479-0.06299-0.67871c-0.0625-0.77441-0.12158-1.54932-0.14258-2.32324
				c-0.03955-0.75195-0.06152-1.6001-0.06152-2.44824c0-2.76855,0.21045-5.56641,0.625-8.31641
				c0.28809-1.83887,0.65771-3.62988,1.10303-5.34717c1.84277-7.24365,5.15527-13.96484,9.84033-19.95947
				c0.75049-0.9624,1.60449-1.97803,2.60889-3.10205c10.35545-11.40674,25.10301-17.93506,40.48289-17.93506
				c1.03125,0,1.9458,0.02783,2.79199,0.08496c0.5415,0.02051,1.14844,0.04443,1.78613,0.1123
				c2.35889,0.19385,4.7041,0.5415,6.97119,1.03418c0.59131,0.13086,1.16602,0.25928,1.76221,0.4082
				c0.69971,0.1748,1.4248,0.37305,2.1499,0.59277c0.63281,0.17676,1.34668,0.3999,2.06006,0.64551
				c0.60449,0.20801,1.1875,0.4165,1.78955,0.64404c0.92139,0.3252,1.76758,0.69385,2.58691,1.05078
				c0.50098,0.21777,0.98291,0.43701,1.48633,0.67773c0.46143,0.21973,0.89795,0.4292,1.33398,0.65625
				c0.34277,0.16602,0.68994,0.34375,1.04834,0.53564c7.57373-7.896,17.96191-12.3623,28.99365-12.3623
				c14.15332,0,27.04248,7.31055,34.28369,19.2583c3.70508-0.4375,7.43262-0.65869,11.11621-0.65869
				c25.85449,0,49.97949,10.25049,67.93164,28.8628c17.29395,17.93066,26.62402,41.34327,26.44629,66.20069
				c16.24121,7.02881,26.96191,23.17529,26.96191,41.05664c0,8.84912-2.64551,17.51025-7.52051,24.82227
				c16.32031,11.40723,25.44727,31.01367,23.48145,51.14648c-2.56543,26.48145-23.67969,47.40723-50.20801,49.75586
				c-22.03809,1.93457-43.11914-9.27148-53.71582-28.55566c-0.04004-0.06934-0.08008-0.14258-0.12012-0.21582
				c-0.03125-0.05273-0.06641-0.11523-0.09473-0.16895c-4.3584-8.05371-6.66211-17.17676-6.66211-26.38379
				c0-16.76855,7.46191-32.4707,20.47168-43.08057c6.0293-4.9248,12.86621-8.45117,20.31738-10.479
				c1.25684-0.35254,2.33105-0.61182,3.35449-0.80859l0.56055-0.11621c1.31641-0.26758,2.68848-0.48682,4.1748-0.66699
				c4.00391-0.4917,7.35742-2.24463,9.43555-4.93408c2.29297-2.96729,3.50488-6.53369,3.50488-10.31494
				c0-4.49902-1.75293-8.73926-4.93555-11.93896c-3.08789-3.08838-7.17676-4.85303-11.50488-4.9624
				c-0.09961-0.00244-0.19824-0.0083-0.29785-0.01855c-0.04688-0.00146-0.1123,0.00049-0.18164,0
				c-9.20605-0.08496-18.2002-3.51709-25.36426-9.66455c-6.36719-5.52588-10.86914-12.66064-13.03613-20.64795
				c-0.13965-0.47803-0.30566-1.07031-0.43457-1.68701c-0.04395-0.1875-0.08691-0.38672-0.12891-0.59326
				c-8.32422,2.8374-17.0459,4.27295-25.99609,4.27295c-21.8877,0-42.61035-8.78809-57.77979-24.31104
				c-3.34619,6.63136-8.03369,12.54736-13.77637,17.3418c-7.01025,5.89258-15.4707,9.93994-24.45703,11.69482
				c-0.62451,0.125-1.24707,0.23291-1.8916,0.33984c-0.88623,0.14209-2.02832,0.3125-3.25,0.41309
				c-0.49316,0.06445-0.97754,0.10791-1.47412,0.13184c-0.6748,0.06494-1.31592,0.08643-1.9375,0.10693
				c-1.95801,0.06543-3.92334,0.04248-6.00586-0.12012c-0.23877-0.00635-0.4668-0.02539-0.70752-0.04932
				c-0.08057-0.00488-0.16016-0.01074-0.23975-0.01709c-1.03613,5.41357-1.56006,10.94434-1.56006,16.48926v46.45996
				c0,31.76221,17.28711,61.05176,45.11572,76.43848c1.04004,0.5752,1.77051,1.58301,1.99316,2.75
				c0.22314,1.16699-0.08447,2.37305-0.83887,3.29102c-9.22021,11.21484-22.21094,18.69629-36.5791,21.06641
				C158.86121,321.6261,155.57849,321.88879,152.34021,321.88879z M129.4281,136.27063
				c0.08203,0.05664,0.16162,0.1167,0.23926,0.1792c0.58301,0.47314,1.25488,0.98047,2.11328,1.59717
				c1.04639,0.75146,1.6665,1.96143,1.6665,3.24951s-0.62061,2.49756-1.66748,3.24902
				c-16.23339,11.65381-24.30566,31.15088-21.06542,50.88281c1.29199,7.73291,4.19189,14.88428,8.61621,21.24316
				c1.17676,1.69092,0.87695,3.99854-0.69287,5.33252c-13.89355,11.80762-20.67725,30.2915-17.7041,48.23926
				c4.67383,28.35645,31.55126,47.61426,59.92333,42.94629c10.88965-1.79688,20.86572-6.97949,28.54004-14.74902
				c-27.83789-17.35059-44.92969-47.90381-44.92969-80.9043v-46.45996c0-7.37354,0.8501-14.72705,2.52588-21.85547
				c0.50293-2.1377,2.63623-3.47119,4.77734-2.98584c0.31934,0.07227,0.64014,0.11084,0.97461,0.15479
				c0.40381,0.05518,0.78418,0.1084,1.16455,0.14307c0.03564,0.00293,0.0708,0.00684,0.10596,0.01074
				c0.25928,0.03076,0.51904,0.06348,0.79395,0.0791c0.05908,0.00293,0.11816,0.00781,0.17676,0.01367l0.21826,0.021
				c0.10693,0,0.17676,0.00342,0.2832,0.01172c1.96191,0.1582,3.73633,0.15869,5.22461,0.10938
				c0.50732-0.01709,1.01367-0.03076,1.50293-0.08105c0.08057-0.0083,0.16162-0.01465,0.24219-0.01807
				c0.33252-0.01416,0.65088-0.04297,0.96875-0.08643c0.07568-0.01025,0.15186-0.01855,0.22803-0.02441
				c0.979-0.07666,1.95752-0.22314,2.7002-0.34229c0.53369-0.08838,1.07129-0.18066,1.62695-0.29199
				c7.67676-1.49951,14.8877-4.94922,20.87207-9.97998c6.33105-5.28516,11.15283-12.15088,13.9541-19.86377
				c0.48877-1.34521,1.65869-2.32666,3.06836-2.57422c1.40576-0.24756,2.84424,0.27686,3.76123,1.37549
				c13.88965,16.62793,34.26807,26.16455,55.90967,26.16455c9.61523,0,18.93262-1.83594,27.69238-5.45703
				c1.17676-0.48584,2.51465-0.38428,3.60449,0.27783c1.08887,0.66113,1.79785,1.80127,1.9082,3.06982
				c0.05273,0.59375,0.10156,1.17041,0.18945,1.74609c0.08105,0.58154,0.17188,1.08887,0.2627,1.59619
				c0.08203,0.42529,0.17188,0.896,0.28027,1.3667c0.09766,0.4624,0.21191,0.86035,0.32324,1.24268
				c1.74414,6.42773,5.48828,12.35352,10.56152,16.75635c5.80078,4.97803,12.7832,7.65283,20.1748,7.72119
				c0.00293,0,0.00684,0,0.01074,0c0.24512,0,0.49219,0.00439,0.75879,0.0249c6.34277,0.19189,12.31934,2.78369,16.84277,7.30713
				c4.69043,4.71631,7.27051,10.95996,7.27051,17.58789c0,5.48828-1.83789,10.88867-5.1748,15.20654
				c-3.39355,4.39258-8.64844,7.22852-14.79688,7.98389c-1.2793,0.15479-2.44531,0.34082-3.57129,0.56982l-0.59277,0.12207
				c-0.82812,0.15967-1.69727,0.37061-2.76465,0.66943c-6.39062,1.73975-12.23145,4.75342-17.38867,8.96582
				c-11.1416,9.08594-17.53027,22.52832-17.53027,36.88281c0,7.86133,1.95996,15.64648,5.66797,22.52051
				c0.04004,0.06934,0.0791,0.1416,0.11816,0.21387c0.02637,0.04199,0.05664,0.09863,0.08105,0.14258
				c9.0625,16.53027,27.12793,26.1377,46.02344,24.47852c22.32617-1.97656,40.79004-20.27441,42.94727-42.56152
				c0-0.00098,0-0.00195,0-0.00293c1.83691-18.81104-7.08984-36.38281-23.29688-45.8584
				c-1.0127-0.5918-1.71387-1.59766-1.91992-2.75146c-0.20508-1.1543,0.10547-2.34033,0.85156-3.24512
				c5.39551-6.54932,8.36719-14.83691,8.36719-23.33643c0-15.4873-9.79199-29.38916-24.36523-34.59277
				c-1.64258-0.58643-2.71582-2.16895-2.65234-3.91162c0.85742-23.71973-7.71875-46.16455-24.14941-63.19922
				c-16.42969-17.03516-38.50977-26.4165-62.17285-26.4165c-4.20703,0-8.47852,0.31543-12.69629,0.9375
				c-1.7002,0.24951-3.35938-0.60645-4.1416-2.12939c-5.5166-10.73731-16.46094-17.40772-28.56201-17.40772
				c-9.75684,0-18.8877,4.36572-25.05176,11.97705c-1.22168,1.50977-3.35352,1.92334-5.05078,0.97949
				c-0.13867-0.07666-0.27734-0.16016-0.41553-0.24512l-0.12598-0.07568c-0.07324-0.0415-0.16992-0.09912-0.24023-0.14502
				c-0.35596-0.23193-0.78711-0.47119-1.1626-0.6748c-0.60107-0.34229-1.07715-0.59424-1.53125-0.81299
				c-0.04004-0.01953-0.08008-0.03955-0.12012-0.06055c-0.36426-0.19141-0.72949-0.36426-1.09375-0.53809
				c-0.44873-0.21387-0.84668-0.39502-1.26318-0.57617c-0.73535-0.3208-1.42676-0.62207-2.0874-0.85303
				c-0.03174-0.01123-0.06299-0.02295-0.09473-0.03467c-0.5415-0.20508-1.06445-0.39209-1.60596-0.57861
				c-0.56494-0.19434-1.13135-0.37158-1.69824-0.53076c-0.67529-0.2041-1.27002-0.36621-1.84717-0.50977
				c-0.52686-0.13232-1.03174-0.24414-1.53662-0.35596c-1.92285-0.41748-3.93311-0.71436-5.9585-0.87891
				c-0.03809-0.00293-0.07666-0.00684-0.11475-0.01074c-0.44336-0.04932-0.88672-0.06201-1.32959-0.07861
				c-0.04395-0.00146-0.0874-0.00391-0.13086-0.00684c-0.67773-0.04736-1.43066-0.07031-2.30127-0.07031
				c-13.12891,0-25.71777,5.57275-34.53857,15.28858c-0.87549,0.98047-1.59619,1.83643-2.24707,2.6709
				c-4.00098,5.11963-6.82568,10.84717-8.39795,17.02686c-0.38428,1.48242-0.70068,3.01514-0.94482,4.57324
				c-0.35156,2.3335-0.53174,4.72998-0.53174,7.10059c0,0.71143,0.01807,1.42285,0.05469,2.13477
				c0.02197,0.76465,0.07812,1.43311,0.13232,2.10107c0.00439,0.05127,0.00732,0.10303,0.00977,0.1543
				c0.00928,0.0708,0.02148,0.16699,0.02588,0.21582c0.05371,0.57031,0.125,1.12354,0.1958,1.67627
				c0.00928,0.05078,0.01709,0.10156,0.02441,0.15283c1.11182,8.08838,4.36035,15.78125,9.39355,22.24757
				c1.55371,1.98682,3.31152,3.88086,5.22021,5.62256C127.98426,135.05432,128.64685,135.62952,129.4281,136.27063z
				 M112.34949,108.75452c-0.00098,0.00146-0.00146,0.00342-0.00244,0.00488
				C112.34803,108.75793,112.34852,108.75598,112.34949,108.75452z M112.73524,107.23547
				c-0.03027,0.5249-0.15918,1.04785-0.38428,1.51562C112.58192,108.27112,112.71033,107.75403,112.73524,107.23547z
				 M112.35047,105.3595l0.00049,0.00049L112.35047,105.3595z M112.48719,104.70715c0,0.00293,0,0.00586,0,0.00879
				C112.48719,104.71301,112.48719,104.71008,112.48719,104.70715z M112.48719,104.69934c0,0.00146,0,0.00293,0,0.00439
				C112.48719,104.70227,112.48719,104.70081,112.48719,104.69934z"/>
		</g>
		<g>
			<path fill="#F4A9AD" d="M108.76688,107.13619c1.23975,9.02002,4.85986,17.29993,10.19971,24.16003
				c-5.07959-6.44006-8.61963-14.14001-10-22.66003C108.887,108.13619,108.80692,107.63619,108.76688,107.13619z"/>
			<path fill="#33475B" d="M118.96912,135.29602c-1.18262,0-2.354-0.52197-3.14307-1.52295
				c-5.63086-7.13867-9.36816-15.60938-10.80811-24.49707c-0.08984-0.56396-0.18604-1.1709-0.23828-1.82031
				c-0.17285-2.1582,1.40283-4.06201,3.55518-4.2959c2.15869-0.23193,4.1001,1.2876,4.39502,3.43213
				c1.11133,8.08789,4.35986,15.78076,9.39307,22.24707c1.354,1.73926,1.0459,4.24609-0.68896,5.60547
				C120.70203,135.01819,119.83241,135.29602,118.96912,135.29602z"/>
		</g>
		<g>
			<path fill="#F4A9AD" d="M160.84695,150.7762c-0.1001,0.02002-0.2002,0.02002-0.30029,0.02002
				c-0.51953,0.0199-1.01953,0.0199-1.51953,0.0199C159.64676,150.81612,160.24686,150.79622,160.84695,150.7762z"/>
			<path fill="#33475B" d="M159.02722,154.81604c-2.20898,0-4-1.79102-4-4s1.79102-4,4-4c0.57422,0,1.13037-0.01904,1.68652-0.0376
				c2.06055-0.08203,3.86719,1.46875,4.10693,3.53711c0.23926,2.06836-1.14746,3.97461-3.18896,4.38281
				c-0.43018,0.08594-0.79395,0.09619-1.00684,0.09766C160.07996,154.81506,159.55359,154.81604,159.02722,154.81604z"/>
		</g>
		<path fill="#33475B" d="M159.02722,154.80823c-2.20898,0-4-1.79102-4-4s1.79102-4,4-4
			c25.72656,0,46.65674-20.93018,46.65674-46.65723c0-2.20898,1.79102-4,4-4s4,1.79102,4,4
			C213.68396,130.28918,189.16492,154.80823,159.02722,154.80823z"/>
		<g>
			<path fill="#AE7E6B" d="M148.46658,173.37617v41.83997c-11.55957,0-20.91991-9.35999-20.91991-20.91992
				C127.54667,182.75618,136.90701,173.37617,148.46658,173.37617z"/>
			<path fill="#33475B" d="M148.46667,219.21594c-13.74072,0-24.91991-11.1792-24.91991-24.91992
				s11.17918-24.91992,24.91991-24.91992c2.20898,0,4,1.79102,4,4v41.83984
				C152.46667,217.42493,150.67566,219.21594,148.46667,219.21594z M144.46667,177.85364
				c-7.40576,1.80176-12.91992,8.49023-12.91992,16.44238s5.51416,14.64062,12.91992,16.44238V177.85364z"/>
		</g>
		<g>
			<path fill="#F4A9AD" d="M185.54718,57.03622c5.48959,3.93564,12.13466,6.93686,19.13554,8.74918
				c5.2132,1.34955,10.62369,2.03984,15.90129,1.96582"/>
			<path fill="#33475B" d="M219.79773,71.75647c-5.31641,0-10.7334-0.70508-16.11768-2.09863
				c-7.56885-1.95947-14.64502-5.19971-20.46338-9.37061c-1.79541-1.28711-2.20752-3.78613-0.92041-5.58154
				c1.28809-1.79443,3.78564-2.20654,5.58154-0.92041c5.0249,3.60254,11.18262,6.41309,17.80713,8.12744
				c4.97754,1.28906,9.97217,1.91211,14.84277,1.83887c2.1792-0.03613,4.0249,1.73438,4.05566,3.94336
				c0.03125,2.20898-1.73438,4.0249-3.94336,4.05566C220.35974,71.75452,220.07849,71.75647,219.79773,71.75647z"/>
		</g>
		<path fill="#9AACC2" d="M126.61317,104.151c-2.20898,0-4-1.79102-4-4c0-20.07861,16.33544-36.41358,36.41405-36.41358
			c2.20898,0,4,1.79102,4,4s-1.79102,4-4,4c-15.66748,0-28.41406,12.74609-28.41406,28.41357
			C130.61316,102.35999,128.82214,104.151,126.61317,104.151z"/>
		<path fill="#516F90" d="M306.45593,268.71301c-2.20898,0-4-1.79102-4-4c0-21.33252,17.35547-38.68799,38.68848-38.68799
			c2.20898,0,4,1.79102,4,4s-1.79102,4-4,4c-16.92188,0-30.68848,13.7666-30.68848,30.68799
			C310.45593,266.922,308.66492,268.71301,306.45593,268.71301z"/>
		<path fill="#516F90" d="M114.81922,273.51379c-1.83203,0-3.48389-1.2666-3.8999-3.12891
			c-2.35889-10.55762-0.16016-21.70459,6.0332-30.58057c1.26367-1.81201,3.75781-2.25586,5.56885-0.9917
			c1.81201,1.26367,2.25586,3.75732,0.9917,5.56885c-4.9126,7.04199-6.65723,15.88428-4.78613,24.25928
			c0.48145,2.15625-0.87549,4.29395-3.03174,4.77539C115.40174,273.48254,115.10828,273.51379,114.81922,273.51379z"/>
		<path fill="#516F90" d="M268.35437,132.75647c-27.62109,0-44.4834-16.86328-45.31299-17.7124
			c-1.54443-1.57959-1.51611-4.11182,0.06348-5.65625c1.57959-1.54395,4.10791-1.51562,5.65137,0.05859
			c0.89404,0.9043,21.54541,21.30762,54.32959,13.54492c2.15039-0.51318,4.30566,0.8208,4.81445,2.97021
			c0.50879,2.14989-0.82129,4.30518-2.9707,4.81396C279.05261,132.1676,273.51453,132.75647,268.35437,132.75647z"/>
		<path fill="#516F90" d="M265.27429,114.84387c-15.01465,0-23.77148-8.40234-24.16797-8.79102
			c-1.57812-1.54688-1.60303-4.0791-0.05664-5.65674c1.54199-1.57178,4.06348-1.60205,5.6416-0.0708
			c0.35742,0.34082,8.28027,7.7168,21.91699,6.34961c2.19922-0.22168,4.15918,1.38184,4.37988,3.58057
			c0.21973,2.19824-1.38281,4.15869-3.58105,4.37939C267.9823,114.77795,266.60242,114.84387,265.27429,114.84387z"/>
		<path fill="#516F90" d="M307.22351,95.23254c-0.88672,0-1.77734-0.29248-2.51855-0.89453
			c-12.78711-10.37988-28.91895-16.09619-45.42285-16.09619c-2.20898,0-4-1.79102-4-4s1.79102-4,4-4
			c18.33398,0,36.25586,6.35156,50.46387,17.88525c1.71582,1.39209,1.97754,3.91113,0.58496,5.62646
			C309.54089,94.72717,308.3866,95.23254,307.22351,95.23254z"/>
		<path fill="#516F90" d="M330.86804,128.41223c-1.63574,0-3.16992-1.01074-3.76074-2.63721
			c-2.28516-6.30176-5.44824-12.25977-9.40039-17.70801c-1.29688-1.78857-0.89844-4.28955,0.88965-5.58643
			c1.78711-1.29688,4.28809-0.89941,5.58691,0.88916c4.38965,6.05322,7.9043,12.67334,10.44531,19.67773
			c0.75293,2.07666-0.32031,4.37061-2.39648,5.12402C331.7821,128.33459,331.32117,128.41223,330.86804,128.41223z"/>
	</g>
	<path fill="#33475B" d="M180.54675,181.01624c-0.93262,0-1.86865-0.32373-2.62646-0.98438
		c-1.66553-1.45166-1.83887-3.97852-0.3877-5.64404c8.50098-9.75342,22.34229-13.21436,34.43896-8.61084
		c2.06494,0.78564,3.10156,3.09619,2.31592,5.16064c-0.78613,2.06445-3.09619,3.10205-5.16064,2.31592
		c-8.98291-3.41748-19.25391-0.84912-25.56299,6.39062C182.77283,180.55188,181.66248,181.01624,180.54675,181.01624z"/>
	<path fill="#33475B" d="M299.01062,181.01624c-1.11621,0-2.22656-0.46436-3.01758-1.37207
		c-6.31055-7.23975-16.58496-9.80811-25.5625-6.39062c-2.06934,0.78564-4.37598-0.25146-5.16113-2.31543
		c-0.78613-2.06494,0.25098-4.37549,2.31543-5.16113c12.09668-4.60449,25.9375-1.14355,34.43945,8.61084
		c1.45117,1.66553,1.27832,4.19238-0.3877,5.64404C300.87878,180.69202,299.94226,181.01624,299.01062,181.01624z"/>
	<g>
		<path fill="#D19781" d="M258.93225,250.09088c-5.65016,3.20691-12.21684,4.98839-19.13957,4.98839
			c-6.97368,0-13.48909-1.83243-19.13956-4.98839"/>
		<path fill="#33475B" d="M239.79285,259.07922c-7.36035,0-14.65332-1.90039-21.09033-5.49609
			c-1.92871-1.07715-2.61865-3.51416-1.5415-5.44287c1.07764-1.92871,3.51514-2.61768,5.44287-1.5415
			c5.24707,2.93115,11.19141,4.48047,17.18896,4.48047c6.08105,0,12.0166-1.54443,17.16504-4.4668
			c1.91992-1.08984,4.36328-0.4165,5.45312,1.50391c1.09082,1.92139,0.41699,4.36279-1.50391,5.45312
			C254.55652,257.17395,247.25574,259.07922,239.79285,259.07922z"/>
	</g>
</g>
</svg>
