<?xml version="1.0" encoding="utf-8"?>
<!-- Generator: Adobe Illustrator 22.1.0, SVG Export Plug-In . SVG Version: 6.00 Build 0)  -->
<svg version="1.1" id="Layer_1" xmlns="http://www.w3.org/2000/svg" xmlns:xlink="http://www.w3.org/1999/xlink" x="0px" y="0px"
	 viewBox="0 0 478.90662 478.90662" enable-background="new 0 0 478.90662 478.90662" xml:space="preserve">
<g id="Idle_5_">
	<g>
		<defs>
			<circle id="SVGID_1_" cx="239.45331" cy="239.45331" r="239.45331"/>
		</defs>
		<clipPath id="SVGID_2_">
			<use xlink:href="#SVGID_1_"  overflow="visible"/>
		</clipPath>
		<g clip-path="url(#SVGID_2_)">
			<g>
				<path fill="#B4BBE8" d="M224.11864,278.11996h30.66936c69.35373,0,125.57602,56.22232,125.57602,125.57605v96.23694H98.5426
					v-96.23694C98.5426,334.34229,154.76491,278.11996,224.11864,278.11996z"/>
				<path fill="#33475B" d="M380.36414,503.93274H98.54237c-2.20898,0-4-1.79102-4-4v-96.23633
					c0-71.44824,58.12743-129.57617,129.57617-129.57617h30.66943c71.44823,0,129.57616,58.12793,129.57616,129.57617v96.23633
					C384.36414,502.14172,382.57312,503.93274,380.36414,503.93274z M102.54237,495.93274h273.82178v-92.23633
					c0-67.03711-54.53906-121.57617-121.57617-121.57617h-30.66943c-67.03711,0-121.57616,54.53906-121.57616,121.57617V495.93274z"
					/>
			</g>
			<g>
				<g>
					<g>
						<line fill="none" x1="169.10745" y1="499.93295" x2="169.10745" y2="433.0675"/>
						<path fill="#33475B" d="M169.1073,503.93274c-2.20898,0-4-1.79102-4-4V433.0675c0-2.20898,1.79102-4,4-4s4,1.79102,4,4
							v66.86523C173.1073,502.14172,171.31628,503.93274,169.1073,503.93274z"/>
					</g>
				</g>
				<g>
					<g>
						<line fill="none" x1="309.79916" y1="499.93295" x2="309.79916" y2="433.0675"/>
						<path fill="#33475B" d="M309.79871,503.93274c-2.20898,0-4-1.79102-4-4V433.0675c0-2.20898,1.79102-4,4-4s4,1.79102,4,4
							v66.86523C313.79871,502.14172,312.00769,503.93274,309.79871,503.93274z"/>
					</g>
				</g>
			</g>
		</g>
	</g>
</g>
<g id="Avatar_5">
	<g>
		<path fill="#EAF0F6" d="M317.8717,209.89714H161.25819c-15.55055,0-28.15677-12.60622-28.15677-28.15677v-22.28444
			c0-27.31134,22.14021-49.45155,49.45155-49.45155h114.02396c27.31134,0,49.45154,22.14021,49.45154,49.45155v22.28444
			C346.02847,197.29092,333.42227,209.89714,317.8717,209.89714z"/>
		<path fill="#33475B" d="M317.87195,213.89709H161.25818c-17.73145,0-32.15674-14.42529-32.15674-32.15674v-22.28418
			c0-29.47314,23.97852-53.45166,53.45166-53.45166h114.02393c29.47266,0,53.45117,23.97852,53.45117,53.45166v22.28418
			C350.0282,199.4718,335.60339,213.89709,317.87195,213.89709z M182.5531,114.00452
			c-25.06201,0-45.45166,20.38965-45.45166,45.45166v22.28418c0,13.31982,10.83643,24.15674,24.15674,24.15674h156.61377
			c13.31934,0,24.15625-10.83691,24.15625-24.15674v-22.28418c0-25.06201-20.38965-45.45166-45.45117-45.45166H182.5531z"/>
	</g>
	<g>
		<circle fill="#D19781" cx="330.65231" cy="194.60146" r="20.9198"/>
		<path fill="#33475B" d="M330.65222,219.52112c-13.74121,0-24.91992-11.17871-24.91992-24.91943
			s11.17871-24.91992,24.91992-24.91992s24.91992,11.1792,24.91992,24.91992S344.39343,219.52112,330.65222,219.52112z
			 M330.65222,177.68176c-9.33008,0-16.91992,7.59033-16.91992,16.91992s7.58984,16.91943,16.91992,16.91943
			s16.91992-7.58984,16.91992-16.91943S339.9823,177.68176,330.65222,177.68176z"/>
	</g>
	<g>
		<circle fill="#D19781" cx="148.25432" cy="194.60146" r="20.9198"/>
		<path fill="#33475B" d="M148.25427,219.52112c-13.74072,0-24.91991-11.17871-24.91991-24.91943
			s11.17918-24.91992,24.91991-24.91992s24.91992,11.1792,24.91992,24.91992S161.995,219.52112,148.25427,219.52112z
			 M148.25427,177.68176c-9.32959,0-16.91992,7.59033-16.91992,16.91992s7.59033,16.91943,16.91992,16.91943
			s16.91992-7.58984,16.91992-16.91943S157.58386,177.68176,148.25427,177.68176z"/>
	</g>
	<g>
		<path fill="#D19781" d="M239.56505,309.13751h-0.00018c-50.42943,0-91.31055-40.88113-91.31055-91.31055v-46.45103
			c0-50.42941,40.88112-91.31053,91.31055-91.31053h0.00018c50.42943,0,91.31053,40.88112,91.31053,91.31053v46.45103
			C330.87558,268.25638,289.99448,309.13751,239.56505,309.13751z"/>
		<path fill="#33475B" d="M239.56482,313.13782c-52.5542,0-95.31055-42.75684-95.31055-95.31104V171.3761
			c0-52.5542,42.75635-95.31055,95.31055-95.31055s95.31104,42.75635,95.31104,95.31055v46.45068
			C334.87585,270.38098,292.11902,313.13782,239.56482,313.13782z M239.56482,84.06555
			c-48.14307,0-87.31055,39.16748-87.31055,87.31055v46.45068c0,48.14307,39.16748,87.31104,87.31055,87.31104
			s87.31104-39.16797,87.31104-87.31104V171.3761C326.87585,123.23303,287.70789,84.06555,239.56482,84.06555z"/>
	</g>
	<path fill="#33475B" d="M206.55203,194.57899c0,6.18382-5.05537,11.2392-11.23918,11.2392
		c-6.18382,0-11.19429-5.05537-11.19429-11.2392c0-6.18381,5.01047-11.19429,11.19429-11.19429
		c1.03807,0,2.07614,0.13554,3.06931,0.45155c-1.26398,0.94771-2.03123,2.4825-2.03123,4.19775
		c0,3.06931,2.4825,5.50664,5.50664,5.50664c1.76044,0,3.29523-0.76726,4.28812-2.03125
		C206.41649,192.4574,206.55203,193.49547,206.55203,194.57899z"/>
	<path fill="#33475B" d="M295.01135,194.57899c0,6.18382-5.05539,11.2392-11.2392,11.2392s-11.19427-5.05537-11.19427-11.2392
		c0-6.18381,5.01047-11.19429,11.19427-11.19429c1.03809,0,2.07614,0.13554,3.06931,0.45155
		c-1.26398,0.94771-2.03122,2.4825-2.03122,4.19775c0,3.06931,2.48248,5.50664,5.50662,5.50664
		c1.76044,0,3.29523-0.76726,4.28812-2.03125C294.87579,192.4574,295.01135,193.49547,295.01135,194.57899z"/>
	<path fill="#33475B" d="M242.94128,231.65002h-9.91943c-3.62891,0-6.94824-1.67334-9.10693-4.59033
		c-2.15869-2.91748-2.78809-6.58154-1.72705-10.05225l7.20996-23.57568c0.646-2.11279,2.88379-3.30127,4.99512-2.65527
		c2.1123,0.646,3.30127,2.88232,2.65527,4.99512l-7.20996,23.5752c-0.31201,1.02002-0.12695,2.09668,0.50732,2.9541
		c0.63477,0.85742,1.60986,1.34912,2.67627,1.34912h9.91943c2.20898,0,4,1.79102,4,4S245.15027,231.65002,242.94128,231.65002z"/>
	<path fill="#AE7E6B" d="M195.33533,224.35071c-8.47461,0-16.37451-3.79834-21.6748-10.4209
		c-1.38037-1.7251-1.10107-4.24219,0.62354-5.62256c1.72559-1.38037,4.24316-1.1001,5.62256,0.62354
		c3.77393,4.71533,9.39746,7.41992,15.42871,7.41992c6.11377,0,11.78516-2.76514,15.56006-7.58594
		c1.36182-1.73877,3.87549-2.0459,5.61523-0.68359c1.73975,1.36182,2.04541,3.87598,0.68359,5.61523
		C211.89294,220.46741,203.92566,224.35071,195.33533,224.35071z"/>
	<path fill="#AE7E6B" d="M283.7157,224.35071c-8.47363,0-16.37402-3.79834-21.6748-10.4209
		c-1.37988-1.72461-1.10156-4.2417,0.62305-5.62256c1.72754-1.38135,4.24316-1.10107,5.62305,0.62354
		c3.77441,4.71533,9.39746,7.41992,15.42871,7.41992c6.11426,0,11.78516-2.76514,15.56055-7.58643
		c1.36133-1.73877,3.87598-2.04541,5.61523-0.68311c1.73926,1.36182,2.0459,3.87598,0.68359,5.61572
		C300.27332,220.46741,292.30554,224.35071,283.7157,224.35071z"/>
	<path fill="#FFFFFF" d="M204.19958,109.70959c-1.41748,0-2.79102-0.75537-3.5166-2.08838
		c-1.05615-1.94043-0.33984-4.36963,1.60059-5.42578c6.60596-3.59619,13.68018-6.20898,21.02588-7.76611
		c2.16602-0.45947,4.28418,0.92236,4.74268,3.0835c0.45801,2.16113-0.92236,4.28467-3.0835,4.74268
		c-6.58838,1.39648-12.93408,3.74023-18.85986,6.96631C205.50134,109.55237,204.84607,109.70959,204.19958,109.70959z"/>
	<path fill="#FFFFFF" d="M168.51794,153.76624c-0.37549,0-0.75781-0.05322-1.13672-0.16553
		c-2.11816-0.62695-3.32715-2.85254-2.7002-4.9707c4.05615-13.70361,11.8291-26.04639,22.47852-35.69385
		c1.63818-1.48389,4.16699-1.35791,5.6499,0.27881c1.4834,1.63721,1.3584,4.16699-0.27881,5.6499
		c-9.56152,8.66211-16.53906,19.73975-20.17871,32.03564C171.83728,152.63977,170.24451,153.76624,168.51794,153.76624z"/>
	<g>
		<circle fill="#AE7E6B" cx="278.8819" cy="121.27218" r="4.07439"/>
		<circle fill="#AE7E6B" cx="269.23834" cy="131.18916" r="4.07439"/>
		<circle fill="#AE7E6B" cx="282.9563" cy="133.49535" r="4.07439"/>
	</g>
	<path fill="#EAF0F6" d="M180.33337,181.31653c-0.93262,0-1.86865-0.32373-2.62646-0.98438
		c-1.66553-1.45166-1.83887-3.97852-0.3877-5.64355c8.50098-9.75439,22.34229-13.21533,34.43896-8.61182
		c2.06494,0.78564,3.10156,3.09619,2.31592,5.16064c-0.78613,2.06445-3.0957,3.10156-5.16064,2.31592
		c-8.98145-3.41699-19.25342-0.84912-25.56299,6.39111C182.55945,180.85217,181.4491,181.31653,180.33337,181.31653z"/>
	<path fill="#EAF0F6" d="M298.79675,181.31653c-1.11621,0-2.22656-0.46436-3.01758-1.37207
		c-6.30859-7.23926-16.58008-9.80664-25.5625-6.39111c-2.06836,0.78516-4.37598-0.25146-5.16113-2.31592
		c-0.78613-2.06445,0.25098-4.375,2.31543-5.16064c12.09961-4.60352,25.93848-1.14258,34.43945,8.61182
		c1.45117,1.66504,1.27832,4.19189-0.3877,5.64355C300.66492,180.99231,299.72839,181.31653,298.79675,181.31653z"/>
	<g>
		<path fill="#D19781" d="M258.71878,250.39081c-5.65016,3.20691-12.21684,4.98839-19.13957,4.98839
			c-6.97368,0-13.48909-1.83243-19.13956-4.98839"/>
		<path fill="#33475B" d="M239.57898,259.37903c-7.36035,0-14.65283-1.90039-21.08984-5.49609
			c-1.92871-1.07715-2.61865-3.51416-1.5415-5.44287c1.07764-1.92871,3.51514-2.61719,5.44287-1.5415
			c5.24707,2.93115,11.19092,4.48047,17.18848,4.48047c6.08105,0,12.0166-1.54443,17.16504-4.4668
			c1.91992-1.09033,4.36328-0.41699,5.45312,1.50391c1.09082,1.92139,0.41699,4.36328-1.50391,5.45312
			C254.34265,257.47375,247.04187,259.37903,239.57898,259.37903z"/>
	</g>
</g>
</svg>
