<?xml version="1.0" encoding="utf-8"?>
<!-- Generator: Adobe Illustrator 22.1.0, SVG Export Plug-In . SVG Version: 6.00 Build 0)  -->
<svg version="1.1" id="Layer_1" xmlns="http://www.w3.org/2000/svg" xmlns:xlink="http://www.w3.org/1999/xlink" x="0px" y="0px"
	 viewBox="0 0 478.90662 478.90662" enable-background="new 0 0 478.90662 478.90662" xml:space="preserve">
<g id="Idle_3_">
	<g>
		<defs>
			<circle id="SVGID_1_" cx="239.45331" cy="239.45331" r="239.45331"/>
		</defs>
		<clipPath id="SVGID_2_">
			<use xlink:href="#SVGID_1_"  overflow="visible"/>
		</clipPath>
		<g clip-path="url(#SVGID_2_)">
			<g>
				<path fill="#F5C26B" d="M224.11864,278.11996h30.66936c69.35373,0,125.57602,56.22232,125.57602,125.57605v96.23694H98.5426
					v-96.23694C98.5426,334.34229,154.76491,278.11996,224.11864,278.11996z"/>
				<path fill="#33475B" d="M380.36414,503.93274H98.54237c-2.20898,0-4-1.79102-4-4v-96.23633
					c0-71.44824,58.12743-129.57617,129.57617-129.57617h30.66943c71.44823,0,129.57616,58.12793,129.57616,129.57617v96.23633
					C384.36414,502.14172,382.57312,503.93274,380.36414,503.93274z M102.54237,495.93274h273.82178v-92.23633
					c0-67.03711-54.53906-121.57617-121.57617-121.57617h-30.66943c-67.03711,0-121.57616,54.53906-121.57616,121.57617V495.93274z"
					/>
			</g>
			<g>
				<g>
					<g>
						<line fill="none" x1="169.10745" y1="499.93295" x2="169.10745" y2="433.0675"/>
						<path fill="#33475B" d="M169.1073,503.93274c-2.20898,0-4-1.79102-4-4V433.0675c0-2.20898,1.79102-4,4-4s4,1.79102,4,4
							v66.86523C173.1073,502.14172,171.31628,503.93274,169.1073,503.93274z"/>
					</g>
				</g>
				<g>
					<g>
						<line fill="none" x1="309.79916" y1="499.93295" x2="309.79916" y2="433.0675"/>
						<path fill="#33475B" d="M309.79871,503.93274c-2.20898,0-4-1.79102-4-4V433.0675c0-2.20898,1.79102-4,4-4s4,1.79102,4,4
							v66.86523C313.79871,502.14172,312.00769,503.93274,309.79871,503.93274z"/>
					</g>
				</g>
			</g>
		</g>
	</g>
</g>
<g id="Avatar_3">
	<g>
		<g>
			<g>
				<circle fill="#D19781" cx="330.22321" cy="194.60146" r="20.9198"/>
				<path fill="#33475B" d="M330.22351,219.52112c-13.74121,0-24.91992-11.17871-24.91992-24.91943
					s11.17871-24.91992,24.91992-24.91992s24.91992,11.1792,24.91992,24.91992S343.96472,219.52112,330.22351,219.52112z
					 M330.22351,177.68176c-9.33008,0-16.91992,7.59033-16.91992,16.91992s7.58984,16.91943,16.91992,16.91943
					s16.91992-7.58984,16.91992-16.91943S339.55359,177.68176,330.22351,177.68176z"/>
			</g>
			<g>
				<circle fill="#D19781" cx="147.82521" cy="194.60146" r="20.9198"/>
				<path fill="#33475B" d="M147.82507,219.52112c-13.74072,0-24.91943-11.17871-24.91943-24.91943
					s11.1787-24.91992,24.91943-24.91992s24.91992,11.1792,24.91992,24.91992S161.5658,219.52112,147.82507,219.52112z
					 M147.82507,177.68176c-9.32959,0-16.91943,7.59033-16.91943,16.91992s7.58984,16.91943,16.91943,16.91943
					s16.91992-7.58984,16.91992-16.91943S157.15466,177.68176,147.82507,177.68176z"/>
			</g>
			<g>
				<path fill="#E0BAAB" d="M239.13594,309.13751h-0.00018c-50.42943,0-91.31055-40.88113-91.31055-91.31055v-46.45103
					c0-50.42941,40.88112-91.31053,91.31055-91.31053h0.00018c50.42943,0,91.31053,40.88112,91.31053,91.31053v46.45103
					C330.44647,268.25638,289.56537,309.13751,239.13594,309.13751z"/>
				<path fill="#33475B" d="M239.13611,313.13782c-52.55469,0-95.31104-42.75684-95.31104-95.31104V171.3761
					c0-52.5542,42.75635-95.31055,95.31055-95.31055c52.55469,0,95.31055,42.75635,95.31055,95.31055v46.45068
					C334.44617,270.38098,291.69031,313.13782,239.13611,313.13782z M239.13611,84.06555
					c-48.14355,0-87.31104,39.16748-87.31104,87.31055v46.45068c0,48.14307,39.16748,87.31104,87.31055,87.31104h0.00049
					c48.14307,0,87.31006-39.16797,87.31006-87.31104V171.3761C326.44617,123.23303,287.27917,84.06555,239.13611,84.06555z"/>
			</g>
			<g>
				<path fill="#E0BAAB" d="M232.79384,194.60146l-7.20993,23.57567c-1.44061,4.71066,2.08296,9.4729,7.00899,9.4729h9.91917"/>
				<path fill="#33475B" d="M242.5116,231.65002h-9.91895c-3.62891,0-6.94824-1.67334-9.10693-4.59033
					c-2.15869-2.91748-2.78809-6.58154-1.72705-10.05225l7.20996-23.57568c0.646-2.11279,2.88428-3.30127,4.99512-2.65527
					c2.1123,0.646,3.30127,2.88232,2.65527,4.99512l-7.20996,23.5752c-0.31201,1.02002-0.12695,2.09668,0.50732,2.9541
					c0.63477,0.85742,1.60986,1.34912,2.67627,1.34912h9.91895c2.20898,0,4,1.79102,4,4S244.72058,231.65002,242.5116,231.65002z"/>
			</g>
			<g>
				<circle fill="#D19781" cx="172.81941" cy="218.75615" r="4.07439"/>
				<circle fill="#D19781" cx="180.9682" cy="228.39513" r="4.07439"/>
			</g>
			<g>
				<circle fill="#D19781" cx="297.36682" cy="221.53844" r="4.07439"/>
				<circle fill="#D19781" cx="287.72327" cy="231.45543" r="4.07439"/>
				<circle fill="#D19781" cx="301.44122" cy="233.76161" r="4.07439"/>
			</g>
			<g>
				<path fill="#AE7E6B" d="M246.54541,61.1376H174.0226c-14.69055,0-28.77943-5.8358-39.16724-16.2236l-2.70204-2.70205
					c-6.0482-6.0482-16.38969-1.76462-16.38969,6.78883V61.1376v23.99414c0,33.08582,26.82137,59.9072,59.9072,59.9072h113.89302
					h0.00003c17.93909,0,33.39532,12.63676,36.96021,30.21806l3.92239,19.34438v-49.56244v-0.00027
					C330.44647,98.70139,292.88269,61.1376,246.54541,61.1376z"/>
				<path fill="#33475B" d="M330.44226,198.6012c-1.88184,0-3.53516-1.32471-3.91602-3.20508l-3.92188-19.34424
					c-3.1748-15.65234-17.07031-27.01318-33.04004-27.01318H175.67078c-35.23877,0-63.90722-28.66846-63.90722-63.90674V49.00061
					c0-5.60547,3.21729-10.42041,8.39648-12.56543c5.17773-2.14648,10.85789-1.01611,14.82178,2.94873l2.70215,2.70166
					c9.70605,9.70654,22.61182,15.05225,36.33887,15.05225h72.52295c48.46875,0,87.90039,39.43213,87.90039,87.90088v49.5625
					c0,2.05469-1.55664,3.7749-3.60059,3.97998C330.71082,198.59485,330.57605,198.6012,330.44226,198.6012z M125.46522,43.38342
					c-1.02979,0-1.86182,0.28467-2.24414,0.44287c-0.81104,0.33594-3.45752,1.70215-3.45752,5.17432v36.13135
					c0,30.82715,25.08007,55.90674,55.90722,55.90674h113.89258c15.70801,0,29.79297,8.88135,36.88281,22.25244V145.0387
					c0-44.05762-35.84277-79.90088-79.90039-79.90088h-72.52295c-15.86377,0-30.77832-6.17774-41.99609-17.39502l-2.70215-2.70215
					C128.02625,43.74182,126.62098,43.38342,125.46522,43.38342z"/>
			</g>
			<path fill="#D9A896" d="M225.18738,82.67688h-24.53076c-2.20898,0-4-1.79102-4-4s1.79102-4,4-4h24.53076c2.20898,0,4,1.79102,4,4
				S227.39636,82.67688,225.18738,82.67688z"/>
			<path fill="#D9A896" d="M305.52917,121.20374c-1.45117,0-2.85156-0.79297-3.56055-2.17285
				c-11.52148-22.42383-34.32617-36.354-59.51562-36.354c-2.20898,0-4-1.79102-4-4s1.79102-4,4-4
				c28.20215,0,53.7334,15.59473,66.63086,40.69775c1.00977,1.96533,0.23535,4.37646-1.72949,5.38623
				C306.76941,121.06116,306.14441,121.20374,305.52917,121.20374z"/>
			<path fill="#33475B" d="M206.12292,131.83557h-25.66602c-21.2002,0-39.97461-12.72217-47.83008-32.41064
				c-0.81836-2.05225,0.18115-4.37891,2.23291-5.19775c2.0542-0.81836,4.37939,0.18164,5.19775,2.23291
				c6.63477,16.62988,22.49268,27.37549,40.39941,27.37549h25.66602c2.20898,0,4,1.79102,4,4
				C210.12292,130.04456,208.33191,131.83557,206.12292,131.83557z"/>
		</g>
		<path fill="#33475B" d="M206.12292,194.57899c0,6.18382-5.05537,11.2392-11.23918,11.2392
			c-6.18382,0-11.19429-5.05537-11.19429-11.2392c0-6.18381,5.01047-11.19429,11.19429-11.19429
			c1.03807,0,2.07614,0.13554,3.06931,0.45155c-1.26398,0.94771-2.03123,2.4825-2.03123,4.19775
			c0,3.06931,2.48251,5.50664,5.50664,5.50664c1.76044,0,3.29523-0.76726,4.28812-2.03125
			C205.98738,192.4574,206.12292,193.49547,206.12292,194.57899z"/>
		<path fill="#33475B" d="M294.58224,194.57899c0,6.18382-5.05539,11.2392-11.2392,11.2392s-11.19427-5.05537-11.19427-11.2392
			c0-6.18381,5.01047-11.19429,11.19427-11.19429c1.03809,0,2.07614,0.13554,3.06931,0.45155
			c-1.26398,0.94771-2.03122,2.4825-2.03122,4.19775c0,3.06931,2.48248,5.50664,5.50662,5.50664
			c1.76044,0,3.29523-0.76726,4.28812-2.03125C294.44669,192.4574,294.58224,193.49547,294.58224,194.57899z"/>
	</g>
	<path fill="#33475B" d="M179.90417,181.31653c-0.93262,0-1.86865-0.32373-2.62646-0.98438
		c-1.66553-1.45166-1.83887-3.97852-0.3877-5.64355c8.50098-9.75439,22.34082-13.21533,34.43896-8.61182
		c2.06494,0.78564,3.10156,3.09619,2.31592,5.16064s-3.09521,3.10156-5.16064,2.31592
		c-8.98291-3.41699-19.25391-0.84912-25.56299,6.39111C182.13025,180.85217,181.0199,181.31653,179.90417,181.31653z"/>
	<path fill="#33475B" d="M298.36804,181.31653c-1.11621,0-2.22656-0.46436-3.01758-1.37207
		c-6.30957-7.24023-16.58398-9.80908-25.5625-6.39111c-2.06836,0.78516-4.37598-0.25146-5.16113-2.31543
		c-0.78613-2.06494,0.25098-4.37549,2.31543-5.16113c12.10059-4.60498,25.93848-1.14209,34.43945,8.61182
		c1.45117,1.66504,1.27832,4.19189-0.3877,5.64355C300.23621,180.99231,299.29968,181.31653,298.36804,181.31653z"/>
	<path fill="#33475B" d="M239.15027,259.37903c-7.36035,0-14.65332-1.90039-21.09033-5.49609
		c-1.92871-1.07715-2.61865-3.51416-1.5415-5.44287s3.51465-2.61719,5.44287-1.5415
		c5.24707,2.93115,11.19141,4.48047,17.18896,4.48047c6.08105,0,12.0166-1.54443,17.16504-4.4668
		c1.91992-1.09033,4.36328-0.41699,5.45312,1.50391c1.09082,1.92139,0.41699,4.36328-1.50391,5.45312
		C253.91394,257.47375,246.61316,259.37903,239.15027,259.37903z"/>
</g>
</svg>
