<?xml version="1.0" encoding="utf-8"?>
<!-- Generator: Adobe Illustrator 22.1.0, SVG Export Plug-In . SVG Version: 6.00 Build 0)  -->
<svg version="1.1" id="Layer_1" xmlns="http://www.w3.org/2000/svg" xmlns:xlink="http://www.w3.org/1999/xlink" x="0px" y="0px"
	 viewBox="0 0 478.90662 522.22144" enable-background="new 0 0 478.90662 522.22144" xml:space="preserve">
<g id="Idle_1_">
	<g>
		<defs>
			<circle id="SVGID_1_" cx="239.45331" cy="282.76813" r="239.45331"/>
		</defs>
		<clipPath id="SVGID_2_">
			<use xlink:href="#SVGID_1_"  overflow="visible"/>
		</clipPath>
		<g clip-path="url(#SVGID_2_)">
			<g>
				<path fill="#7FD1DE" d="M224.11864,321.43481h30.66936c69.35373,0,125.57602,56.22229,125.57602,125.57602v96.23691H98.5426
					v-96.23691C98.5426,377.6571,154.76491,321.43481,224.11864,321.43481z"/>
				<path fill="#33475B" d="M380.36414,547.24756H98.54237c-2.20898,0-4-1.79102-4-4v-96.23633
					c0-71.44824,58.12743-129.57617,129.57617-129.57617h30.66943c71.44823,0,129.57616,58.12793,129.57616,129.57617v96.23633
					C384.36414,545.45654,382.57312,547.24756,380.36414,547.24756z M102.54237,539.24756h273.82178v-92.23633
					c0-67.03711-54.53906-121.57617-121.57617-121.57617h-30.66943c-67.03711,0-121.57616,54.53906-121.57616,121.57617V539.24756z"
					/>
			</g>
			<g>
				<g>
					<g>
						<line fill="none" x1="169.10745" y1="543.24774" x2="169.10745" y2="476.38232"/>
						<path fill="#33475B" d="M169.1073,547.24756c-2.20898,0-4-1.79102-4-4v-66.86523c0-2.20898,1.79102-4,4-4s4,1.79102,4,4
							v66.86523C173.1073,545.45654,171.31628,547.24756,169.1073,547.24756z"/>
					</g>
				</g>
				<g>
					<g>
						<line fill="none" x1="309.79916" y1="543.24774" x2="309.79916" y2="476.38232"/>
						<path fill="#33475B" d="M309.79871,547.24756c-2.20898,0-4-1.79102-4-4v-66.86523c0-2.20898,1.79102-4,4-4s4,1.79102,4,4
							v66.86523C313.79871,545.45654,312.00769,547.24756,309.79871,547.24756z"/>
					</g>
				</g>
			</g>
		</g>
	</g>
</g>
<g id="Avatar_2">
	<g>
		<g>
			<circle fill="#AE7E6B" cx="330.65231" cy="259.38058" r="20.9198"/>
			<path fill="#33475B" d="M330.65222,284.30029c-13.74121,0-24.91992-11.1792-24.91992-24.91992
				s11.17871-24.91943,24.91992-24.91943s24.91992,11.17871,24.91992,24.91943S344.39343,284.30029,330.65222,284.30029z
				 M330.65222,242.46094c-9.33008,0-16.91992,7.58984-16.91992,16.91943s7.58984,16.91992,16.91992,16.91992
				s16.91992-7.59033,16.91992-16.91992S339.9823,242.46094,330.65222,242.46094z"/>
		</g>
		<g>
			<circle fill="#AE7E6B" cx="148.25432" cy="259.38058" r="20.9198"/>
			<path fill="#33475B" d="M148.25427,284.30029c-13.74072,0-24.91991-11.1792-24.91991-24.91992
				s11.17918-24.91943,24.91991-24.91943s24.91992,11.17871,24.91992,24.91943S161.995,284.30029,148.25427,284.30029z
				 M148.25427,242.46094c-9.32959,0-16.91992,7.58984-16.91992,16.91943s7.59033,16.91992,16.91992,16.91992
				s16.91992-7.59033,16.91992-16.91992S157.58386,242.46094,148.25427,242.46094z"/>
		</g>
		<g>
			<path fill="#D19781" d="M239.56505,352.17383h-0.00018c-50.42943,0-91.31055-40.88113-91.31055-91.31055v-46.45103
				c0-50.42943,40.88112-91.31054,91.31055-91.31054h0.00018c50.42943,0,91.31053,40.88111,91.31053,91.31054v46.45103
				C330.87558,311.29269,289.99448,352.17383,239.56505,352.17383z"/>
			<path fill="#33475B" d="M239.56482,356.17334c-52.5542,0-95.31055-42.75586-95.31055-95.31006v-46.45117
				c0-52.5542,42.75635-95.31055,95.31055-95.31055s95.31104,42.75635,95.31104,95.31055v46.45117
				C334.87585,313.41748,292.11902,356.17334,239.56482,356.17334z M239.56482,127.10156
				c-48.14307,0-87.31055,39.16748-87.31055,87.31055v46.45117c0,48.14307,39.16748,87.31006,87.31055,87.31006
				s87.31104-39.16699,87.31104-87.31006v-46.45117C326.87585,166.26904,287.70789,127.10156,239.56482,127.10156z"/>
		</g>
		<path fill="#33475B" d="M206.55203,237.61531c0,6.18381-5.05537,11.2392-11.23918,11.2392
			c-6.18382,0-11.19429-5.05539-11.19429-11.2392c0-6.18382,5.01047-11.19429,11.19429-11.19429
			c1.03807,0,2.07614,0.13554,3.06931,0.45154c-1.26398,0.94771-2.03123,2.48251-2.03123,4.19775
			c0,3.06932,2.4825,5.50664,5.50664,5.50664c1.76044,0,3.29523-0.76726,4.28812-2.03123
			C206.41649,235.4937,206.55203,236.53177,206.55203,237.61531z"/>
		<path fill="#33475B" d="M295.01135,237.61531c0,6.18381-5.05539,11.2392-11.2392,11.2392s-11.19427-5.05539-11.19427-11.2392
			c0-6.18382,5.01047-11.19429,11.19427-11.19429c1.03809,0,2.07614,0.13554,3.06931,0.45154
			c-1.26398,0.94771-2.03122,2.48251-2.03122,4.19775c0,3.06932,2.48248,5.50664,5.50662,5.50664
			c1.76044,0,3.29523-0.76726,4.28812-2.03123C294.87579,235.4937,295.01135,236.53177,295.01135,237.61531z"/>
		<g>
			<path fill="#D19781" d="M233.22295,237.63776l-7.20993,23.57568c-1.44061,4.71066,2.08295,9.4729,7.00899,9.4729h9.91917"/>
			<path fill="#33475B" d="M242.94128,274.68701h-9.91943c-3.62891,0-6.94824-1.67383-9.10693-4.59082
				c-2.15869-2.91748-2.78809-6.58154-1.72705-10.05225l7.20996-23.57617c0.646-2.1123,2.88086-3.30176,4.99512-2.65527
				c2.1123,0.646,3.30127,2.88232,2.65527,4.99512l-7.20996,23.57568c-0.31201,1.02002-0.12695,2.09668,0.50732,2.9541
				c0.63477,0.85742,1.60986,1.34912,2.67627,1.34912h9.91943c2.20898,0,4,1.79102,4,4S245.15027,274.68701,242.94128,274.68701z"/>
		</g>
	</g>
	<g>
		<circle fill="#B4BBE8" cx="278.86398" cy="46.28375" r="42.28387"/>
		<path fill="#33475B" d="M278.86414,92.56738c-25.52148,0-46.28418-20.7627-46.28418-46.28369S253.34265,0,278.86414,0
			s46.28418,20.7627,46.28418,46.28369S304.38562,92.56738,278.86414,92.56738z M278.86414,8
			c-21.11035,0-38.28418,17.17383-38.28418,38.28369s17.17383,38.28369,38.28418,38.28369s38.28418-17.17383,38.28418-38.28369
			S299.97449,8,278.86414,8z"/>
	</g>
	<g>
		<path fill="#B4BBE8" d="M291.8967,43.97925c32.30951,0,58.53101,19.52485,58.53101,43.61587
			c0,4.69622-1.00006,9.26238-2.91342,13.48033c21.65558,18.65536,34.78821,43.007,34.78821,69.61998
			c0,32.87486-20.04663,62.31448-51.52994,81.83932v-39.78914c0-25.22141-10.21921-48.05118-26.74356-64.57553
			s-39.35413-26.74356-64.57555-26.74356c-50.44308,0-91.31909,40.87627-91.31909,91.31909v39.78914
			c-31.48331-19.52484-51.53023-48.96446-51.53023-81.83932c0-20.30756,7.65345-39.26735,20.87289-55.40022
			c-2.17427-6.13158-3.34819-12.52378-3.34819-19.17716c0-41.22396,44.83333-74.62063,100.14647-74.62063
			c15.78719,0,30.71718,2.72151,43.99063,7.57076"/>
		<path fill="#33475B" d="M330.77234,256.53467c-0.66992,0-1.33984-0.16797-1.94531-0.50488
			c-1.26855-0.70605-2.05469-2.04346-2.05469-3.49512v-39.78906c0-23.32812-9.08105-45.25732-25.57129-61.74707
			c-16.49023-16.49023-38.41895-25.57178-61.74756-25.57178c-48.14795,0-87.31934,39.1709-87.31934,87.31885v39.78906
			c0,1.45166-0.78662,2.78955-2.05469,3.49512c-1.26953,0.70508-2.81934,0.66943-4.05371-0.0957
			c-33.9502-21.05518-53.42188-52.12354-53.42188-85.23877c0-19.83447,7.04102-39.2207,20.38721-56.20068
			c-1.90039-6.02246-2.8623-12.19385-2.8623-18.37646c0-43.35156,46.71972-78.62061,104.14648-78.62061
			c15.90967,0,31.17188,2.62891,45.36328,7.81348c2.07422,0.7583,3.14258,3.05518,2.38379,5.12988
			c-0.75781,2.0752-3.05664,3.1416-5.12988,2.38428c-13.30859-4.8623-27.64697-7.32764-42.61719-7.32764
			c-53.01514,0-96.14648,31.68018-96.14648,70.62061c0,6.00293,1.04932,12.00537,3.11816,17.84033
			c0.46826,1.32031,0.21143,2.78857-0.67627,3.87207c-13.0625,15.94141-19.9668,34.22218-19.9668,52.86475
			c0,28.27295,15.77002,55.06982,43.53027,74.42334v-32.37305c0-52.55908,42.76025-95.31885,95.31934-95.31885
			c25.46533,0,49.40283,9.91357,67.40381,27.91455c18.00098,18.00146,27.91504,41.93896,27.91504,67.4043v32.37305
			c27.76074-19.35352,43.53027-46.15039,43.53027-74.42334c0-24.38672-11.86133-48.03516-33.39844-66.58887
			c-1.3457-1.15918-1.76562-3.06592-1.03223-4.68311c1.69531-3.73926,2.55566-7.71924,2.55566-11.82812
			c0-21.84424-24.46289-39.61621-54.53125-39.61621c-2.20898,0-4-1.79102-4-4s1.79102-4,4-4
			c34.47949,0,62.53125,21.36035,62.53125,47.61621c0,4.25098-0.71973,8.39355-2.14258,12.354
			c21.96094,19.80957,34.01758,44.83203,34.01758,70.74609c0,33.11572-19.47168,64.18359-53.42188,85.23877
			C332.23621,256.3335,331.50476,256.53467,330.77234,256.53467z"/>
	</g>
	<path fill="#33475B" d="M96.60096,174.68262c-2.20898,0-4-1.79102-4-4c0-33.29639,19.64209-64.46826,53.89013-85.52295
		c1.88135-1.15771,4.34521-0.57031,5.50244,1.31299c1.15674,1.88184,0.56934,4.34521-1.31299,5.50244
		c-31.82616,19.56592-50.07957,48.25342-50.07957,78.70752C100.60096,172.8916,98.80994,174.68262,96.60096,174.68262z"/>
	<path fill="#33475B" d="M382.30554,174.68262c-2.20898,0-4-1.79102-4-4c0-38.79883-29.2168-73.82666-76.24805-91.41504
		c-2.06934-0.77393-3.11914-3.07861-2.3457-5.14746c0.77441-2.06885,3.07617-3.12012,5.14844-2.3457
		c23.96777,8.96289,44.23438,22.68799,58.61035,39.69092c14.93848,17.66846,22.83496,38.14551,22.83496,59.21729
		C386.30554,172.8916,384.51453,174.68262,382.30554,174.68262z"/>
	<ellipse fill="#B4BBE8" cx="239.45331" cy="141.04512" rx="101.30463" ry="47.30893"/>
	<path fill="#FFFFFF" d="M217.14197,93.51123c-2.021,0-3.75684-1.52686-3.97314-3.58154
		c-0.23145-2.19727,1.3623-4.16553,3.55908-4.39697c6.08447-0.64062,12.3291-0.96533,18.55957-0.96533c2.20898,0,4,1.79102,4,4
		s-1.79102,4-4,4c-5.95215,0-11.91455,0.31006-17.72168,0.92139C217.42322,93.50391,217.2821,93.51123,217.14197,93.51123z"/>
	<path fill="#FFFFFF" d="M155.38611,115.29492c-1.21924,0-2.42334-0.55518-3.20898-1.60791
		c-1.3208-1.77051-0.95654-4.27686,0.81396-5.59814c10.38916-7.75146,23.9082-13.99219,39.0957-18.04736
		c2.13379-0.5708,4.32617,0.69824,4.89648,2.83301c0.56982,2.13428-0.69873,4.32666-2.83301,4.89648
		c-14.21484,3.79541-26.79297,9.58008-36.375,16.72998C157.0575,115.03662,156.21814,115.29492,155.38611,115.29492z"/>
	<path fill="#FFFFFF" d="M171.15222,51.64893c-1.51123,0-2.95752-0.86084-3.6333-2.32275
		c-0.92676-2.00537-0.05273-4.38232,1.95264-5.30908c10.28564-4.75342,22.20459-7.26611,34.46826-7.26611c2.20898,0,4,1.79102,4,4
		s-1.79102,4-4,4c-11.11279,0-21.87109,2.25732-31.11182,6.52783C172.28455,51.52979,171.71375,51.64893,171.15222,51.64893z"/>
	<path fill="#6A78D0" d="M153.27954,171.466c-9.82593,18.44366-9.41193,34.21979-9.41193,73.02754l-6.23683-4.64928
		c0,0-24.38815-57.5921,0.5179-88.6936L153.27954,171.466z"/>
	<path fill="#6A78D0" d="M325.66269,171.466c9.82593,18.44366,9.41193,34.21979,9.41193,73.02754l6.23682-4.64928
		c0,0,19.17322-50.59032-5.73282-81.69182L325.66269,171.466z"/>
	<path fill="#33475B" d="M239.45349,192.354c-47.60791,0-88.26172-14.76904-101.16113-36.75098
		c-1.11816-1.90527-0.47998-4.35596,1.42529-5.47412c1.9043-1.11963,4.35645-0.47998,5.47412,1.42529
		c11.33301,19.31201,50.09473,32.7998,94.26172,32.7998c30.74951,0,59.14111-6.44531,77.89502-17.68311
		c4.83496-2.89746,8.86133-6.03955,11.96875-9.33887c1.51465-1.60791,4.0459-1.68506,5.6543-0.16992
		c1.6084,1.51465,1.68457,4.0459,0.16992,5.6543c-3.61133,3.83545-8.21484,7.44092-13.68164,10.7168
		C301.49988,185.49414,271.60925,192.354,239.45349,192.354z"/>
	<path fill="#33475B" d="M179.88318,221.07031c-1.22168,0-2.42822-0.55811-3.21338-1.61426
		c-1.31787-1.77295-0.94873-4.27881,0.82422-5.59668c10.38477-7.71826,24.64404-8.15039,35.48291-1.07373
		c1.8501,1.20752,2.37061,3.68604,1.1626,5.53564c-1.20703,1.85059-3.68506,2.37158-5.53564,1.1626
		c-8.04639-5.25293-18.63086-4.93164-26.3374,0.79639C181.54968,220.81299,180.71277,221.06982,179.88318,221.07031z"/>
	<path fill="#33475B" d="M268.83679,215.82764c-0.91699,0-1.83887-0.31348-2.5918-0.95508
		c-1.68164-1.43262-1.88379-3.95752-0.45117-5.63916c8.39258-9.85107,22.18945-13.47266,34.33789-9.00586
		c2.07324,0.7627,3.13574,3.06152,2.37305,5.13477c-0.76172,2.07373-3.06152,3.13623-5.13477,2.37402
		c-9.01074-3.31543-19.25684-0.62891-25.48633,6.68555C271.09265,215.3501,269.96863,215.82764,268.83679,215.82764z"/>
	<path fill="#33475B" d="M239.57898,302.41553c-7.36035,0-14.65283-1.90039-21.08984-5.49609
		c-1.92871-1.07715-2.61865-3.51465-1.5415-5.44238c1.07764-1.92871,3.51514-2.61816,5.44287-1.54199
		c5.24707,2.93164,11.19092,4.48047,17.18848,4.48047c6.08105,0,12.0166-1.54492,17.16504-4.4668
		c1.91992-1.0918,4.36328-0.41797,5.45312,1.50391c1.09082,1.92188,0.41699,4.36328-1.50391,5.45312
		C254.34265,300.51025,247.04187,302.41553,239.57898,302.41553z"/>
</g>
</svg>
