<?xml version="1.0" encoding="utf-8"?>
<!-- Generator: Adobe Illustrator 22.1.0, SVG Export Plug-In . SVG Version: 6.00 Build 0)  -->
<svg version="1.1" id="Layer_1" xmlns="http://www.w3.org/2000/svg" xmlns:xlink="http://www.w3.org/1999/xlink" x="0px" y="0px"
	 viewBox="0 0 478.90662 478.90662" enable-background="new 0 0 478.90662 478.90662" xml:space="preserve">
<g id="Idle_1_">
	<g>
		<defs>
			<circle id="SVGID_1_" cx="239.45331" cy="239.45331" r="239.45331"/>
		</defs>
		<clipPath id="SVGID_2_">
			<use xlink:href="#SVGID_1_"  overflow="visible"/>
		</clipPath>
		<g clip-path="url(#SVGID_2_)">
			
				<path fill="#7FD1DE" stroke="#33475B" stroke-width="8" stroke-linecap="round" stroke-linejoin="round" stroke-miterlimit="10" d="
				M224.11864,278.11996h30.66936c69.35373,0,125.57602,56.22232,125.57602,125.57605v96.23694H98.5426v-96.23694
				C98.5426,334.34229,154.76491,278.11996,224.11864,278.11996z"/>
			<g>
				<g>
					
						<line fill="none" stroke="#33475B" stroke-width="8" stroke-linecap="round" stroke-linejoin="round" stroke-miterlimit="10" x1="169.10745" y1="499.93295" x2="169.10745" y2="433.0675"/>
				</g>
				<g>
					
						<line fill="none" stroke="#33475B" stroke-width="8" stroke-linecap="round" stroke-linejoin="round" stroke-miterlimit="10" x1="309.79916" y1="499.93295" x2="309.79916" y2="433.0675"/>
				</g>
			</g>
		</g>
	</g>
</g>
<g id="Avatar_1">
	
		<circle fill="#8B6556" stroke="#33475B" stroke-width="8" stroke-linecap="round" stroke-linejoin="round" stroke-miterlimit="10" cx="330.33484" cy="194.36313" r="20.9198"/>
	<g>
		<g>
			
				<path fill="#33475B" stroke="#33475B" stroke-width="8" stroke-linecap="round" stroke-linejoin="round" stroke-miterlimit="10" d="
				M284.06284,374.71716c-2.65256,1.95691-4.34854,5.04446-4.34854,8.56674c0,5.95746,4.82709,10.78427,10.78455,10.78427
				c1.34802,0,2.65253-0.26089,3.82672-0.73917c-0.78296,1.47833-1.21771,3.17435-1.21771,4.95737
				c0,5.91394,4.82678,10.74075,10.78427,10.74075c5.95746,0,10.741-4.82681,10.741-10.74075
				c0-1.78302-0.43503-3.47903-1.17419-4.95737c1.17419,0.47827,2.4787,0.73917,3.82672,0.73917
				c5.95746,0,10.78427-4.82681,10.78427-10.78427c0-3.52228-1.69571-6.60983-4.34854-8.56674
				c4.9574-1.00006,8.65381-5.3486,8.65381-10.56686c0-5.47922-4.08762-10.00159-9.39297-10.65396
				c1.52216-1.82632,2.43518-4.17441,2.43518-6.74017c0-5.95746-4.82681-10.78427-10.78427-10.78427
				c-5.91394,0-10.741,4.82681-10.741,10.78427c0-5.95746-4.82681-10.78427-10.78427-10.78427
				c-5.91394,0-10.74075,4.82681-10.74075,10.78427c0,2.56577,0.91302,4.91385,2.43518,6.74017
				c-5.30536,0.65237-9.39297,5.17474-9.39297,10.65396C275.4093,369.41211,279.14896,373.76062,284.06284,374.71716z"/>
			
				<path fill="#33475B" stroke="#33475B" stroke-width="8" stroke-linecap="round" stroke-linejoin="round" stroke-miterlimit="10" d="
				M277.98767,286.44183c0-4.14096,2.36404-7.69351,5.79211-9.49463c-3.02225-15.69202-4.74185-32.41304-4.74185-49.86714
				c0-40.79532,8.91974-77.96031,23.6528-105.96352c12.43912,23.56284,20.68472,53.65485,23.0116,86.89545
				c0.24948-0.01724,0.48755-0.07484,0.74155-0.07484c5.9458,0,10.76596,4.82018,10.76596,10.76595
				c0,4.64209-2.95404,8.56276-7.07193,10.0743c4.11789,1.51152,7.07193,5.43221,7.07193,10.07428
				c0,5.61986-4.32199,10.18152-9.8147,10.67014c4.65454,1.18747,8.11206,5.3725,8.11206,10.39677
				c0,5.94604-4.82016,10.7662-10.7662,10.7662c-0.62479,0-1.22833-0.08173-1.82419-0.18393
				c-0.0199,0.12024-0.03131,0.24683-0.05121,0.36679c5.07761,0.86606,8.95212,5.25839,8.95212,10.5831
				c0,5.94577-4.82019,10.76596-10.76596,10.76596c-0.33124,0-0.6431-0.06821-0.96664-0.09741
				c2.80914,1.94281,4.65588,5.17847,4.65588,8.85257c0,5.9458-4.81992,10.76596-10.76596,10.76596
				c-0.61441,0-1.18585-0.14145-1.77057-0.24124c-0.29062,0.78748-0.62186,1.52426-0.92044,2.30219
				c1.65433,1.89291,2.69101,4.34058,2.69101,7.05203c0,5.88498-4.72592,10.65021-10.58759,10.74789
				c-0.24127,0.4682-0.45227,0.98175-0.69672,1.44492c-0.26221-0.4982-0.48834-1.05026-0.74686-1.55426
				c-5.3425-0.63303-9.50073-5.12592-9.50073-10.63855c0-2.13181,0.63885-4.10623,1.70767-5.77832
				c-0.00186,0-0.0032,0.00052-0.00507,0.00052c-5.94577,0-10.76593-4.82016-10.76593-10.7662
				c0-2.86911,1.1402-5.46036,2.96997-7.39017C281.56546,295.82126,277.98767,291.55847,277.98767,286.44183z"/>
			
				<rect x="289.72394" y="314.60812" fill="#DBAE60" stroke="#33475B" stroke-width="8" stroke-linecap="round" stroke-linejoin="round" stroke-miterlimit="10" width="28.33661" height="21.38177"/>
		</g>
		<g>
			
				<path fill="#33475B" stroke="#33475B" stroke-width="8" stroke-linecap="round" stroke-linejoin="round" stroke-miterlimit="10" d="
				M194.43214,374.71716c2.65254,1.95691,4.34853,5.04446,4.34853,8.56674c0,5.95746-4.82707,10.78427-10.78453,10.78427
				c-1.34804,0-2.65254-0.26089-3.82672-0.73917c0.78296,1.47833,1.21771,3.17435,1.21771,4.95737
				c0,5.91394-4.8268,10.74075-10.78427,10.74075c-5.95746,0-10.741-4.82681-10.741-10.74075
				c0-1.78302,0.43501-3.47903,1.17418-4.95737c-1.17418,0.47827-2.47868,0.73917-3.82672,0.73917
				c-5.95746,0-10.78427-4.82681-10.78427-10.78427c0-3.52228,1.69572-6.60983,4.34854-8.56674
				c-4.9574-1.00006-8.65379-5.3486-8.65379-10.56686c0-5.47922,4.08762-10.00159,9.39296-10.65396
				c-1.52214-1.82632-2.43517-4.17441-2.43517-6.74017c0-5.95746,4.82681-10.78427,10.78427-10.78427
				c5.91394,0,10.741,4.82681,10.741,10.78427c0-5.95746,4.82681-10.78427,10.78427-10.78427
				c5.91394,0,10.74074,4.82681,10.74074,10.78427c0,2.56577-0.91302,4.91385-2.43517,6.74017
				c5.30534,0.65237,9.39297,5.17474,9.39297,10.65396C203.08568,369.41211,199.34601,373.76062,194.43214,374.71716z"/>
			
				<path fill="#33475B" stroke="#33475B" stroke-width="8" stroke-linecap="round" stroke-linejoin="round" stroke-miterlimit="10" d="
				M200.50729,286.44183c0-4.14096-2.36404-7.69351-5.79211-9.49463c3.02226-15.69202,4.74187-32.41304,4.74187-49.86714
				c0-40.79532-8.91974-77.96031-23.65282-105.96352c-12.43912,23.56284-20.68471,53.65485-23.01158,86.89545
				c-0.2495-0.01724-0.48756-0.07484-0.74156-0.07484c-5.94579,0-10.76596,4.82018-10.76596,10.76595
				c0,4.64209,2.95406,8.56276,7.07195,10.0743c-4.11789,1.51152-7.07195,5.43221-7.07195,10.07428
				c0,5.61986,4.32199,10.18152,9.81471,10.67014c-4.65454,1.18747-8.11208,5.3725-8.11208,10.39677
				c0,5.94604,4.82016,10.7662,10.7662,10.7662c0.62479,0,1.22833-0.08173,1.82419-0.18393
				c0.01991,0.12024,0.03133,0.24683,0.05122,0.36679c-5.07762,0.86606-8.95212,5.25839-8.95212,10.5831
				c0,5.94577,4.82018,10.76596,10.76596,10.76596c0.33122,0,0.6431-0.06821,0.96663-0.09741
				c-2.80913,1.94281-4.65588,5.17847-4.65588,8.85257c0,5.9458,4.81992,10.76596,10.76596,10.76596
				c0.61443,0,1.18587-0.14145,1.77057-0.24124c0.29063,0.78748,0.62186,1.52426,0.92046,2.30219
				c-1.65433,1.89291-2.69102,4.34058-2.69102,7.05203c0,5.88498,4.72594,10.65021,10.58759,10.74789
				c0.24127,0.4682,0.45227,0.98175,0.69672,1.44492c0.26222-0.4982,0.48836-1.05026,0.74687-1.55426
				c5.3425-0.63303,9.50073-5.12592,9.50073-10.63855c0-2.13181-0.63885-4.10623-1.70767-5.77832
				c0.00186,0,0.00319,0.00052,0.00505,0.00052c5.94577,0,10.76595-4.82016,10.76595-10.7662
				c0-2.86911-1.14021-5.46036-2.96997-7.39017C196.92952,295.82126,200.50729,291.55847,200.50729,286.44183z"/>
			
				<rect x="160.43443" y="314.60812" fill="#DBAE60" stroke="#33475B" stroke-width="8" stroke-linecap="round" stroke-linejoin="round" stroke-miterlimit="10" width="28.33661" height="21.38177"/>
		</g>
	</g>
	
		<circle fill="#8B6556" stroke="#33475B" stroke-width="8" stroke-linecap="round" stroke-linejoin="round" stroke-miterlimit="10" cx="147.93686" cy="194.36313" r="20.9198"/>
	
		<path fill="#AE7E6B" stroke="#33475B" stroke-width="8" stroke-linecap="round" stroke-linejoin="round" stroke-miterlimit="10" d="
		M239.24757,308.89917h-0.00018c-50.42941,0-91.31053-40.8811-91.31053-91.31053v-46.45102
		c0-50.42943,40.88112-91.31055,91.31053-91.31055h0.00018c50.42943,0,91.31053,40.88112,91.31053,91.31055v46.45102
		C330.55811,268.01807,289.677,308.89917,239.24757,308.89917z"/>
	<path fill="#33475B" d="M206.23457,194.34067c0,6.18382-5.05537,11.2392-11.2392,11.2392
		c-6.18381,0-11.19429-5.05537-11.19429-11.2392c0-6.18381,5.01048-11.19427,11.19429-11.19427
		c1.03807,0,2.07616,0.13554,3.06932,0.45154c-1.26398,0.94771-2.03125,2.4825-2.03125,4.19775
		c0,3.06932,2.48251,5.50664,5.50665,5.50664c1.76042,0,3.29523-0.76726,4.28812-2.03123
		C206.09903,192.21907,206.23457,193.25714,206.23457,194.34067z"/>
	<path fill="#33475B" d="M294.69388,194.34067c0,6.18382-5.05539,11.2392-11.2392,11.2392s-11.19427-5.05537-11.19427-11.2392
		c0-6.18381,5.01047-11.19427,11.19427-11.19427c1.03809,0,2.07614,0.13554,3.06934,0.45154
		c-1.26401,0.94771-2.03125,2.4825-2.03125,4.19775c0,3.06932,2.48251,5.50664,5.50665,5.50664
		c1.76041,0,3.2952-0.76726,4.28812-2.03123C294.55835,192.21907,294.69388,193.25714,294.69388,194.34067z"/>
	
		<path fill="#AE7E6B" stroke="#33475B" stroke-width="8" stroke-linecap="round" stroke-linejoin="round" stroke-miterlimit="10" d="
		M232.90549,194.36313l-7.20993,23.57567c-1.44063,4.71066,2.08295,9.47292,7.00897,9.47292h9.91917"/>
	<g>
		<g>
			
				<path fill="#33475B" stroke="#33475B" stroke-width="8" stroke-linecap="round" stroke-linejoin="round" stroke-miterlimit="10" d="
				M348.0618,157.93948c0.10022,5.02199-3.11392,9.34084-7.68381,10.84737c-0.75342,0.25104-1.50653,0.40186-2.3602,0.5024
				c-0.25134,0-0.50238,0.04996-0.75342,0.04996c-0.70316,0-1.40631-0.04996-2.10913-0.1505
				c-0.15082,0-0.25134-0.05028-0.35159-0.05028c-53.23334-2.9628-95.41792-47.05608-95.51846-100.99226v-0.15081
				c-0.05026-0.60262-0.05026-1.20523,0-1.80785c0.45212-6.12669,5.82568-10.69687,11.90211-10.24476
				c6.127,0.50208,10.69688,5.82538,10.24507,11.90211c-0.05029,0.90392-0.25134,1.75758-0.50238,2.56126
				c0.3013,0.05027,0.55234,0.10023,0.85364,0.20077c0.05026-0.85365,0.20108-1.70761,0.50238-2.51099
				c1.90839-5.82538,8.18588-8.98926,14.01126-7.03092c5.82568,1.90838,8.98956,8.18588,7.03091,14.01156
				c-0.3013,0.90392-0.70316,1.75758-1.25549,2.56127c0.3013,0.10023,0.60263,0.25104,0.90393,0.40154
				c0.25104-0.85365,0.65286-1.70731,1.15497-2.51099c3.2644-5.1725,10.09424-6.7293,15.26706-3.46519
				c5.22275,3.26442,6.72931,10.14452,3.46518,15.31733c-0.45212,0.75311-1.00446,1.406-1.65735,2.00861
				c0.25104,0.15081,0.45181,0.30131,0.70316,0.55235c0.45181-0.70284,1.00415-1.35573,1.60678-1.95834
				c4.41937-4.21861,11.45029-4.0678,15.66891,0.35158c4.21829,4.46935,4.06778,11.44999-0.35159,15.71857
				c-0.45212,0.40184-0.90393,0.80369-1.40631,1.105c0.20108,0.20077,0.35159,0.40185,0.50238,0.60262
				c0.40155-0.35158,0.85367-0.70316,1.35574-0.95419c5.3233-3.06334,12.10318-1.20523,15.16653,4.11807
				c3.01306,5.32331,1.15494,12.10288-4.16837,15.11626c-0.15048,0.10023-0.3013,0.20077-0.50208,0.25104
				c0.15051,0.25104,0.30133,0.50208,0.40186,0.75342c0.10022-0.05027,0.25104-0.10053,0.40155-0.1508
				c5.87595-1.65735,12.00262,1.80785,13.65997,7.6838c1.55682,5.57434-1.35602,11.29948-6.62906,13.30811
				c0.15048,0.40184,0.25104,0.85365,0.3013,1.30577C343.44135,147.64445,347.86072,152.21432,348.0618,157.93948z"/>
		</g>
		<g>
			
				<path fill="#33475B" stroke="#33475B" stroke-width="8" stroke-linecap="round" stroke-linejoin="round" stroke-miterlimit="10" d="
				M130.43318,157.93948c-0.10023,5.02199,3.11391,9.34084,7.68379,10.84737c0.75342,0.25104,1.50655,0.40186,2.3602,0.5024
				c0.25134,0,0.50238,0.04996,0.75342,0.04996c0.70316,0,1.40631-0.04996,2.10915-0.1505
				c0.15082,0,0.25134-0.05028,0.35158-0.05028c53.23335-2.9628,95.41794-47.05608,95.51846-100.99226v-0.15081
				c0.05028-0.60262,0.05028-1.20523,0-1.80785c-0.4521-6.12669-5.82568-10.69687-11.9021-10.24476
				c-6.127,0.50208-10.69688,5.82538-10.24507,11.90211c0.05028,0.90392,0.25134,1.75758,0.50238,2.56126
				c-0.3013,0.05027-0.55234,0.10023-0.85365,0.20077c-0.05026-0.85365-0.20107-1.70761-0.50238-2.51099
				c-1.90839-5.82538-8.18588-8.98926-14.01126-7.03092c-5.82568,1.90838-8.98956,8.18588-7.03091,14.01156
				c0.30132,0.90392,0.70316,1.75758,1.25549,2.56127c-0.3013,0.10023-0.60262,0.25104-0.90392,0.40154
				c-0.25104-0.85365-0.65288-1.70731-1.15497-2.51099c-3.26442-5.1725-10.09425-6.7293-15.26706-3.46519
				c-5.22276,3.26442-6.72931,10.14452-3.46519,15.31733c0.45212,0.75311,1.00447,1.406,1.65735,2.00861
				c-0.25104,0.15081-0.45181,0.30131-0.70316,0.55235c-0.4518-0.70284-1.00415-1.35573-1.60677-1.95834
				c-4.41937-4.21861-11.4503-4.0678-15.66891,0.35158c-4.21829,4.46935-4.06779,11.44999,0.35158,15.71857
				c0.45212,0.40184,0.90393,0.80369,1.40631,1.105c-0.20108,0.20077-0.35158,0.40185-0.50238,0.60262
				c-0.40154-0.35158-0.85365-0.70316-1.35573-0.95419c-5.3233-3.06334-12.1032-1.20523-15.16653,4.11807
				c-3.01308,5.32331-1.15495,12.10288,4.16835,15.11626c0.1505,0.10023,0.3013,0.20077,0.50208,0.25104
				c-0.1505,0.25104-0.30132,0.50208-0.40186,0.75342c-0.10022-0.05027-0.25104-0.10053-0.40154-0.1508
				c-5.87595-1.65735-12.00264,1.80785-13.65999,7.6838c-1.55681,5.57434,1.35603,11.29948,6.62907,13.30811
				c-0.1505,0.40184-0.25104,0.85365-0.30132,1.30577C135.05363,147.64445,130.63425,152.21432,130.43318,157.93948z"/>
		</g>
	</g>
	<path fill="none" stroke="#33475B" stroke-width="8" stroke-linecap="round" stroke-linejoin="round" stroke-miterlimit="10" d="
		M269.97498,245.49489c-4.68109,4.50507-10.60291,7.85577-17.31044,9.56845c-6.7569,1.7253-13.52312,1.56172-19.7787-0.09819"/>
	<path fill="none" stroke="#33475B" stroke-width="8" stroke-linecap="round" stroke-linejoin="round" stroke-miterlimit="10" d="
		M268.02197,172.85994c9.74872-6.36465,22.08154-5.62677,30.91034,0.93506"/>
	<path fill="none" stroke="#33475B" stroke-width="8" stroke-linecap="round" stroke-linejoin="round" stroke-miterlimit="10" d="
		M210.47301,172.85994c-9.74872-6.36465-22.08156-5.62677-30.91035,0.93506"/>
</g>
</svg>
