<?xml version="1.0" encoding="utf-8"?>
<!-- Generator: Adobe Illustrator 22.1.0, SVG Export Plug-In . SVG Version: 6.00 Build 0)  -->
<svg version="1.1" id="Layer_1" xmlns="http://www.w3.org/2000/svg" xmlns:xlink="http://www.w3.org/1999/xlink" x="0px" y="0px"
	 viewBox="0 0 478.90662 478.90662" enable-background="new 0 0 478.90662 478.90662" xml:space="preserve">
<g id="Idle_10_">
	<g>
		<defs>
			<circle id="SVGID_1_" cx="239.45331" cy="239.45331" r="239.45331"/>
		</defs>
		<clipPath id="SVGID_2_">
			<use xlink:href="#SVGID_1_"  overflow="visible"/>
		</clipPath>
		<g clip-path="url(#SVGID_2_)">
			<g>
				<path fill="#7FD1DE" d="M224.11864,278.11996h30.66936c69.35373,0,125.57602,56.22232,125.57602,125.57605v96.23694H98.5426
					v-96.23694C98.5426,334.34229,154.76491,278.11996,224.11864,278.11996z"/>
				<path fill="#33475B" d="M380.36414,503.93274H98.54237c-2.20898,0-4-1.79102-4-4v-96.23633
					c0-71.44824,58.12743-129.57617,129.57617-129.57617h30.66943c71.44823,0,129.57616,58.12793,129.57616,129.57617v96.23633
					C384.36414,502.14172,382.57312,503.93274,380.36414,503.93274z M102.54237,495.93274h273.82178v-92.23633
					c0-67.03711-54.53906-121.57617-121.57617-121.57617h-30.66943c-67.03711,0-121.57616,54.53906-121.57616,121.57617V495.93274z"
					/>
			</g>
			<g>
				<g>
					<g>
						<line fill="none" x1="169.10745" y1="499.93295" x2="169.10745" y2="433.0675"/>
						<path fill="#33475B" d="M169.1073,503.93274c-2.20898,0-4-1.79102-4-4V433.0675c0-2.20898,1.79102-4,4-4s4,1.79102,4,4
							v66.86523C173.1073,502.14172,171.31628,503.93274,169.1073,503.93274z"/>
					</g>
				</g>
				<g>
					<g>
						<line fill="none" x1="309.79916" y1="499.93295" x2="309.79916" y2="433.0675"/>
						<path fill="#33475B" d="M309.79871,503.93274c-2.20898,0-4-1.79102-4-4V433.0675c0-2.20898,1.79102-4,4-4s4,1.79102,4,4
							v66.86523C313.79871,502.14172,312.00769,503.93274,309.79871,503.93274z"/>
					</g>
				</g>
			</g>
		</g>
	</g>
</g>
<g id="Avatar_10">
	<g>
		<g>
			<path fill="#F0DCD5" d="M238.53314,310.01794h-0.00018c-50.42941,0-91.31053-40.8811-91.31053-91.31053v-46.45103
				c0-50.42941,40.88112-91.31053,91.31053-91.31053h0.00018c50.42941,0,91.31055,40.88112,91.31055,91.31053v46.45103
				C329.84369,269.13684,288.96255,310.01794,238.53314,310.01794z"/>
			<path fill="#33475B" d="M238.53308,314.0177c-52.5542,0-95.31055-42.75586-95.31055-95.31006v-46.45117
				c0-52.5542,42.75635-95.31055,95.31055-95.31055c52.55469,0,95.31055,42.75635,95.31055,95.31055v46.45117
				C333.84363,271.26184,291.08777,314.0177,238.53308,314.0177z M238.53308,84.94592
				c-48.14307,0-87.31055,39.16748-87.31055,87.31055v46.45117c0,48.14307,39.16748,87.31006,87.31055,87.31006
				c48.14355,0,87.31055-39.16699,87.31055-87.31006v-46.45117C325.84363,124.1134,286.67664,84.94592,238.53308,84.94592z"/>
		</g>
		<g>
			<path fill="#F0DCD5" d="M232.19106,195.4819l-7.20995,23.57567c-1.44061,4.71066,2.08296,9.4729,7.00899,9.4729h9.91917"/>
			<path fill="#33475B" d="M241.90906,232.5304h-9.91895c-3.62939,0-6.94922-1.67334-9.10791-4.59082
				c-2.1582-2.91797-2.7876-6.58154-1.72607-10.05176l7.20996-23.57568c0.646-2.11279,2.88135-3.30078,4.99512-2.65527
				c2.1123,0.646,3.30127,2.88232,2.65527,4.99512l-7.20996,23.57568c-0.31201,1.02002-0.12744,2.09619,0.50684,2.95361
				s1.60986,1.34912,2.67676,1.34912h9.91895c2.20898,0,4,1.79102,4,4S244.11804,232.5304,241.90906,232.5304z"/>
		</g>
		<g>
			<path fill="#AE7E6B" d="M329.78403,207.8421v-35.57996c0-10.82007-1.88013-21.20007-5.34009-30.82007
				c-12.58008,1.42004-25.76001,2.18005-39.34009,2.18005c-48.19995,0-91.43994-9.4801-120.8999-24.46008
				c-10.73999,14.94006-17.04004,33.28003-17.04004,53.1001v15.41992c-17.04004-7.90002-28.85986-25.16003-28.85986-45.16003
				c0-8.75549,2.25921-16.98017,6.22897-24.1253c4.95801-8.92387,5.49869-19.69334,0.63554-28.66927
				c-3.42645-6.32423-5.31541-13.59592-5.16481-21.32543c0.40015-22.17993,18.08008-40.77991,40.2002-42.23999
				c0.54004-0.03992,1.08008-0.05994,1.6001-0.07996c12.19971-0.35999,23.27979,4.31995,31.31982,12.12
				c13.02002,12.57996,30.97998,18.31995,48.82007,15.26001c6.61987-1.14001,13.5-1.57996,20.52002-1.26001
				c46.67993,2.16003,84.95996,38.85999,89.5,84.93995c0.15991,1.46008,0.26001,2.94006,0.34009,4.42004
				C353.60385,166.92206,344.9039,190.20209,329.78403,207.8421z"/>
			<path fill="#33475B" d="M329.78308,211.84192c-0.46484,0-0.93359-0.08105-1.38672-0.24854
				c-1.57031-0.58057-2.6123-2.07764-2.6123-3.75146v-35.57959c0-9.07715-1.37695-17.97656-4.09668-26.49951
				c-11.96094,1.23438-24.25195,1.85938-36.58398,1.85938c-45.31836,0-88.62939-8.48096-119.57178-23.34229
				c-9.41064,14.21532-14.36768,30.73193-14.36768,47.98243v15.41992c0,1.36523-0.69629,2.63623-1.84717,3.37109
				c-1.15088,0.73535-2.59619,0.83252-3.83545,0.25781c-18.93945-8.78125-31.17724-27.93213-31.17724-48.78906
				c0-9.12646,2.32812-18.14062,6.73242-26.06836c4.4585-8.02441,4.68799-17.30273,0.61475-24.82031
				c-3.85254-7.11133-5.80518-15.17139-5.64648-23.30908c0.4375-24.28077,19.73681-44.55616,43.93603-46.15332
				c0.53564-0.04004,1.10352-0.0625,1.65186-0.0835c12.96924-0.38672,25.11963,4.32129,34.31641,13.24365
				c12.27002,11.85449,28.80322,17.02783,45.35938,14.18848c6.96875-1.20068,14.16211-1.64551,21.37791-1.31299
				c48.4375,2.24072,88.5459,40.30616,93.29785,88.54346c0.18262,1.65869,0.28516,3.33008,0.35352,4.5957
				c1.30078,25.38379-7.03711,49.91992-23.47656,69.09912C332.04578,211.34924,330.92859,211.84192,329.78308,211.84192z
				 M324.44617,137.44202c1.66992,0,3.18652,1.04492,3.76172,2.64648c3.7002,10.28711,5.57617,21.11182,5.57617,32.17383v23.60352
				c10.40625-15.91504,15.5166-34.73975,14.52441-54.09912c-0.06152-1.15186-0.15527-2.68018-0.32129-4.18848
				c-4.37012-44.35449-41.21484-79.32178-85.70801-81.38037c-6.63574-0.30176-13.25098,0.10303-19.65625,1.20605
				c-19.09375,3.27441-38.15039-2.6748-52.27832-16.3252c-7.63818-7.41016-17.73779-11.30566-28.42236-10.99854
				c-0.47803,0.01855-0.9502,0.03613-1.42236,0.07129c-20.11621,1.32764-36.13329,18.16016-36.49657,38.32277
				c-0.13184,6.7627,1.4873,13.45117,4.68211,19.34814c5.38232,9.93408,5.13721,22.08984-0.65576,32.51709
				c-3.7456,6.7417-5.72558,14.41211-5.72558,22.18262c0,15.57031,8.0122,30.02295,20.85986,38.38525v-8.64502
				c0-20.07471,6.15234-39.24365,17.79199-55.43506c1.15283-1.60205,3.30176-2.125,5.06104-1.23047
				c30.02734,15.26855,73.43262,24.02539,119.08643,24.02539c13.13867,0,26.22363-0.7251,38.89258-2.15479
				C324.14636,137.45032,324.29773,137.44202,324.44617,137.44202z"/>
		</g>
		<path fill="#FFFFFF" d="M136.78601,73.57922c-2.20898,0-4-1.79102-4-4c0-16.59815,13.50391-30.10205,30.10205-30.10205
			c2.20898,0,4,1.79102,4,4s-1.79102,4-4,4c-12.18701,0-22.10205,9.91504-22.10205,22.10205
			C140.78601,71.78821,138.995,73.57922,136.78601,73.57922z"/>
		<g>
			<path fill="#E0BAAB" d="M147.22379,174.56207v41.83997c-11.56006,0-20.91993-9.35999-20.91993-20.91992
				C126.30386,183.92206,135.66373,174.56207,147.22379,174.56207z"/>
			<path fill="#33475B" d="M147.224,220.40198c-13.74072,0-24.91991-11.1792-24.91991-24.91992s11.17918-24.91992,24.91991-24.91992
				c2.20898,0,4,1.79102,4,4v41.83984C151.224,218.61096,149.43298,220.40198,147.224,220.40198z M143.224,179.03967
				c-7.40576,1.80176-12.91992,8.49023-12.91992,16.44238s5.51416,14.64062,12.91992,16.44238V179.03967z"/>
		</g>
		<g>
			<path fill="#E0BAAB" d="M329.84369,216.40204v-41.83997c11.56006,0,20.91992,9.35999,20.91992,20.91992
				C350.76361,207.04205,341.40375,216.40204,329.84369,216.40204z"/>
			<path fill="#33475B" d="M329.84363,220.40198c-2.20898,0-4-1.79102-4-4v-41.83984c0-2.20898,1.79102-4,4-4
				c13.74121,0,24.91992,11.1792,24.91992,24.91992S343.58484,220.40198,329.84363,220.40198z M333.84363,179.03967v32.88477
				c7.40527-1.80176,12.91992-8.49023,12.91992-16.44238S341.2489,180.84143,333.84363,179.03967z"/>
		</g>
		<path fill="#8B6556" d="M287.35339,127.48499c-12.74707,0-25.57324-0.80762-38.37793-2.42188
			c-2.19238-0.27637-3.74512-2.27734-3.46875-4.46924s2.27148-3.75098,4.46875-3.46826
			c22.51562,2.83936,45.10547,3.1167,67.13965,0.82812c2.20312-0.23096,4.16309,1.36816,4.3916,3.56543
			s-1.36816,4.16357-3.56543,4.3916C307.83875,126.96008,297.62195,127.48499,287.35339,127.48499z"/>
		<path fill="#8B6556" d="M222.48132,120.45959c-0.28271,0-0.56982-0.03027-0.85693-0.09326
			c-27.18213-5.93408-43.6084-13.36182-44.29443-13.6748c-2.00879-0.91748-2.89307-3.28906-1.97656-5.29834
			c0.91602-2.00879,3.28857-2.89453,5.29834-1.97949c0.16064,0.07324,16.40625,7.40137,42.67871,13.13721
			c2.15869,0.47119,3.52588,2.60254,3.05518,4.76074C225.97693,119.18274,224.32068,120.45959,222.48132,120.45959z"/>
		<path fill="#8B6556" d="M272.69812,108.42639c-34.51123,0-59.6626-9.52539-60.71631-9.93066
			c-2.06152-0.79346-3.08984-3.10791-2.29639-5.16992c0.79248-2.06104,3.10547-3.08936,5.16797-2.29736
			c0.30127,0.11523,24.93701,9.39795,57.84473,9.39795c2.20898,0,4,1.79102,4,4S274.9071,108.42639,272.69812,108.42639z"/>
		<path fill="#8B6556" d="M311.80359,96.88342c-1.23047,0-2.44531-0.56641-3.22852-1.63574
			c-0.15527-0.20947-16.37207-21.66846-45.30176-21.66846c-2.20898,0-4-1.79102-4-4s1.79102-4,4-4
			c33.09082,0,51.00684,23.92041,51.75293,24.93896c1.30664,1.78174,0.9209,4.28467-0.86035,5.59082
			C313.453,96.63147,312.62488,96.88342,311.80359,96.88342z"/>
		<path fill="#33475B" d="M205.63177,195.45944c0,6.18382-5.05537,11.2392-11.2392,11.2392
			c-6.18381,0-11.19427-5.05537-11.19427-11.2392c0-6.18381,5.01047-11.19427,11.19427-11.19427
			c1.03809,0,2.07616,0.13554,3.06932,0.45154c-1.26398,0.94771-2.03123,2.4825-2.03123,4.19775
			c0,3.06932,2.4825,5.50664,5.50664,5.50664c1.76042,0,3.29523-0.76726,4.28812-2.03123
			C205.49623,193.33784,205.63177,194.37592,205.63177,195.45944z"/>
		<path fill="#33475B" d="M294.09109,195.45944c0,6.18382-5.05539,11.2392-11.2392,11.2392s-11.19431-5.05537-11.19431-11.2392
			c0-6.18381,5.0105-11.19427,11.19431-11.19427c1.03806,0,2.07614,0.13554,3.06931,0.45154
			c-1.26398,0.94771-2.03125,2.4825-2.03125,4.19775c0,3.06932,2.48251,5.50664,5.50665,5.50664
			c1.76044,0,3.29523-0.76726,4.28812-2.03123C293.95554,193.33784,294.09109,194.37592,294.09109,195.45944z"/>
		<g>
			<path fill="#F0DCD5" d="M232.30269,195.4819l-7.20993,23.57567c-1.44063,4.71066,2.08295,9.4729,7.00897,9.4729h9.91919"/>
			<path fill="#33475B" d="M242.02136,232.5304h-9.91943c-3.62939,0-6.94922-1.67334-9.10742-4.59082
				c-2.15869-2.91748-2.78809-6.58105-1.72705-10.05176l7.20996-23.57568c0.646-2.11279,2.88086-3.30078,4.99512-2.65527
				c2.1123,0.646,3.30127,2.88232,2.65527,4.99512l-7.20996,23.57568c-0.31201,1.01953-0.12695,2.09619,0.50732,2.95361
				s1.60986,1.34912,2.67676,1.34912h9.91943c2.20898,0,4,1.79102,4,4S244.23035,232.5304,242.02136,232.5304z"/>
		</g>
	</g>
	<path fill="#AE7E6B" d="M178.99451,174.1803c-1.22168,0-2.42822-0.55811-3.21338-1.61426
		c-1.31787-1.77295-0.94873-4.27881,0.82422-5.59668c10.38477-7.71826,24.64404-8.15137,35.48291-1.07373
		c1.8501,1.20752,2.37061,3.68604,1.1626,5.53564c-1.20703,1.85059-3.68555,2.37207-5.53564,1.1626
		c-8.04688-5.25342-18.63037-4.93164-26.3374,0.79639C180.66101,173.92297,179.8241,174.17981,178.99451,174.1803z"/>
	<path fill="#AE7E6B" d="M298.35828,174.1803c-0.83008,0-1.66602-0.25732-2.38281-0.79004
		c-7.70801-5.72852-18.29199-6.05029-26.33789-0.7959c-1.85059,1.20654-4.32812,0.68652-5.53613-1.16309
		c-1.20703-1.84961-0.68652-4.32812,1.16309-5.53613c10.83984-7.07568,25.09961-6.64404,35.48242,1.07422
		c1.77344,1.31787,2.14258,3.82324,0.82422,5.59668C300.78699,173.62219,299.57996,174.17981,298.35828,174.1803z"/>
	<path fill="#33475B" d="M238.65906,265.24817c-7.3584,0-14.65137-1.90039-21.08984-5.49609
		c-1.92871-1.07715-2.61914-3.51367-1.54199-5.44238c1.07666-1.9292,3.51465-2.61816,5.44238-1.54199
		c5.24951,2.93066,11.19336,4.48047,17.18945,4.48047c6.08105,0,12.0166-1.54492,17.16504-4.4668
		c1.9209-1.09082,4.36328-0.41699,5.45312,1.50391c1.09082,1.92188,0.41699,4.36328-1.50391,5.45312
		C253.42273,263.3429,246.12195,265.24817,238.65906,265.24817z"/>
</g>
</svg>
