<?xml version="1.0" encoding="utf-8"?>
<!-- Generator: Adobe Illustrator 22.1.0, SVG Export Plug-In . SVG Version: 6.00 Build 0)  -->
<svg version="1.1" id="Layer_1" xmlns="http://www.w3.org/2000/svg" xmlns:xlink="http://www.w3.org/1999/xlink" x="0px" y="0px"
	 viewBox="0 0 478.90662 478.90662" enable-background="new 0 0 478.90662 478.90662" xml:space="preserve">
<g id="Idle_6_">
	<g>
		<defs>
			<circle id="SVGID_1_" cx="239.45331" cy="239.45331" r="239.45331"/>
		</defs>
		<clipPath id="SVGID_2_">
			<use xlink:href="#SVGID_1_"  overflow="visible"/>
		</clipPath>
		<g clip-path="url(#SVGID_2_)">
			<g>
				<path fill="#F5C26B" d="M224.11864,278.11996h30.66936c69.35373,0,125.57602,56.22232,125.57602,125.57605v96.23694H98.5426
					v-96.23694C98.5426,334.34229,154.76491,278.11996,224.11864,278.11996z"/>
				<path fill="#33475B" d="M380.36414,503.93274H98.54237c-2.20898,0-4-1.79102-4-4v-96.23633
					c0-71.44824,58.12743-129.57617,129.57617-129.57617h30.66943c71.44823,0,129.57616,58.12793,129.57616,129.57617v96.23633
					C384.36414,502.14172,382.57312,503.93274,380.36414,503.93274z M102.54237,495.93274h273.82178v-92.23633
					c0-67.03711-54.53906-121.57617-121.57617-121.57617h-30.66943c-67.03711,0-121.57616,54.53906-121.57616,121.57617V495.93274z"
					/>
			</g>
			<g>
				<g>
					<g>
						<line fill="none" x1="169.10745" y1="499.93295" x2="169.10745" y2="433.0675"/>
						<path fill="#33475B" d="M169.1073,503.93274c-2.20898,0-4-1.79102-4-4V433.0675c0-2.20898,1.79102-4,4-4s4,1.79102,4,4
							v66.86523C173.1073,502.14172,171.31628,503.93274,169.1073,503.93274z"/>
					</g>
				</g>
				<g>
					<g>
						<line fill="none" x1="309.79916" y1="499.93295" x2="309.79916" y2="433.0675"/>
						<path fill="#33475B" d="M309.79871,503.93274c-2.20898,0-4-1.79102-4-4V433.0675c0-2.20898,1.79102-4,4-4s4,1.79102,4,4
							v66.86523C313.79871,502.14172,312.00769,503.93274,309.79871,503.93274z"/>
					</g>
				</g>
			</g>
		</g>
	</g>
</g>
<g id="Avatar_6">
	<g>
		<circle fill="#8B6556" cx="330.65231" cy="194.30989" r="20.9198"/>
		<path fill="#33475B" d="M330.65222,219.22961c-13.74121,0-24.91992-11.1792-24.91992-24.91992
			s11.17871-24.91943,24.91992-24.91943s24.91992,11.17871,24.91992,24.91943S344.39343,219.22961,330.65222,219.22961z
			 M330.65222,177.39026c-9.33008,0-16.91992,7.58984-16.91992,16.91943s7.58984,16.91992,16.91992,16.91992
			s16.91992-7.59033,16.91992-16.91992S339.9823,177.39026,330.65222,177.39026z"/>
	</g>
	<g>
		<circle fill="#8B6556" cx="148.25432" cy="194.30989" r="20.9198"/>
		<path fill="#33475B" d="M148.25427,219.22961c-13.74072,0-24.91991-11.1792-24.91991-24.91992
			s11.17918-24.91943,24.91991-24.91943s24.91992,11.17871,24.91992,24.91943S161.995,219.22961,148.25427,219.22961z
			 M148.25427,177.39026c-9.32959,0-16.91992,7.58984-16.91992,16.91943s7.59033,16.91992,16.91992,16.91992
			s16.91992-7.59033,16.91992-16.91992S157.58386,177.39026,148.25427,177.39026z"/>
	</g>
	<g>
		<path fill="#AE7E6B" d="M239.56505,308.84595h-0.00018c-50.42943,0-91.31055-40.8811-91.31055-91.31053v-46.45103
			c0-50.42942,40.88112-91.31054,91.31055-91.31054h0.00018c50.42943,0,91.31053,40.88112,91.31053,91.31054v46.45103
			C330.87558,267.96484,289.99448,308.84595,239.56505,308.84595z"/>
		<path fill="#33475B" d="M239.56482,312.84583c-52.5542,0-95.31055-42.75586-95.31055-95.31055v-46.45068
			c0-52.5542,42.75635-95.31055,95.31055-95.31055s95.31104,42.75635,95.31104,95.31055v46.45068
			C334.87585,270.08997,292.11902,312.84583,239.56482,312.84583z M239.56482,83.77405
			c-48.14307,0-87.31055,39.16748-87.31055,87.31055v46.45068c0,48.14355,39.16748,87.31055,87.31055,87.31055
			s87.31104-39.16699,87.31104-87.31055v-46.45068C326.87585,122.94153,287.70789,83.77405,239.56482,83.77405z"/>
	</g>
	<path fill="#33475B" d="M206.55203,194.28745c0,6.18382-5.05537,11.2392-11.23918,11.2392
		c-6.18382,0-11.19429-5.05537-11.19429-11.2392s5.01047-11.19429,11.19429-11.19429c1.03807,0,2.07614,0.13554,3.06931,0.45154
		c-1.26398,0.94771-2.03123,2.48251-2.03123,4.19775c0,3.06932,2.4825,5.50665,5.50664,5.50665
		c1.76044,0,3.29523-0.76726,4.28812-2.03125C206.41649,192.16583,206.55203,193.20392,206.55203,194.28745z"/>
	<path fill="#33475B" d="M295.01135,194.28745c0,6.18382-5.05539,11.2392-11.2392,11.2392s-11.19427-5.05537-11.19427-11.2392
		s5.01047-11.19429,11.19427-11.19429c1.03809,0,2.07614,0.13554,3.06931,0.45154c-1.26398,0.94771-2.03122,2.48251-2.03122,4.19775
		c0,3.06932,2.48248,5.50665,5.50662,5.50665c1.76044,0,3.29523-0.76726,4.28812-2.03125
		C294.87579,192.16583,295.01135,193.20392,295.01135,194.28745z"/>
	<g>
		<path fill="#AE7E6B" d="M233.22295,194.30989l-7.20993,23.57567c-1.44061,4.71066,2.08295,9.47292,7.00899,9.47292h9.91917"/>
		<path fill="#33475B" d="M242.94128,231.35852h-9.91943c-3.62891,0-6.94824-1.67334-9.10693-4.59033
			c-2.15869-2.91748-2.78809-6.58154-1.72705-10.05225l7.20996-23.57617c0.646-2.11279,2.88086-3.30029,4.99512-2.65527
			c2.1123,0.646,3.30127,2.88232,2.65527,4.99512l-7.20996,23.57568c-0.31201,1.02002-0.12695,2.09668,0.50732,2.9541
			c0.63477,0.85742,1.60986,1.34912,2.67627,1.34912h9.91943c2.20898,0,4,1.79102,4,4S245.15027,231.35852,242.94128,231.35852z"/>
	</g>
	<g>
		<path fill="#33475B" d="M330.8649,210.83418l-0.21265,0.08008l-8.37524,22.52478
			c-6.43921,17.31775-27.26819,24.20644-42.76306,14.14294c-4.67871-3.0387-10.13794-4.65588-15.7168-4.65588h-24.23218h-0.23279
			h-24.23218c-5.57886,0-11.03809,1.61719-15.7168,4.65588c-15.49487,10.06349-36.32385,3.1748-42.76306-14.14294l-8.37524-22.52478
			c-2.09998,8.83997-3.21997,18.07996-3.21997,27.57996c0,57.33998,40.58008,105.26003,94.56006,116.66005
			c54-11.40002,94.52002-59.32007,94.52002-116.66005C334.10501,228.9742,332.98489,219.71419,330.8649,210.83418z"/>
		<path fill="#33475B" d="M239.58484,359.15442c-0.27686,0-0.5542-0.02832-0.82666-0.08594
			c-27.2334-5.75195-52.01758-20.83789-69.78711-42.47852c-18.02148-21.94727-27.94629-49.68262-27.94629-78.0957
			c0-9.61768,1.12012-19.20801,3.32861-28.50439c0.40723-1.71436,1.8877-2.95996,3.64648-3.06836
			c1.76904-0.10449,3.38086,0.94775,3.99414,2.59863l8.375,22.5249c2.64404,7.11035,8.29102,12.5542,15.49316,14.93604
			c7.20312,2.38184,14.98096,1.37744,21.34229-2.75342c5.33984-3.46826,11.52783-5.30176,17.89551-5.30176h48.69678
			c6.36816,0,12.55566,1.8335,17.89551,5.30176c6.36133,4.13184,14.14062,5.13379,21.34277,2.75342
			c7.20215-2.38184,12.84961-7.82617,15.49316-14.93604l8.375-22.5249c0.40332-1.08496,1.25684-1.94238,2.34082-2.34961
			l0.21289-0.08057c1.07422-0.40332,2.27148-0.32715,3.28516,0.21143c1.01367,0.53906,1.74707,1.4873,2.01367,2.604
			c2.22266,9.30908,3.34961,18.92773,3.34961,28.58887c0,28.41895-9.91504,56.15332-27.91797,78.09473
			c-17.75879,21.64258-42.53906,36.72852-69.77637,42.47949C240.13855,359.1261,239.86169,359.15442,239.58484,359.15442z
			 M149.67419,226.23645c-0.43213,4.06445-0.64941,8.1582-0.64941,12.25781c0,26.56738,9.2793,52.49902,26.12891,73.01855
			c16.44092,20.02344,39.29395,34.04492,64.43115,39.5498c25.13965-5.50391,47.98828-19.52539,64.41797-39.54785
			c16.83203-20.51465,26.10254-46.44727,26.10254-73.02051c0-4.2666-0.23438-8.52344-0.70117-12.74512l-3.37793,9.08398
			c-3.49414,9.39844-10.95898,16.59473-20.47852,19.74316c-9.51855,3.14941-19.80273,1.82324-28.21289-3.63965
			c-4.04004-2.62402-8.7207-4.01074-13.53809-4.01074h-48.69678c-4.81689,0-9.49854,1.38672-13.53809,4.01074
			c-8.40918,5.46094-18.69189,6.78809-28.21191,3.63965s-16.98438-10.34473-20.479-19.74316L149.67419,226.23645z"/>
	</g>
	<path fill="#D9A896" d="M203.2074,109.25305c-1.41748,0-2.79102-0.75537-3.5166-2.08838
		c-1.05615-1.93994-0.33984-4.36914,1.60059-5.42578c6.604-3.5957,13.67822-6.20898,21.02539-7.7666
		c2.16309-0.45557,4.28418,0.92236,4.74268,3.0835c0.45801,2.16113-0.92236,4.28467-3.0835,4.74268
		c-6.58984,1.39697-12.93506,3.74121-18.85938,6.9668C204.50916,109.09583,203.85388,109.25305,203.2074,109.25305z"/>
	<path fill="#D9A896" d="M167.52527,153.3092c-0.37598,0-0.75781-0.05322-1.13672-0.16553
		c-2.11865-0.62695-3.32715-2.85254-2.7002-4.9707c4.05664-13.70312,11.82959-26.0459,22.479-35.69385
		c1.63721-1.4834,4.16602-1.35889,5.6499,0.27881c1.4834,1.63721,1.3584,4.1665-0.27881,5.6499
		c-9.56152,8.66211-16.53906,19.74023-20.1792,32.03564C170.8446,152.18274,169.25134,153.3092,167.52527,153.3092z"/>
	<path fill="#516F90" d="M175.00818,291.24231c-1.65625,0-3.20508-1.03613-3.77881-2.68945
		c-2.50146-7.2041-4.18164-14.75293-4.99414-22.43555c-0.23193-2.19727,1.36035-4.16602,3.55713-4.39844
		c2.1958-0.24219,4.16602,1.36035,4.39893,3.55664c0.74805,7.07617,2.29443,14.02539,4.5957,20.6543
		c0.72461,2.08691-0.37988,4.36621-2.4668,5.08984C175.88562,291.17102,175.44324,291.24231,175.00818,291.24231z"/>
	<path fill="#516F90" d="M193.51062,322.73645c-1.09668,0-2.18799-0.44824-2.97803-1.32812
		c-5.05762-5.63379-9.45703-11.90918-13.07617-18.65137c-1.04492-1.94629-0.31396-4.37109,1.63281-5.41602
		c1.94434-1.0459,4.37061-0.31445,5.41602,1.63281c3.31787,6.18066,7.34863,11.93066,11.98047,17.09082
		c1.47559,1.64355,1.33936,4.17285-0.30469,5.64844C195.41736,322.39856,194.46228,322.73645,193.51062,322.73645z"/>
	<path fill="#516F90" d="M301.05359,304.72278c-0.50391,0-1.01465-0.0957-1.50977-0.29688
		c-2.0459-0.83496-3.02734-3.16895-2.19336-5.21484c4.4541-10.91895,6.71289-22.55762,6.71289-34.59277c0-2.20898,1.79102-4,4-4
		s4,1.79102,4,4c0,13.07617-2.45801,25.73145-7.30469,37.61426C304.12585,303.78333,302.63074,304.72278,301.05359,304.72278z"/>
	<path fill="#516F90" d="M202.02283,307.77942c-1.47559,0-2.89502-0.82031-3.59082-2.2334
		c-3.62207-7.35059-6.34082-15.28711-8.08154-23.58887c-0.45312-2.16211,0.93213-4.28223,3.09424-4.73535
		c2.16406-0.4502,4.28271,0.93262,4.73584,3.09473c1.60303,7.64551,4.10205,14.94434,7.42725,21.69434
		c0.97656,1.98145,0.16162,4.37891-1.81982,5.35547C203.21912,307.64661,202.61658,307.77942,202.02283,307.77942z"/>
	<path fill="#516F90" d="M274.22742,325.17493c-0.56738,0-1.14355-0.12109-1.69141-0.37793
		c-2.00098-0.93555-2.86523-3.31641-1.92871-5.31738c2.26855-4.85156,4.08008-10.08691,5.38574-15.56152
		c0.51172-2.14746,2.66797-3.47461,4.81836-2.96289c2.14844,0.51172,3.47559,2.66992,2.96289,4.81836
		c-1.43066,6.00098-3.42285,11.75293-5.9209,17.09473C277.17468,324.32141,275.7323,325.17493,274.22742,325.17493z"/>
	<path fill="#516F90" d="M282.11218,292.93762c-0.11328,0-0.22754-0.00488-0.34277-0.01465
		c-2.20117-0.18652-3.83398-2.12207-3.64746-4.32324c0.22363-2.63965,0.33691-5.33691,0.33691-8.01758c0-2.20898,1.79102-4,4-4
		s4,1.79102,4,4c0,2.90527-0.12305,5.83008-0.36621,8.69336C285.91589,291.36145,284.16785,292.93762,282.11218,292.93762z"/>
	<path fill="#33475B" d="M179.88318,177.74231c-1.22168,0-2.42822-0.55811-3.21338-1.61426
		c-1.31787-1.77295-0.94873-4.27881,0.82422-5.59668c10.38477-7.71875,24.64404-8.15039,35.48291-1.07373
		c1.8501,1.20752,2.37061,3.68604,1.1626,5.53564c-1.20703,1.85059-3.68506,2.37207-5.53564,1.1626
		c-8.04639-5.25293-18.63086-4.93213-26.3374,0.79639C181.54968,177.48499,180.71277,177.74182,179.88318,177.74231z"/>
	<path fill="#33475B" d="M299.24695,177.74231c-0.83008,0-1.66602-0.25732-2.38281-0.79004
		c-7.70996-5.72998-18.29492-6.04834-26.33789-0.79639c-1.85059,1.20752-4.32812,0.6875-5.53613-1.16211
		c-1.20703-1.8501-0.68652-4.32861,1.16309-5.53613c10.83691-7.07715,25.09766-6.64404,35.48242,1.07373
		c1.77344,1.31787,2.14258,3.82324,0.82422,5.59668C301.67566,177.1842,300.46863,177.74182,299.24695,177.74231z"/>
	<path fill="#AE7E6B" d="M231.10339,276.43469c-3.73779,0-7.47607-0.48242-11.10889-1.44629
		c-2.13525-0.56641-3.40674-2.75684-2.84033-4.89258c0.56689-2.13379,2.75488-3.40332,4.89209-2.83984
		c5.80908,1.54199,11.95117,1.57129,17.7627,0.08789c5.89209-1.50391,11.26123-4.46875,15.52588-8.57422
		c1.59082-1.53125,4.12305-1.48535,5.65625,0.10742c1.53223,1.5918,1.4834,4.12402-0.10742,5.65625
		c-5.26172,5.06445-11.86426,8.7168-19.0957,10.5625C238.29236,275.9884,234.69812,276.43469,231.10339,276.43469z"/>
</g>
</svg>
